<?xml version="1.0" encoding="UTF-8"?>
<!DOCTYPE svg PUBLIC "-//W3C//DTD SVG 1.1//EN" "http://www.w3.org/Graphics/SVG/1.1/DTD/svg11.dtd">
<!-- Creator: CorelDRAW (Evaluation Version) -->
<svg xmlns="http://www.w3.org/2000/svg" xml:space="preserve" version="1.1" style="shape-rendering:geometricPrecision; text-rendering:geometricPrecision; image-rendering:optimizeQuality; fill-rule:evenodd; clip-rule:evenodd"
viewBox="700 883 3600 3235"
 xmlns:xlink="http://www.w3.org/1999/xlink"
 xmlns:xodm="http://www.corel.com/coreldraw/odm/2003">
 <defs>
  <style type="text/css">
   <![CDATA[
    .fil4 {fill:none}
    .fil1 {fill:#1E1816}
    .fil2 {fill:#DA5B4A}
    .fil0 {fill:#DA5B4A}
    .fil3 {fill:#2D2A2B;fill-rule:nonzero}
   ]]>
  </style>
 </defs>
 <g id="Layer_x0020_1">
  <metadata id="CorelCorpID_0Corel-Layer"/>
  <path class="fil0" d="M2320.67 1647.44c12.2,-69.59 113,-87.29 141.05,-19.48 4.56,11.01 13.59,49.06 -5.47,37.58 -14.41,-8.67 -14.85,-16.63 -37.85,-25.51 -55.14,-21.3 -63.72,6.5 -97.73,7.41zm137.29 -350.04l-27.05 4.71 5.67 17.23c-3.68,1.55 3.8,1.14 -6.59,1.25 -15.84,0.17 -25.67,-14.18 -107.55,-6.02 -4.67,5.96 -7.02,7.66 -15.32,13.55 -23.16,16.44 -22.81,17.41 -42.97,44.87 -68.2,92.89 -50.08,259.55 50.32,333.52 21.86,16.1 44.82,29.65 75.88,39.83 36.19,11.87 137.09,38.75 159,78.08 19.95,-0.03 37.05,5.96 52.98,11.17 -1.93,-33.38 -21.25,-56.86 -31.91,-81.27 10.63,-3.89 26.59,0.39 37.87,3.2l-36.8 -75.85 35.39 5.8c-9.7,-19.25 -17.26,-34.08 -22.61,-56.66 -0.36,-1.54 -2.04,-10.31 -2.04,-11.32 0.07,-15.81 -2.06,-7.39 3.96,-12.22l2.36 2.46 -2.36 -2.46c-8,-18.83 -12.49,-52.96 -8.95,-75.52l-32.09 -68.4c-7.58,-18.09 -25.75,-51.14 -28.29,-69.3 46.64,26.22 97.13,149.82 137.94,200.68 77.43,96.48 121.09,-5.33 157.94,-96.01 75.23,-185.13 -32.08,-138.32 -124.38,-163.57 -51.24,-14.02 -71.09,-38.61 -108.11,-60.54 -54.76,-32.41 -98.82,16.71 -120.21,28.67l-2.08 -5.88z"/>
  <path class="fil1" d="M2686.27 2834.99c-67.69,56.93 -120.08,-45.7 -80.67,-127.8 75.18,-156.6 299.18,-111.08 315.81,21.17 11.37,90.42 -70.84,116.12 -90.99,87.89 -10.94,-15.33 -4.12,-32.97 -25.71,-42.04 8.89,44.62 -1.21,81.64 -49.56,82.18 -48.33,0.54 -55.23,-34.35 -48.52,-76.46 -16.91,3.37 -19.72,33.2 -20.36,55.07zm-737.35 -70.54c-16.87,6.78 -15.3,29.9 -26.06,39.97 -13.89,12.99 -41.65,3.73 -52.94,-4.95 -71.97,-55.35 0.29,-224.39 162.74,-190.9 67.72,13.96 124.21,68.32 131.07,141.73 9.9,105.82 -85.73,110.61 -97.07,77.58 -5.65,-16.47 1.72,-34.69 -16.2,-50.27l-2.1 32.41c-3.96,32.59 -36.69,42.35 -62.63,36.11 -56.48,-13.58 -36.69,-67.34 -36.8,-81.69zm-122.44 -100.37c-4.38,24.04 -33.6,72.65 -4.43,129.98 16.76,32.94 54.69,61.42 103.11,43.43 2.25,2.12 1.7,1.42 4.75,5.19 2.24,2.78 3.76,5.19 5.38,7.32 9.74,12.79 26.82,23.59 44.93,27.25 32.85,6.64 55.57,-4.69 73.37,-16.65 80.73,40.93 77.4,-1.13 105.52,3.17 6.54,1 26.43,9.11 35.75,11.74 51.33,14.47 101.13,27.22 156.29,34.44 60.03,7.85 119.77,11.16 181.31,7.74 37.02,-2.06 134.95,-12.76 162.27,-26.32 -9.01,-9.49 -7.54,-2.99 -12.68,-17.2 40.06,-15.29 16.61,16.87 76.25,14.16 31.95,-1.45 54.95,-17.98 63.66,-36.6 35.96,6.71 39.65,14.76 75.94,-2.6 39,-18.65 14.46,-23.56 51.83,-42.02 9.22,-4.55 18.68,-11.02 27.93,-15.9 27.57,-14.57 60.09,-37.86 84.44,-56.55l100.33 -84.52 88.26 -96.56c108.46,-136.97 191.11,-302.02 219.06,-525.22 -25.24,1.24 -27.64,-0.35 -49.28,-3.54 -18.17,127.91 -46.19,226.81 -98.48,327.43 -35.94,69.15 -77.62,135.43 -128.53,191.07 -14.05,15.35 -39.41,47.4 -53.33,56.84 16.81,-57.08 32.55,-108.14 33.66,-174l-19.88 49.4c-17.96,53.05 -33.46,94.75 -58.48,145.2 -28.54,57.54 -20.86,40.28 -61.27,73.46 -15.6,12.81 -64.68,49.26 -79.66,51.33 -4.52,-81.89 -48.89,-126.81 -112.1,-154.24 -27.44,-11.91 -45.47,-10.15 -73.64,-16.76 -5.11,-58.4 -22.77,-110.56 -43.85,-157.03 -13.6,-29.98 -56.02,-110.47 -75.14,-123.2 0.76,17.02 81.11,167.97 74.25,283.81 -21.75,12.71 -38.06,5.5 -82.11,37.09 -47.84,34.31 -83.02,94.41 -81.76,157.19 0.92,45.96 13.74,61.15 31.31,87.63 -62.19,26.44 -332.7,-3.9 -405.24,-40.8 13.5,-51.31 16.44,-82.57 -6.6,-132.48 -46.91,-101.63 -173.54,-144.63 -274.74,-94.43 -24.06,11.94 -32.11,22.72 -49.07,34.81 -24.36,-17.59 -56.44,-49.24 -75.46,-73.4 -25.06,-31.83 -39.57,-41.29 -67.48,-82.9 -53.15,-79.24 -69.45,-103.55 -110.72,-193.29 -122.83,-267.11 -70.71,-508.14 -74.15,-516.99 -9.13,-10.01 -13.71,-11.09 -21.58,-19.83 -7.84,-8.71 -8.84,-13.73 -20.09,-20.44 -33.35,212.17 -10.97,380.32 64.7,561.63 28.46,68.19 47.1,100.74 83.98,160.26 16.54,26.68 48.8,74.8 68.92,97.15 39.58,43.97 72.26,93.39 122.54,124.74z"/>
  <path class="fil0" d="M3794.3 2780c19.12,-5.44 42.92,5.44 49.81,15.39 9.4,13.57 7.11,33.54 17.09,51.81 23.22,42.54 -13.87,79.05 -52.09,52.1 -27.5,-19.39 -26.56,-7.5 -57.4,-11.66 -18.11,-2.44 -32.02,-18.67 -29.69,-40.05 2.62,-24.06 16.45,-25.44 33.56,-36.54 17.83,-11.56 11.67,-23.35 38.72,-31.05zm104.74 1.13c42.08,-18.52 41.06,48.37 3.54,61.06 -38.88,13.15 -46.09,-42.34 -3.54,-61.06zm-168.67 -55.96c33.21,-9.33 44.87,59.68 16.46,71.52 -22.03,9.19 -33.17,-8.95 -35.85,-27.94 -2.72,-19.25 0.39,-38.25 19.39,-43.59zm140.54 -22.19c18.63,-8.33 31.96,10.84 29.54,30.93 -2.25,18.64 -14.15,37.34 -26.33,42.34 -41.49,17.03 -46.22,-54.05 -3.21,-73.28zm-70.78 -21c33.81,-14.31 42.02,66.59 5.9,76.37 -38.17,10.33 -45.03,-59.81 -5.9,-76.37zm-204.77 290.91l321.36 90.04c-5.89,-10.87 31,-130.67 36.6,-151.6 13.19,-49.26 27.74,-100.37 41,-149.84 12.87,-48.05 40.04,-108.28 16.54,-154.45 -25.42,-49.95 -63.36,-48.96 -124.72,-66.41 -59.13,-16.82 -98.54,-37.27 -150.06,0.3 -33.54,24.46 -41.17,84.72 -55.85,135.34 -10.63,36.65 -75.49,286.57 -84.86,296.62z"/>
  <path class="fil1" d="M2229 2373.69c13.72,-14.37 14.07,-107.72 13.77,-133.19 13.57,4.14 40.37,52.86 124.99,55.75 4.26,57 10.29,121.43 -10.96,171.51 -48.33,113.91 -190.86,101.38 -239.92,15.71 -36.92,-64.47 -21.82,-121.59 -33.94,-158.6 44.94,-19.33 85.21,-28.5 116.57,-79.36l6.5 18.14c3.64,26.13 10.24,94.39 22.99,110.04zm-121.65 -309.31c6.31,-13.56 3.6,-25.55 17.42,-32.25 29.06,-14.1 52.73,21.29 32.38,44.96 -11.59,13.48 -21.7,7.28 -35.26,15.09 -5.9,22.15 46.63,41.11 77.31,46.09 13.05,95.3 -142.28,230.76 -289.61,101.51 -13.86,-12.16 -27.31,-32.14 -34.56,-37.78 -12.21,30.39 37.64,83.13 74.31,104.37 28.16,16.31 40.55,14.21 71.74,22.26 27.67,7.14 28.74,32.78 31.61,63.18 10.17,107.49 68.3,194.32 179.43,195.01 111.21,0.69 173.7,-86.87 176.31,-196.63 0.62,-25.91 -8.09,-69.43 4.72,-88.34 10.67,-15.75 125.5,-34.69 130.8,-154.88 -10.42,7.7 -16.92,26.26 -27.72,41.87 -25.98,37.54 -81.37,72.62 -133.72,73.23 -78.1,0.91 -146.49,-56.17 -148.21,-126.44 19.59,-2.99 32.07,-8.55 47.33,-18.51 33.52,-21.87 25.39,-37.79 23.37,-34.17 -0.07,0.13 -27.44,-4.41 -33.71,-10.72 -20.21,-20.36 -1.56,-60.05 30.1,-48.85 15.5,5.48 9.83,19.65 19.1,30.28 20.05,-0.04 37.26,-28.33 43.18,-48.5 49.3,-168.02 -365.34,-149.37 -306.16,11.28 7.66,20.78 25.43,48.41 49.84,47.94z"/>
  <path class="fil1" d="M2800.64 3328.29c116.69,-19.56 137.13,130.1 85.72,192.22 -29.25,35.35 -86.11,43.1 -86.45,-27.62 -0.25,-52.11 -2.76,-113.46 0.72,-164.61zm-121.94 -112.26c-23.18,-4.47 -21.84,6.76 -36.87,1.85 -10.72,-3.5 -17.87,-16.34 -19.28,-31.98 -6.29,-69.84 96.37,-120.99 181.09,-111.12 62.92,7.33 87.77,45.67 85.34,111.16 -2.05,55.24 -26.71,116.47 -88.69,105.47 -1.31,-36.89 4.82,-157.88 -3.69,-181.19 -20.57,-5.98 -36.43,5.3 -54.35,12.51 -16.64,6.69 -39.89,11.09 -52.77,18.63 -0.78,28.06 15.42,7.67 21.17,39.66 3.15,17.53 1.26,259.68 1.24,296.14 -0.01,18.07 -0.76,37.83 -9.35,50.52 -11,16.26 -34.12,12.89 -25.7,30.62 5.91,6.8 2.58,5.9 15.66,6.44 19.14,0.8 37.31,-9.01 64.78,-2.33 24.83,6.04 39.07,17.49 70.3,20.65 207.4,20.99 222.05,-247.13 70.93,-277.6 0.54,-0.65 1.44,-2.42 1.73,-1.85 0.29,0.56 1.33,-1.43 1.74,-1.78 5.43,-4.77 0.27,-0.78 5.5,-4.52 26.5,-18.95 43.65,-29.86 58.54,-69.6 15.65,-41.78 10.24,-84.19 -8.96,-118.48 -32.92,-58.79 -124.58,-82.51 -216.42,-69.11 -81.18,11.84 -146.39,52.9 -160.98,126.64 -8.71,44.04 8.25,85.51 35.32,103 39.96,25.82 92.88,-7.73 63.72,-53.73z"/>
  <path class="fil1" d="M1757.08 1255.71c14.61,-5.29 30.88,-18.05 51.34,-25.24 58.21,-20.45 10.04,19.68 100.69,-55.97 14.43,-12.04 30.4,-21.68 47.15,-34.41 53.9,-40.95 136.41,-80.71 208.69,-107.78 282.7,-105.88 627.93,-64.23 872.44,117.29 73.04,54.22 104.43,87.87 162.66,153.64 41.08,46.41 95.65,136.13 122.69,193.77 6.74,14.36 12.95,43.94 28.21,49.78 13.49,5.16 15.85,3.72 29.48,11.44 10.96,6.21 16.05,10.69 25.92,15.05 -21.34,-80.12 -92.12,-203.93 -142,-268.54 -12.09,-15.65 -23.77,-32.44 -35.95,-45.55l-39.12 -42.24c-13.7,-13.78 -26.94,-29.14 -41.72,-42.82 -261.56,-242.22 -671.98,-318.08 -1002.01,-189.48 -77.07,30.03 -175.79,77.54 -239.95,129.78 -41.77,34 -122.39,96.37 -148.5,141.27z"/>
  <path class="fil0" d="M2229 2373.69c-12.75,-15.65 -19.35,-83.91 -22.99,-110.04l-6.5 -18.14c-31.35,50.87 -71.63,60.04 -116.57,79.36 12.12,37.01 -2.98,94.13 33.94,158.6 49.06,85.67 191.59,98.2 239.92,-15.71 21.25,-50.08 15.22,-114.51 10.96,-171.51 -84.61,-2.89 -111.41,-51.61 -124.99,-55.75 0.31,25.47 -0.05,118.81 -13.77,133.19z"/>
  <path class="fil2" d="M3330.54 1772.17c24.69,57.19 51.44,150.55 90.41,187.3 42.07,39.7 79.21,-11.15 102.36,-41.68 26.06,-34.35 79.64,-128.98 70.1,-168.71 -12.91,-53.75 -101.07,-10.85 -181.38,-93.99 -18.79,-19.45 -43.4,-48.09 -80.09,-57.3 -1.35,12.71 -7.52,25.76 -9.98,40.69 -2.56,15.51 -2.35,31.25 -2.14,46.99 0.43,31.55 9.82,61.41 10.72,86.7z"/>
  <path class="fil1" d="M3399.04 3474c-10.67,77.99 -51.51,63.65 -53.06,12.64 -1.43,-46.87 -0.21,-97.09 0.1,-144.24 0.41,-61.54 43.7,-70.44 52.34,-6.43 5.41,40 6.1,97.96 0.62,138.02zm-146.44 -322.64c9.88,34.5 17.44,-25.81 17.6,90.84 0.09,61.84 -4.23,292.13 1.5,319.89 20.37,4.53 30.58,-15.05 38.6,-27.28 18.76,6.76 58.33,61.39 122.43,12.15 27.79,-21.34 43.02,-70.59 47.03,-117.66 4.81,-56.57 -4.91,-160.23 -67.56,-176.87 -12.57,-3.34 -26.34,-3.64 -38.19,0.91 -5.54,2.13 -9.06,5.24 -13.15,8.52 -8.4,6.73 -4.85,5.26 -14.7,9.9 0.73,-146.75 16.31,-169.09 -46.97,-143.43 -15.48,6.28 -39.02,9.76 -46.58,23.03z"/>
  <path class="fil1" d="M3635.55 3467.74c-2.23,18.54 -6.9,46.17 -17.59,54.67 -53.5,42.52 -36.2,-138.96 -36.17,-173.71 0.09,-75.81 42.44,-67.41 51.3,-20.28 7.39,39.25 7.14,100.39 2.45,139.33zm-147.92 -321.09c3.2,44.01 18.36,-30.48 18.26,89.29 -0.04,45.81 -2.3,302.87 0.98,325.85 22.05,4.06 33,-14.33 39.46,-26.37 16.64,4.41 58.87,61.05 121.67,11.86 11.01,-8.63 26.14,-32.08 33.19,-51.27 22.13,-60.18 21.24,-164.53 -11.51,-210.96 -29.49,-41.81 -67.72,-48.55 -107.23,-12.28 -10.14,-112.7 29.37,-174.56 -46.21,-145.41 -14.86,5.73 -38.92,11.97 -48.61,19.3z"/>
  <path class="fil1" d="M2817.89 2256.61c69.72,0.41 53.09,-10.15 84.12,-17.37 -6.38,25.94 -13.83,54.65 -14.11,84.11 14.1,-6.98 34.96,-60.01 46.73,-75.74 27.18,46.65 16.09,30.06 61.51,64.28 -3.2,10.63 -12.09,33.65 -17.49,48.13 -36.33,97.4 -166.01,90.2 -180.44,0.74 -5.09,-31.57 8.07,-76.51 19.68,-104.15zm57.33 -156.45c25.48,-5.71 4.15,-27.26 41.07,-17.94 17.15,29.63 1.05,37.8 -29.59,38.17 1.59,23.92 19.19,37.88 38.61,43.23 -14.19,69.75 -142.73,102.12 -190.45,-3.49l-9.05 -25.22c-4.16,-8.5 -0.36,-2.87 -5.38,-7.7 -4.79,29.68 1.91,57.25 15.41,78.83 21.18,33.86 45.87,35.9 50.07,46.33 8.26,20.47 -45.8,93.37 6.26,163.48 25.66,34.56 92.35,57.74 147.35,30.2 71.16,-35.64 65.05,-104.54 85.06,-118.69 7.55,-5.33 57.95,-3.42 84.03,-16.15 17.12,-8.36 45.69,-32.47 48.26,-55.13 -7.37,3.85 -18.81,12.22 -26.73,17.17 -10.78,6.75 -17.48,10.59 -31.29,15.57 -63.98,23.03 -153.46,-6.42 -147.23,-116.14 25.76,0.95 57,-0.43 63.11,-21.56 -19.3,-9.62 -31.36,-8.08 -22.33,-37.9 7.17,-3.46 15.72,-8.37 25.89,-1.92 6.7,4.26 6.8,10.19 10.17,18.67l2.43 5.57c29.56,-4.31 50.67,-44.76 31.65,-77.81 -42.12,-73.21 -256.97,-82.91 -187.33,42.43z"/>
  <path class="fil1" d="M3152.04 3526.94c6.39,7.8 6.57,19.88 14,28.06 15.31,16.85 43.68,8.29 62.39,-2.58 14.71,-8.55 19.19,-7.3 19.09,-26.39 -13.13,-3.94 -17.49,0.81 -21.42,-15.26 -2.32,-9.48 -1.67,-26.57 -1.65,-36.77 0.09,-40.02 7.05,-208.6 -6.64,-218.05 -18.83,-5.22 -70.31,14.87 -84.11,22.19 0.73,21.8 5.47,9.96 13.24,23.39 6.48,11.19 3.39,93.9 3.37,109.81 -0.07,46.34 12.72,113.09 -42.95,101.73 -16.06,-31.99 -8.11,-154.45 -8.02,-201.96 0.07,-40.96 6.49,-71.37 -43.6,-50.3 -11.17,4.7 -28.57,9.72 -38.93,14.63 -25.3,11.98 1.08,19.98 5.57,31.37 20.68,52.38 -38.22,249.8 61.89,257.94 37,3.01 55.81,-19.54 67.76,-37.8z"/>
  <path class="fil1" d="M4117.83 3541.61c48.65,1.46 37.53,-67.69 -6.67,-72.58 -43.56,-4.82 -68.95,28.85 -71.15,71.07 -4.67,89.55 104.73,131.11 171.24,80.54 81.44,-61.91 53.07,-186.24 -27.61,-240.55 -103.12,-69.41 -52.91,-125.27 -14.97,-104.19 26.15,14.54 -11.08,28.26 7.19,52.25 12.38,16.26 37.92,12.17 49.06,-0.73 16.7,-19.33 13.12,-68.78 -43.24,-83.26 -90.51,-23.25 -158.73,61.96 -96.9,143.77 29.74,39.35 135.02,88.08 101.94,177.19 -12.78,34.44 -55.43,61.47 -90.78,27.83 -32.11,-30.56 -16.82,-68.39 3.01,-68.02 13.04,0.24 11.17,8.16 18.87,16.67z"/>
  <path class="fil1" d="M1844.92 1494.1c-121.93,-7.52 -140.8,142.8 -206.18,205.6 -87.36,83.92 -166.61,-124.32 -186.11,-183.62 -21.86,-66.5 -19.07,-121.24 58.91,-125.51 87.85,-4.81 157.56,15.81 247.58,-59.08 67.61,-56.25 100.21,-66.39 179.52,-16.59 11.56,7.26 20.1,16.76 30.01,22.14 1.65,-30.08 -27.91,-59.44 -44.38,-70.41 -98.56,-65.66 -181.97,44.21 -238.59,69.84 -79.86,36.15 -138.22,5.13 -208.02,23.46 -108.89,28.59 -64.76,163.12 -28.35,240.83 29.37,62.69 90.9,191.32 181.65,147.56 91.12,-43.94 94.59,-180.26 195.46,-239.84 10.52,-6.22 13.69,-5.14 18.49,-14.37z"/>
  <path class="fil1" d="M3331.94 1597.79c36.69,9.21 61.3,37.85 80.09,57.3 80.31,83.15 168.47,40.24 181.38,93.99 9.54,39.73 -44.04,134.35 -70.1,168.71 -23.15,30.52 -60.29,81.37 -102.36,41.68 -38.96,-36.75 -65.71,-130.11 -90.41,-187.3 -10.33,-16 -24.11,-43.82 -38.06,-47.71 2.63,16.69 14.83,48.29 20.88,66.99 19.75,61 42.85,151.8 86.7,191.94 82.61,75.6 165.54,-65.84 196.11,-130.41 19.64,-41.48 47.91,-102.67 10.02,-141.46 -31.36,-32.12 -72.71,-16.34 -135.4,-49.5 -36.53,-19.32 -56.99,-57.67 -102.17,-82.51 -72.57,-39.9 -120.02,16.48 -134.57,24.38 -42.94,-58.28 -110.87,-20.02 -154.39,-86.31 -2.78,-4.23 -3.42,-5.13 -6.13,-9.46 -1.19,-1.91 -2.31,-3.92 -3.74,-6.07 -2.64,-3.95 -2.44,-3.79 -4.45,-6.13 -3.34,3.13 -1.66,0.84 -4.95,5.71 -0.3,0.44 -3.58,6.24 -3.6,6.28 -6.75,14.22 -7.63,31.8 -8.69,47.53l-47.32 -49.71c-8.88,-7.24 -1.44,-2.83 -11.87,-7.1l8.37 41.01c-26.38,-9.51 -39.36,-21.84 -72.83,-21.76 -25.11,0.05 -61.21,11.79 -63.87,27.59 25.92,-3.4 41.99,-9.69 71.68,-3.36 23.04,4.91 45.52,12.95 57.97,26.89 20.22,-6.67 -18.04,8.37 6.24,-3.19 2.7,-1.28 1.48,-1.59 8.23,-3.65l12.51 9.56 -2.78 -25.64 31.31 24.6c11.7,6.22 7.87,9.58 16.69,-38.4 18.94,25.22 18.89,46.53 83.02,59.81 70.78,14.66 59.13,23.07 95.31,49.17 6.89,-9.26 1.06,-3.49 4.8,-10.89 12.98,-25.64 59.19,-35.08 86.37,-32.61z"/>
  <path class="fil0" d="M3126.19 1928.15c-1.15,-41.1 95.8,-60.78 104.73,5.26 2.71,20.07 -2.13,40.72 -15.21,47.84 -11.13,-4.61 -3.58,0.46 -9.96,-10.17 -8.98,-15 -6.78,-19.75 -23.33,-29.94 -15.81,-9.74 -33.88,-12.7 -56.23,-12.99zm33.17 -134.5c-103.49,24.4 -111.82,169.22 -14.92,226.32 13.64,8.04 27.24,14.82 39.17,23.32 8.87,6.32 29.15,27.52 33.63,28.91 29.13,8.99 53.54,-33.8 62.63,-56.59 46.36,-116.07 -26.41,-244.14 -120.52,-221.95z"/>
  <path class="fil1" d="M3916.34 3399.3c-0.4,-29.47 2.03,-58.94 9.67,-85.99 5.54,-19.64 27.4,-53.77 45.72,-28.36 8.72,12.1 26.07,102.54 -55.38,114.35zm116.91 73.3c-22.78,1.93 -5.22,8.09 -31.34,29.58 -45.63,37.53 -91.64,-24.63 -82.9,-76.47 43.07,-2.8 79.06,-10.73 100.31,-34.55 53.58,-60.06 3.22,-166.99 -90.31,-140.22 -106.96,30.61 -106.44,222.37 -46.33,285.92 76.94,81.34 177.03,-29.1 150.58,-64.26z"/>
  <path class="fil1" d="M1658.08 1805.93l52.94 -6.63c-12.39,23.18 -40.03,73.76 -39.6,104.8l54.47 -16.96c-9.03,30.27 -16.88,48.35 -14.44,83.46 1.33,19.17 6.7,24.78 9.38,38.69 2.58,13.39 -5.87,21.27 -11.57,33.57 -19.54,42.19 -28.33,92.54 -21.83,139.83 0.15,1.06 1.9,10.04 2.02,10.41l3.07 7.07c0.25,0.54 0.75,1.55 1.25,2.24 4.35,-0.94 31.48,-50.7 53.86,-60.25 -11.55,55 -18.31,89.65 16.63,145.62 7.24,11.59 3.45,10.56 15.3,15.43 5.7,-17.63 12.57,-34.45 21.38,-49.68 13.44,23.57 30.8,52.37 67.47,49.9 -4.72,-9.96 -9.09,-11.48 -16.81,-21.33 -30.96,-39.47 -25.41,-78.21 -33.75,-85.7 -9.45,-4.54 -33.26,30.12 -38.89,44.31l-7.77 -19.35c-3.24,-22.45 -1.14,-47.02 4.21,-68.54 11.1,-44.69 26.66,-58.07 29.88,-71.93 -15.45,1.07 -34.18,9.08 -47.62,16.48 -16.37,9.01 -26.07,22.92 -38.99,30.04 6.2,-57.22 36.81,-117.21 76.25,-152.55l31.72 -24.41c13.59,-9.24 6.06,-0.41 12.02,-12.47 -65.35,-0.81 -76.49,24.58 -95.2,33.06 -1.81,-28.22 1.17,-47.69 10.15,-71.82 5.8,-15.58 25.18,-46.56 25.86,-52.48 -21.1,-1.92 -44.89,10.27 -63.56,13.45 13.5,-40.35 42.85,-84.29 48.69,-102.29l-45.29 10.74c4.02,-12.35 12.04,-26.06 17.17,-40.05l9.17 -34.48c-0.15,-14.97 1.46,-5.98 -3.82,-12.77l-40.72 61.93c-7.41,9.75 -13.84,20.11 -20.35,29.83 -7.53,11.28 -18.86,20.22 -22.68,32.81z"/>
  <path class="fil1" d="M3723.42 3147.6c1.52,24.62 16.09,8.27 18.88,38.08l-1.42 337.5c-6.21,28.25 -25.44,14.14 -16.53,37.52 14.57,5.18 99.74,6.13 112.21,-1.3 10.49,-21.06 -17.12,-9.13 -18.91,-47.83l0.13 -219.24c-0.01,-48.93 0.8,-98.63 0.16,-147.44 -0.44,-33.6 -16.5,-30.16 -42.19,-19.21 -16.03,6.83 -42.17,12.69 -52.33,21.93z"/>
  <path class="fil1" d="M2457.96 1297.4l2.08 5.88c21.39,-11.96 65.45,-61.08 120.21,-28.67 37.03,21.92 56.88,46.52 108.11,60.54 92.3,25.25 199.61,-21.56 124.38,163.57 -36.85,90.69 -80.51,192.5 -157.94,96.01 -40.81,-50.86 -91.3,-174.46 -137.94,-200.68 2.54,18.16 20.71,51.22 28.29,69.3l32.09 68.4c24.31,32.85 16.14,39.24 66.17,99.48 23.18,27.91 71.53,54.05 114.22,19.03 31.24,-25.63 47.05,-55.19 67.67,-98.4 30.8,-64.57 88.17,-206.43 -15.3,-231.34 -51.31,-12.35 -86.7,-1.41 -140.27,-25.58 -36.86,-16.63 -67.02,-52.43 -106.22,-59.85 -53.72,-10.17 -97.2,20.22 -105.54,62.31z"/>
  <path class="fil1" d="M2549.34 1824.42c-6.73,0.07 -10.63,0.04 -17.11,1.27l-15.73 6.94c17.13,8.48 37.43,11.31 56.92,22.07 48.26,26.63 96.29,77.43 107.2,137.79 -29.33,-12.85 -46.7,-27.36 -88.87,-24.71 7.86,27.65 58.33,42.44 56.63,169.08 -14.07,-7 -23.67,-30.11 -52.19,-37.66 7.09,102.04 -24.49,107.49 -25.16,133.12 44.65,-17.38 45.22,-46.74 55.78,-73.3 13.81,13.53 16.24,29.55 28.19,43.68 9.31,-7.89 14.61,-27.56 18.22,-41.88 4.06,-16.06 6.09,-35.3 5.89,-52.61 -0.51,-42.37 -11.37,-61.2 -23.57,-94.18 41.27,12.75 52.82,46.41 58.09,39.73 18.28,-23.16 -11.83,-124.11 -54.5,-168.85 -43.5,-45.62 -17.44,-20.94 -29.04,-64.65 -3,-11.28 -9.03,-23.04 -11.68,-33.59l37.26 12.57c-3.78,-32.58 -25.27,-57.86 -34.97,-82.8l39.71 2.86c-0.78,-8.68 -60.04,-85.46 -71.88,-109.55l-2.36 -2.46c-6.02,4.83 -3.9,-3.59 -3.96,12.22 -0,1.01 1.67,9.78 2.04,11.32 5.35,22.58 12.9,37.41 22.61,56.66l-35.39 -5.8 36.8 75.85c-11.28,-2.81 -27.24,-7.09 -37.87,-3.2 10.67,24.41 29.98,47.89 31.91,81.27 -15.93,-5.21 -33.03,-11.19 -52.98,-11.17z"/>
  <path class="fil1" d="M3595.35 2972.89c9.37,-10.05 74.23,-259.96 84.86,-296.62 14.69,-50.62 22.31,-110.88 55.85,-135.34 51.52,-37.57 90.93,-17.12 150.06,-0.3 61.35,17.45 99.3,16.46 124.72,66.41 23.5,46.17 -3.66,106.4 -16.54,154.45 -13.26,49.47 -27.81,100.58 -41,149.84 -5.6,20.93 -42.5,140.73 -36.6,151.6 18.16,2.27 15.8,-15.11 28.02,-59.96 15.19,-55.74 91.86,-323.36 91.98,-349.66 0.25,-52.89 -34.51,-95.71 -73.73,-106.19 3.65,-22.52 17.76,-50.91 13.24,-72.01 -11.89,-8.51 -111.92,-38.45 -130.92,-34.38 -13.43,12.24 -19.64,44.52 -23.95,66.2 -124.3,-20.12 -137.81,94.92 -161.45,183.67 -11.41,42.81 -74.48,258.38 -75.78,280.73l11.22 1.56z"/>
  <path class="fil1" d="M2473.32 3427.65c9.11,8.28 18.45,28.89 27.5,40.77 11.54,15.14 20.31,26.82 29,43.18 -68.41,52.71 -102.18,-51.77 -56.51,-83.94zm26.22 -45.94c-7,-10.69 -15.63,-26.08 -16.31,-42.78 -0.65,-15.95 7.72,-32.53 22.83,-28.88 15.7,3.79 34.28,36.33 -6.52,71.66zm-39.08 23.67c-21.11,11.98 -35.89,23.11 -46.57,46.89 -30.34,67.54 33.61,138.31 104.48,101.2 18.5,-9.69 12.12,-15.99 31.39,-21.35 29.44,56.41 77.44,21.69 76.31,-7.41 -21.94,-4.87 -22.83,3.39 -50.46,-31.91 2.5,-12.03 19.47,-63.6 30.56,-71.05 7.07,-4.75 18,-6.09 9.78,-14.67 -4.74,-5.16 5.93,-2.28 -10.98,-4.4l-50.56 1.49c-0.26,30.06 27.21,1.99 12.26,50.13l-9.51 16.62c-10.02,-17.57 -38.91,-51.79 -44.36,-70.63 18.87,-8.63 43.09,-27.63 45.18,-58.03 2.11,-30.68 -19.5,-52.93 -47.44,-55.61 -33.37,-3.2 -56.52,13.9 -64.16,38.36 -11.26,36.07 5.96,53.74 14.07,80.37z"/>
  <path class="fil0" d="M2817.89 2256.61c-11.61,27.64 -24.78,72.57 -19.68,104.15 14.43,89.47 144.11,96.66 180.44,-0.74 5.41,-14.49 14.29,-37.51 17.49,-48.13 -45.42,-34.22 -34.33,-17.63 -61.51,-64.28 -11.78,15.73 -32.63,68.76 -46.73,75.74 0.29,-29.46 7.74,-58.17 14.11,-84.11 -31.03,7.22 -14.4,17.78 -84.12,17.37z"/>
  <path class="fil1" d="M991.1 2798.84c87.28,-15.55 107.86,119.32 24.8,135.46 -92.5,17.97 -111.48,-120.02 -24.8,-135.46zm73.87 -19.15c-53.23,-33.71 -114.45,-18.78 -144.53,21.72 -37.5,50.49 -21.39,117.21 16.6,147.82 71,57.22 175.97,1.79 167.93,-92.42 -3.09,-36.14 -18.81,-21.26 21.35,-67.91 -4.92,-13.02 -20.3,-31.02 -31.24,-35.83l-30.1 26.61z"/>
  <path class="fil1" d="M1381.31 2791.93c88.87,-23.47 120.04,112.13 32.61,133.01 -85.62,20.44 -117.24,-110.66 -32.61,-133.01zm-108.84 -13.32l31.19 37.19c-37.36,140.22 113.52,190.42 175.46,108.74 51.92,-68.47 11.72,-161.61 -65.22,-170.76 -42.2,-5.02 -49.76,7.03 -77.64,17.7l-34.9 -28.17c-12.59,12.21 -18.58,22.94 -28.89,35.29z"/>
  <path class="fil1" d="M1137.75 2654.77c9.65,-7.7 18.65,-32.44 25.07,-46.51 11.75,-25.75 10.89,-21.18 -3.28,-44.55 -20.84,-34.37 -147.31,-245.19 -152.99,-264.88 19.02,13.52 155.9,262.48 169.96,276.42 9.36,-12.55 -4.44,-25.71 -13.34,-40.25l-153.62 -253.53c-22.17,-37.17 -18.31,-36.12 -34.36,-36.09 -3.91,46.52 153.15,370.43 162.56,409.39z"/>
  <path class="fil1" d="M3336.28 2022.35l-29.75 -6.84c2.81,23.33 9.35,41.39 12.22,68.09 -12.45,-3.13 -18.98,-9.55 -34.84,-13.02 2.96,32.92 6.52,45.64 -4.73,75.5 -16.88,-11.21 -25.3,-31.02 -53.96,-32.43 6.1,17.09 21.64,19.41 36.71,64.41 7.73,23.08 14.12,67.28 0.77,89.18 -16.23,-19.34 -10.08,-30.54 -37.72,-46.06 -1.33,30.36 -3.04,51.94 -16.57,73.8 -4.02,-9.71 -0.6,-11.97 -9.76,-18.59 -2.74,14.89 -8.56,23.75 -17.04,35.84 -5.28,7.52 -22.46,25.81 -23.67,29.24 59.8,4.72 77.9,-52.55 85.72,-60.88l9.04 54.6c22.86,-10.24 41.72,-65.01 43.78,-101.59 1.22,-21.81 -10.42,-48.26 -2.31,-65.5 12.43,-26.41 14.11,-30.15 13.96,-64.82 12.67,5.02 15.11,11.44 31.21,16.38 1.91,-29.38 3.65,-49.42 -5.81,-75.81l32.17 9.26c-5.09,-26.22 -15.64,-49.08 -25.01,-72.8 -4.66,-11.79 -5.05,-16.79 -12.28,-22.18 -1.9,21.32 1.66,46.35 7.87,64.22z"/>
  <path class="fil1" d="M1236.03 2642.54l54.12 -154.49c7.98,-24.67 49.93,-143.19 36.72,-160.02 -14.52,2.28 -13.41,10.31 -27.83,34.29 -16.04,26.65 -107.59,193.76 -107.78,203.68 -0.1,5.5 38.18,69.7 44.76,76.55z"/>
  <path class="fil1" d="M1337.62 3802.42c-25.68,6 -25.37,12.32 -38.21,32.52 -12.3,19.34 -27.86,11.36 -31.31,40.65 -7.73,65.58 65.02,23.4 91.76,29.08 20.38,4.33 36.24,18.17 56.31,3.19 35.5,-26.49 -10.48,-62.03 -15.81,-68.84 -9.51,-12.17 -22.17,-46.07 -62.72,-36.59z"/>
  <path class="fil1" d="M3816.22 2338.49c-2.83,13.54 -1.1,22.53 4.96,31.78l76.63 4.15c1.99,17.99 -8.73,42.32 -13.13,58.51 11.77,7.71 44.67,14.71 62.06,17.87l14.84 -56.71c36.13,11.64 50.02,38.5 66.4,18.84 17.46,-20.95 -24.18,-43.8 -40.16,-52.52 -41.72,-22.77 -120,-45.26 -171.59,-21.92z"/>
  <path class="fil1" d="M3624.28 3802.35c-26.79,6.06 -25.95,11.45 -38.64,32.3 -11.88,19.51 -27.14,14.19 -31.14,40.91 -9.73,65.05 67.38,25.04 89.3,28.7 19.17,3.2 35.59,18.77 56.06,3.91 13.24,-9.62 17.86,-32.98 4.56,-48.82 -15.1,-17.97 -6.5,-0.36 -33.48,-38.61 -9.5,-13.47 -25.61,-23.13 -46.64,-18.37z"/>
  <path class="fil1" d="M3322.69 2724.52c73.88,-15.54 137.15,37.92 148.79,95.85 15.15,75.38 -39.05,135.63 -96.07,148.92 -75.79,17.67 -134.2,-38.16 -148.7,-94.94 -19.52,-76.37 37.91,-137.62 95.99,-149.83zm4.74 -14.39c-194.48,41.64 -126.49,305.72 46.56,273.68 67.89,-12.57 127.64,-79.61 111.98,-163.24 -11.65,-62.22 -80.07,-127.23 -158.54,-110.43z"/>
  <path class="fil1" d="M3589.63 2152.13c-9.35,-70.43 40.81,-123.96 98.94,-132.29 67.85,-9.73 125.2,44.08 131.89,101.1 7.91,67.5 -43.56,124.34 -101.05,130.46 -69.08,7.36 -122.07,-41.24 -129.78,-99.28zm88.13 -144.05c-174.16,41.81 -111.89,291.8 55.17,256.89 61.88,-12.94 118.56,-77.28 100.03,-157.02 -13.83,-59.52 -78.83,-118.2 -155.2,-99.87z"/>
  <path class="fil1" d="M1174.8 2678.37c-5.35,-32.56 37.31,-33.9 41.11,-8.42 4.02,26.95 -36.78,34.76 -41.11,8.42zm92.56 88.54c7.05,-4.75 7.25,-5.8 13.14,-12.92 4.13,-5 7.4,-8.49 10.31,-12.97 -4.6,-6.02 -5.85,-10.2 -11.49,-18.2l-93.41 -142.54c-11.23,16.57 -18.48,37.96 -27.46,58.08 -13.19,29.55 -15.31,29.73 -0.1,61.3 11.41,23.68 54.91,32.79 83.09,48.51 10.63,5.93 16.19,12.64 25.91,18.74z"/>
  <path class="fil1" d="M2025.85 1691.5c-5.71,6.21 -5.44,15.8 -13.78,21.37 -24.17,16.15 -49.74,-20.19 -22.96,-38.64l11.57 -8.03c-80,-29.36 -113.01,61.47 -68.85,103.37 20.25,19.22 56.2,23.8 79.83,2.33 26.33,-23.93 26.44,-42.87 14.19,-80.4z"/>
  <g id="_824307528">
   <path class="fil0" d="M1257.95 3085.61c-139.88,-0.32 -400.86,-116.11 -490.89,19.65 -85.71,129.24 49.12,253.96 166.26,204.19 76.22,-32.39 51.88,-134.33 -9.8,-116.87 -2.33,6.76 0.15,16.6 0.19,21.52 0.32,43.46 -88.69,54.45 -110.88,-8.95 -23.28,-66.51 45.34,-104.8 106.83,-104.81 58.68,-0.02 92.3,14.2 144.35,23.01l0.45 347.52c0.25,83.43 -36.15,57.61 -42.18,84.57 9.96,12.65 16.13,8.13 35.2,8.13l148.55 -0.19c25.67,-33.21 -34.83,-1.38 -34.8,-86.24l-0.34 -329.1c47.48,2.43 161.37,30.94 209.69,-43.36 11.6,-17.84 22.76,-50.09 12.72,-72.5 -30.9,-0.95 -26.81,53.69 -135.35,53.43z"/>
   <path class="fil0" d="M1697.94 3560.13c11.91,6.02 119.59,5.91 131.63,-0.04 7.64,-23.75 -19.98,-11.01 -21.37,-54.61 -0.82,-25.62 -0.01,-52.69 -0.01,-78.47 0,-40.07 -12.54,-124.31 30,-130.74 41.68,-6.29 29.72,71.81 29.94,124.47 0.11,26.16 0,52.28 0.16,78.45 0.3,47.98 -20.37,32.86 -23.02,56.24 10.88,13.27 37.89,7.75 61.09,7.9 18.54,0.12 57.77,3.23 70.14,-3.58 6.49,-20.87 -10.53,-11.31 -18.44,-33.98 -5.58,-16 -2.87,-145.18 -2.92,-167.69 -0.04,-18.08 -0.82,-37.13 8.49,-49.37 6.23,-8.19 24.04,-17.14 38.25,-8.57 50.72,30.63 -55.42,295.9 99.21,352.02 23.2,8.42 84.94,16.97 89.77,-11.93 -27.04,-10.96 -75.48,3 -91.32,-80.02 -19.05,-99.82 36.56,-268.89 -30.57,-311.53 -33.96,-21.57 -86.52,-3.65 -108.59,25.28 -2.71,3.55 -1.48,2.55 -4.15,5.62l-7.83 7.53c-12.29,-45.22 -72.83,-74.68 -130.21,-14.11l-10.41 8.98c0.21,-22.65 2.95,-43.89 -23.15,-42.93 -11.54,0.43 -37.23,12.93 -48.93,17.37 -13.04,4.96 -42.63,10.52 -38.56,25.3 4.08,14.83 22.63,2.59 23.49,41.74l-1.18 195.84c-5.81,30.07 -28.53,17.04 -21.52,40.81z"/>
   <path class="fil0" d="M2210.78 3228.74c-86,21.8 -96.08,114.11 -20.96,171.73 29.68,22.76 55.56,39.13 75.24,68.65 35.85,53.75 -6.74,135.84 -68.46,109.09 -31.42,-13.62 -40.45,-53.52 -20.26,-66.29 16.02,-10.13 16.95,1.9 24.33,6.43 20.26,12.45 33.31,-15.64 27.17,-36.69 -11.49,-39.33 -73.54,-33.13 -89.76,-4.63 -45.53,79.96 29.11,159.72 122.9,138.74 88.68,-19.83 115.65,-110.52 79.43,-181.18 -37.52,-73.18 -146.82,-94.55 -127.76,-155.63 4.94,-15.85 26.95,-27.12 46.79,-16.85 25.7,13.3 -10.22,27.24 8.3,50.94 25.07,32.07 81.13,-4.51 53.8,-53.67 -15.54,-27.94 -66.58,-41.84 -110.75,-30.65z"/>
   <path class="fil0" d="M1273.61 3272.56c-0.48,34.33 26.98,-1.84 26.76,60.45 -0.11,28.21 -0.2,56.39 -0.2,84.61 -0,28.04 5.54,100.3 -8.98,117.88 -9.42,11.4 -21.73,4.92 -16.03,24.66 12.61,6.44 91.76,3.44 117.71,3.5 16.99,0.04 22.22,2.21 26.27,-11.35 -9.89,-20.69 -28.4,-2.71 -28.99,-56.25 -0.4,-36.34 -4.09,-146.61 6.46,-174.98 11.86,-31.9 40.2,-46.24 48.85,-27.19 0.05,0.11 -32.6,54.99 19.52,61.09 34.89,4.08 54.44,-27.65 51.22,-62.78 -2.88,-31.49 -27.44,-54.54 -60.91,-53.7 -46.59,1.17 -57.92,38.22 -68.16,47.21l-1.24 -42.24c-24.61,-10.49 -36.77,-0.63 -58.87,8.36 -16.46,6.7 -40.85,12.2 -53.4,20.74z"/>
   <path class="fil0" d="M1535.43 3271.29c0.81,39.67 25.83,-5.33 25.91,61.65l-0.04 169.45c-1.09,39.13 -44.78,50.8 -19.4,59.69l120.1 1.5c39.39,-3.44 -2.78,-24.75 -7.66,-38.14 -6.63,-18.18 -3.17,-160.55 -3.13,-186.12 0.11,-62.15 9.89,-103.26 -23.11,-100.04 -6.46,0.63 -88.11,29.63 -92.67,32.02z"/>
   <path class="fil0" d="M1589.15 3087.06c-25.96,8.84 -48.09,39.02 -35.82,75.53 8.02,23.85 40.73,45.44 74.2,32.71 65.2,-24.79 34.35,-133.01 -38.38,-108.24z"/>
  </g>
  <path class="fil1" d="M2696.24 1757.23c8.33,17.94 15.7,27.71 35.03,36.18 -13.12,16.77 -33.61,27.93 -42.51,49.58l28.59 6.33c-26.2,33.74 -23.72,33.89 -12.72,54.78 10.13,-9.37 13.39,-28.72 31.46,-46.72 6.08,-6.05 9.85,-7.47 13.57,-15.36l-28.4 -9.1c11.01,-18.83 39.59,-29.81 46.09,-43.93l-38.16 -22.92c35.94,-7.23 68.05,-40.14 85.75,-61.66 21.74,-26.43 18.5,-30.82 49.57,-63.18 14.31,-14.91 13.68,-10.9 16.44,-21.32 -78.61,13.09 -69.43,93.46 -184.72,137.32z"/>
  <path class="fil1" d="M2008.07 1336.51c8.01,-1.71 21.37,-9.11 31.56,-12.56 13.52,-4.57 25.65,-7.36 41.45,-9.2 31.94,-3.73 57.3,-2.06 86.92,-12.72 46.74,-16.83 87.59,-54.67 87.35,-114.98l-12.57 11.14c-77.3,97.26 -125.95,64.35 -186.68,88.89 -21.64,8.74 -45.26,26.19 -48.04,49.42z"/>
  <path class="fil1" d="M2322.43 1314.56c81.89,-8.16 91.71,6.19 107.55,6.02 10.4,-0.11 2.92,0.3 6.59,-1.25l-5.67 -17.23c-22.72,-14.97 -45.84,-21.62 -82.36,-18.56 9.19,-16.31 25.75,-18.13 29.87,-33.56 -16.35,-7.19 -51.11,4.7 -66.84,8.11l17.7 -41.81c-27.21,3.9 -89.31,66.64 -92.82,88.85 21.09,-1.5 63.79,-24.19 90.83,-30.75 -8.64,17.05 -26.08,22.89 -35.5,45.21l30.64 -5.04z"/>
  <path class="fil1" d="M1158.74 2067.18c112.11,-23.74 146.16,145.35 37.52,170.4 -115.06,26.53 -152.22,-146.11 -37.52,-170.4zm1.6 -13.7c-134.99,23.43 -96.93,222.85 34.4,197.93 46.67,-8.85 90.43,-56.84 80.34,-116.59 -7.94,-47.05 -57.51,-91.27 -114.74,-81.34z"/>
  <path class="fil1" d="M3453.33 2420c111.95,-27.46 149.11,142.85 40.01,169.63 -112.78,27.69 -152.63,-142.01 -40.01,-169.63zm-1.97 -11.81c-132.25,33.03 -82.83,227.19 45.17,193.93 127.85,-33.21 79.53,-225.08 -45.17,-193.93z"/>
  <path class="fil1" d="M1383.09 2490.43c27.3,12.32 42.6,-0.39 66.66,24.43 17.76,18.31 10.68,46.62 21.21,69.88l5.24 -17.29c9.14,-81.24 46.43,-63.24 81.56,-77.02l-15.68 -5.19c-77.74,-14.47 -57.68,-55.45 -67.84,-87.96 -0.25,-0.79 -0.68,-1.68 -0.94,-2.36l-2.35 -4.3c-13.45,29.48 3.94,72.57 -50.48,90.05l-37.39 9.76z"/>
  <path class="fil1" d="M1161.66 1807.57c5.18,8.05 42.29,3.91 63.34,26.68 22.71,24.57 13.02,56.79 22.96,70.91 -4.97,-4.61 1.18,1.71 3.57,-19.06 10.47,-90.65 52.57,-56.45 80.7,-78.38 -24.69,-8.93 -50.33,-6.01 -64.83,-25.18 -17.62,-23.3 -10.54,-50.06 -18.85,-72.39 -5.87,7.46 -6.13,26.57 -8.13,36.3 -13.48,65.65 -46.33,47.82 -78.76,61.11z"/>
  <path class="fil1" d="M2320.67 1647.44c34,-0.91 42.59,-28.71 97.73,-7.41 23,8.88 23.45,16.83 37.85,25.51 19.06,11.47 10.02,-26.57 5.47,-37.58 -28.05,-67.81 -128.85,-50.11 -141.05,19.48z"/>
  <path class="fil1" d="M2940.89 1864.03c-15.84,-5.96 4.69,0.26 -13.12,9.5 -8.35,4.33 -14.9,0.7 -20.66,-1.46 -7.12,-24.3 -3.28,-24.92 16.57,-33.18 -3.12,-4.43 -1.4,-4.47 -9.76,-8.38 -14.87,-6.95 -35.58,-1.43 -46.59,7.76 -15.34,12.81 -21.45,41.92 -9.28,63.76 25.27,45.33 97.87,14.4 82.83,-38z"/>
  <path class="fil1" d="M3961.16 2058.16c19.17,9.52 40.82,1.77 56.61,21.71 5.24,6.61 9.24,16.88 11.26,26.59l7.37 32.13c12.42,-31.23 -8.39,-74.14 70.99,-78.43 -15.31,-14.02 -40.19,-3.56 -55.78,-26.55 -11.81,-17.42 -8.42,-47.54 -17.14,-60.85 -6.33,33.54 -3.99,65.49 -40.89,76.81 -6.48,1.99 -8.82,2.13 -14.57,3.13 -2.36,0.41 -6.13,0.84 -8.19,1.4l-7.39 2.85c-0.56,0.24 -1.59,0.69 -2.26,1.22z"/>
  <path class="fil1" d="M3126.19 1928.15c22.35,0.3 40.41,3.25 56.23,12.99 16.55,10.19 14.35,14.93 23.33,29.94 6.37,10.64 -1.17,5.57 9.96,10.17 13.08,-7.13 17.93,-27.77 15.21,-47.84 -8.93,-66.04 -105.88,-46.36 -104.73,-5.26z"/>
  <path class="fil1" d="M3817.6 1850.63c69.92,-26.16 109.5,81.94 38.04,108.34 -69.08,25.52 -111.92,-80.71 -38.04,-108.34zm-0.17 -12.52c-90.63,28.59 -47.34,160.31 38.44,133.78 32.49,-10.05 58.86,-42.78 46.95,-87.35 -8.34,-31.2 -42.64,-59.92 -85.39,-46.43z"/>
  <path class="fil1" d="M4057.2 2914.71c61.1,-19.67 86.27,71.73 30.15,90.12 -60.57,19.85 -87.74,-71.58 -30.15,-90.12zm-2.16 -12.08c-72.56,19.94 -43.3,137.96 35.01,114.28 24.03,-7.27 49.06,-39.17 39.12,-74 -7.8,-27.34 -37.76,-50.28 -74.13,-40.28z"/>
  <path class="fil1" d="M804.76 2462.5c40.47,16.34 47.23,-9.46 59.34,54.58l5.43 13.67c5.4,-17.2 2.61,-38.49 14.14,-51.09 10.95,-11.97 31.04,-11.61 47.58,-17.46 -26.25,-20.44 -46.63,10.72 -59,-57.57 -2.47,-13.64 -2.96,-11.78 -7.17,-15.9 -0.8,78.52 -43.13,59.12 -60.33,73.77z"/>
  <path class="fil1" d="M3817.52 3822.06c13.81,7.05 136.63,3.54 171.88,3.54 18.22,-0 46,3.34 59.11,-3.96 -1.14,-18.9 -12.16,-12.78 -65.38,-12.73l-147.22 0.04c-13.7,0 -18.24,-0.8 -18.39,13.11z"/>
  <path class="fil1" d="M941.22 3822.61c16.15,6.54 154.95,2.81 200.83,2.93 17.31,0.03 23.8,3.97 27.94,-10.11 -9.03,-11.44 -41.36,-6.5 -56.14,-6.47l-144.09 0.07c-19,0 -28.36,-4.95 -28.55,13.59z"/>
  <path class="fil1" d="M999.48 1933c57.28,-22.59 87.61,68.29 29.73,87.76 -43.16,14.52 -74.28,-27.09 -56.7,-66.27 7.17,-15.98 11.63,-15.44 26.96,-21.48zm3.34 -12.69c-80.22,19.82 -49.11,133.63 28.81,112.44 25.87,-7.03 48.05,-36.36 38.95,-72.19 -6.79,-26.73 -34.92,-48.37 -67.76,-40.26z"/>
  <path class="fil1" d="M3583.19 3699.78c-16.55,11.87 -17.72,31.52 -12.38,51.7 4.41,16.69 18.07,35.47 40.26,24.2 29.72,-15.09 8.09,-101.69 -27.87,-75.91z"/>
  <path class="fil1" d="M1302.92 3699.86c-16.29,11.74 -18.29,29.82 -12.75,51.97 4.25,16.99 20.67,35.45 40.14,23.46 30.58,-18.83 6.57,-99.9 -27.39,-75.43z"/>
  <path class="fil1" d="M1387.2 3702.12c-35.95,17.13 -33.23,90.15 9.64,77.06 35.18,-10.75 29.89,-95.89 -9.64,-77.06z"/>
  <path class="fil1" d="M3666.44 3701.28c-33.45,13.17 -32.35,91.28 9.97,76.94 34.34,-11.64 29.06,-92.31 -9.97,-76.94z"/>
  <path class="fil1" d="M1242.52 3761.77c-29.22,19.28 -5.63,87.74 31.54,66.81 26.98,-15.2 2.2,-89.06 -31.54,-66.81z"/>
  <path class="fil1" d="M1105.21 2750.64c9.35,8.92 12.8,16.88 24.31,23.11 15.35,-7.25 33.73,-29.41 51.68,-40.07 -0.56,-0.85 -1.51,-3.02 -1.91,-2.39l-12.26 -9.2c-24.74,-13.4 -13.12,-26.26 -28.54,-43.65 -11.04,30.85 -30.89,65.05 -33.29,72.19z"/>
  <path class="fil1" d="M3717.69 3768.31c-15.12,8.26 -22.39,24.57 -20.82,44.03 1.61,19.95 18.07,32.5 37.47,20.79 27.19,-16.41 27.45,-88.9 -16.65,-64.82z"/>
  <path class="fil1" d="M3526.67 3765.13c-30.69,18.08 -6.03,91.83 30.34,66.09 27.4,-19.39 2.02,-85.15 -30.34,-66.09z"/>
  <path class="fil1" d="M1435.21 3772.73c-3.43,2.74 -3.13,0.73 -9.27,7.13 -25.87,27 -5.11,72.48 26.65,55.15 36.07,-19.68 17.39,-90.04 -17.38,-62.29z"/>
  <path class="fil1" d="M1575.57 2675.24c42.15,-16.14 61.5,50.72 21.94,63.94 -43.28,14.46 -67.72,-46.41 -21.94,-63.94zm-6.76 -9.65c-13.76,6.29 -18.27,7.99 -24.33,20.64 -6.03,12.57 -6.69,26.47 -1.22,38.96 7.66,17.52 31.65,35.97 58.79,24.85 55.86,-22.87 22.45,-109.9 -33.23,-84.46z"/>
  <path class="fil1" d="M4087.94 2585.13c9.6,6.69 29.75,4.01 40,14.28 9.37,9.39 8.47,32.06 14.95,44.51 9.47,-19.04 0.34,-43.58 31.83,-52.8 7.78,-2.28 15.29,-2.42 21.67,-7.35 -15.94,-2.73 -33.74,-4.83 -41.23,-14.9 -9.31,-12.51 -5.65,-34 -12.27,-45.27 -6.95,12.48 -2.69,32.95 -12.31,45.15 -9.98,12.65 -28.39,10.41 -42.64,16.38z"/>
  <path class="fil1" d="M3961.83 2201.73c39.3,-20.82 65.67,45.12 28.31,60.8 -39.68,16.66 -70.43,-38.48 -28.31,-60.8zm-1.91 -11.39c-61.36,28.41 -19.39,103.24 32.08,83.24 54.81,-21.3 20.15,-107.43 -32.08,-83.24z"/>
  <path class="fil1" d="M4118.62 2747c38.17,-15.57 58.81,42.26 23.69,59.11 -38.45,18.45 -66.89,-41.49 -23.69,-59.11zm-6.55 -9.52c-55.7,27.55 -16.58,101.56 34.87,79.79 49.9,-21.12 19.86,-106.86 -34.87,-79.79z"/>
  <path class="fil1" d="M938.1 2633.57c-35.59,14.43 -11.19,71.42 26.65,52.55 28.53,-14.23 12.03,-68.23 -26.65,-52.55z"/>
  <path class="fil1" d="M1307.46 1947.31c41.74,-18.11 62.59,48.11 23.42,61.81 -37.54,13.14 -64.02,-44.2 -23.42,-61.81zm2.44 -11.11c-60.82,18.09 -32.41,97.2 22.54,84.02 53.19,-12.76 32.06,-100.26 -22.54,-84.02z"/>
  <path class="fil1" d="M3583.97 2322.61c41.86,-12.51 51.22,51.44 15.5,59.75 -42.45,9.87 -50.39,-49.33 -15.5,-59.75zm-8.2 -8.72c-50.91,19.98 -23.44,97.17 32.76,77.48 43.91,-15.39 23.61,-99.59 -32.76,-77.48z"/>
  <path class="fil1" d="M1376.53 2197.78c39.66,-18.62 56.14,44.89 21.83,54.7 -41.52,11.87 -54.11,-39.55 -21.83,-54.7zm-4.22 -10.04c-43.77,16.33 -24.85,94.31 31.04,75.15 46.46,-15.93 25.01,-96.06 -31.04,-75.15z"/>
  <path class="fil1" d="M3535.99 2672.16c34.41,-19.11 56.6,29.19 27.17,46.88 -22.44,13.49 -49.04,-5.52 -40.04,-33.45 3.66,-11.35 6.15,-9.7 12.87,-13.43zm1.97 -13.92c-50.34,15.91 -27.03,90.97 23.65,74.5 45.54,-14.81 26.61,-90.38 -23.65,-74.5z"/>
  <path class="fil1" d="M1889.41 1595.9c12.39,-10.43 14.27,-19.32 32.84,-29.3 24.06,-12.93 31.12,-6.69 52.89,-11.81 -13.45,-46.97 -107.26,-5.11 -85.73,41.12z"/>
  <path class="fil1" d="M3618.03 2118.83c15.98,-4.7 4.42,4.2 14.75,-22.37 17.09,-43.95 53.86,-36.01 57.98,-53.54 -23.67,-13.76 -84.5,36.97 -72.73,75.91z"/>
  <path class="fil1" d="M3436.17 2869.69c15.56,-18.96 17.85,-84.41 -10.3,-93.19 -6.87,11.33 6.76,26.41 8.09,45.97 0.65,9.63 -0.24,18.88 -2.74,27.55 -4.41,15.28 -8.46,14.33 4.95,19.67z"/>
  <path class="fil1" d="M2863.9 1757.5c33.98,-11.88 20.32,-15.28 63.36,-10.41 -1.37,-30.59 -55.7,-26.98 -63.36,10.41z"/>
  <path class="fil1" d="M3247.2 2834.5c15.8,-2.76 9.17,-15.61 17.29,-32.28 7.38,-15.14 19.48,-17.14 20.07,-33.03 -29.6,-0.26 -42.28,52.63 -37.37,65.31z"/>
  <path class="fil1" d="M1236.03 2165.95c1.39,-1.08 7.94,2.13 8.2,-19.98 0.24,-20.58 -11.06,-51.65 -33.08,-53.25 1.33,16.6 24.27,21.12 21.42,53.14 -0.2,2.22 -2.06,10.72 -2.06,10.96 0.04,13.93 1.16,6.05 5.52,9.13z"/>
  <path class="fil1" d="M3538.84 2467.61c-9.65,-18.46 -11.67,-6.82 -11.69,-6.82 -4.22,6.13 4.24,14.85 6.03,26.37 2.08,13.38 -1.7,21.02 -0.81,34 10.74,-1.26 10.18,1.4 12.27,-11.93 1.88,-11.96 0.07,-30.39 -5.81,-41.62z"/>
  <path class="fil1" d="M3403.19 2499.56c16.53,-5.23 2.37,-7.21 18.31,-32.03 8.34,-12.97 20.57,-12.17 23.21,-27.46 -22.33,3.14 -49.15,34.33 -41.53,59.48z"/>
  <path class="fil1" d="M3757.32 2218.84c21.18,-3.27 45.46,-38.13 37.87,-51.41 -9.59,4.72 -14.31,17.05 -19.71,24.47 -7.06,9.69 -14.55,14.4 -18.16,26.94z"/>
  <path class="fil1" d="M3795.19 1905.28c9.23,-5.71 2.25,2.48 7.35,-12.07 9.61,-27.45 21.59,-17.69 13.11,-30.65 -12.39,6.25 -29.02,25.63 -20.46,42.73z"/>
  <path class="fil1" d="M1020.27 1941.72c5.31,10.82 7.8,6.97 15.06,16.47 8.61,11.28 2.25,11.43 9.61,20.88 15.73,-12.04 -11.64,-44.63 -24.68,-37.35z"/>
  <path class="fil1" d="M3568.36 2353.91c8.13,-4.15 17.64,-16.09 21.55,-25.13 -19.09,2.02 -20.35,5.01 -21.55,25.13z"/>
  <path class="fil1" d="M4103.36 2968.09c12.16,-5.15 6.41,-21.22 6.15,-21.7 -5.37,-10.07 1.63,-1.46 -8.14,-5.81l1.99 27.52z"/>
  <path class="fil1" d="M1325.09 1955.28c19.88,20.91 5.04,12.62 18.71,22.83 -0.93,-15.14 -11.12,-30.74 -18.71,-22.83z"/>
  <path class="fil3" d="M1549.13 3859.93c-7.38,0 -11.07,-3.69 -11.07,-11.07l0 -102.91c0,-7.39 3.69,-11.08 11.07,-11.08l1.1 0c7.39,0 11.07,3.69 11.07,11.08l0 37.34 53.45 0 0 -37.34c0,-7.39 3.69,-11.08 11.07,-11.08l1.22 0c7.38,0 11.07,3.69 11.07,11.08l0 102.91c0,7.38 -3.69,11.07 -11.07,11.07l-1.22 0c-7.38,0 -11.07,-3.69 -11.07,-11.07l0 -44.13 -53.45 0 0 44.13c0,7.38 -3.69,11.07 -11.07,11.07l-1.1 0zm140.6 1.1c-9.38,0.44 -17.21,-1.58 -23.46,-6.07 -6.25,-4.56 -9.38,-11.11 -9.38,-19.68 0,-6.07 1.81,-11.29 5.45,-15.6 3.66,-4.38 8.37,-7.77 14.11,-10.21 5.78,-2.44 11.76,-3.72 17.95,-3.84 2.74,-0.21 5.36,0 7.86,0.65 2.5,0.63 4.82,1.49 6.96,2.59l0 -5.78c0,-5 -1.07,-8.25 -3.21,-9.7 -2.17,-1.49 -5.21,-2.24 -9.11,-2.24 -3.19,0 -6.49,0.39 -9.91,1.16 -3.39,0.78 -6.7,1.82 -9.89,3.1 -3.48,1.43 -6.43,1.94 -8.87,1.55 -2.44,-0.42 -4.5,-1.99 -6.13,-4.7 -1.58,-2.77 -1.93,-5.45 -1.1,-8.01 0.87,-2.53 3.07,-4.59 6.64,-6.13 4.26,-1.94 8.87,-3.45 13.81,-4.61 4.94,-1.19 10.09,-1.79 15.45,-1.79 11.08,0 19.48,2.26 25.16,6.79 5.72,4.5 8.57,12.72 8.57,24.59l0 37.58c0,1.19 0.06,2.02 0.18,2.47 0.39,1.67 1.07,2.77 2.06,3.31 1.01,0.54 2.05,0.89 3.15,1.07 1.07,0.15 2,0.39 2.74,0.72 0.78,0.3 1.16,1.04 1.16,2.23 0,2.26 -0.63,4.29 -1.88,6.1 -1.25,1.79 -3.3,2.98 -6.13,3.54 -1.31,0.24 -2.68,0.45 -4.11,0.6 -1.43,0.21 -2.92,0.33 -4.5,0.33 -7,0 -11.46,-2.38 -13.37,-7.18 -5.48,4.17 -12.21,6.55 -20.22,7.18zm-0.51 -19.33c6.31,-0.35 11.35,-1.57 15.1,-3.63 3.75,-2.09 5.51,-4.97 5.27,-8.67 -0.12,-2.77 -1.46,-4.59 -4.02,-5.39 -2.56,-0.83 -5.69,-1.13 -9.38,-0.89 -5.51,0.21 -9.85,1.64 -13.07,4.23 -3.19,2.56 -4.74,5.27 -4.65,8.1 0.12,2 1.04,3.57 2.77,4.7 1.76,1.16 4.41,1.67 7.98,1.55zm77.74 52.91c-7.5,0 -11.26,-3.93 -11.26,-11.82l0 -97.19c0,-7.86 3.28,-11.79 9.8,-11.79 6.43,0 9.83,1.31 10.18,3.93l0.57 4.11c6.07,-6.76 13.58,-10.15 22.48,-10.15 8.1,0 15.3,1.76 21.62,5.27 6.28,3.48 11.26,8.61 14.92,15.33 3.63,6.73 5.45,14.92 5.45,24.57 0,9.56 -1.81,17.69 -5.45,24.39 -3.66,6.7 -8.63,11.82 -14.92,15.37 -6.31,3.51 -13.52,5.27 -21.62,5.27 -7.77,0 -14.62,-2.68 -20.54,-8.04l0 28.94c0,7.89 -3.75,11.82 -11.23,11.82zm30.88 -53.09c5.72,0 10.51,-2.11 14.38,-6.34 3.87,-4.23 5.81,-10.33 5.81,-18.31 0,-8.1 -1.94,-14.26 -5.81,-18.49 -3.87,-4.2 -8.67,-6.31 -14.38,-6.31 -5.69,0 -10.48,2.11 -14.32,6.31 -3.81,4.23 -5.72,10.39 -5.72,18.49 0,7.98 1.91,14.08 5.72,18.31 3.84,4.23 8.64,6.34 14.32,6.34zm70.42 53.09c-7.5,0 -11.26,-3.93 -11.26,-11.82l0 -97.19c0,-7.86 3.28,-11.79 9.8,-11.79 6.43,0 9.83,1.31 10.18,3.93l0.57 4.11c6.07,-6.76 13.58,-10.15 22.48,-10.15 8.1,0 15.3,1.76 21.62,5.27 6.28,3.48 11.26,8.61 14.92,15.33 3.63,6.73 5.45,14.92 5.45,24.57 0,9.56 -1.81,17.69 -5.45,24.39 -3.66,6.7 -8.63,11.82 -14.92,15.37 -6.31,3.51 -13.52,5.27 -21.62,5.27 -7.77,0 -14.62,-2.68 -20.54,-8.04l0 28.94c0,7.89 -3.75,11.82 -11.23,11.82zm30.88 -53.09c5.72,0 10.51,-2.11 14.38,-6.34 3.87,-4.23 5.81,-10.33 5.81,-18.31 0,-8.1 -1.94,-14.26 -5.81,-18.49 -3.87,-4.2 -8.67,-6.31 -14.38,-6.31 -5.69,0 -10.48,2.11 -14.32,6.31 -3.81,4.23 -5.72,10.39 -5.72,18.49 0,7.98 1.91,14.08 5.72,18.31 3.84,4.23 8.64,6.34 14.32,6.34zm67.89 53.24l-4.29 0c-3.69,-0.21 -6.46,-1.34 -8.34,-3.39 -1.81,-2.03 -2.74,-4.7 -2.74,-8.01 0,-6.7 2.15,-9.74 6.41,-9.14 1.1,0.12 2.17,0.21 3.24,0.27 1.07,0.06 2.14,0.09 3.22,0.09 3.19,0 5.57,-0.33 7.11,-1.01 1.58,-0.63 2.8,-1.76 3.67,-3.39 0.89,-1.58 1.87,-3.75 2.98,-6.49l1.43 -3.93 -28.56 -72.35c-1.58,-4.17 -1.79,-7.48 -0.59,-9.92 1.22,-2.44 3.54,-3.66 7,-3.66l1.43 0c6.76,0 11.22,3.15 13.4,9.47l17.15 49.46 15.9 -49.28c2.17,-6.43 6.64,-9.65 13.4,-9.65 3.81,0 6.43,1.22 7.86,3.66 1.4,2.44 1.4,5.75 0,9.92l-29.27 82.92c-1.94,5.33 -4.11,9.83 -6.55,13.46 -2.44,3.63 -5.54,6.37 -9.29,8.22 -3.75,1.85 -8.6,2.77 -14.56,2.77zm165.43 -32.87c-7.98,0 -15.15,-1.76 -21.53,-5.27 -6.37,-3.54 -11.37,-8.67 -15,-15.37 -3.63,-6.7 -5.45,-14.83 -5.45,-24.39 0,-9.65 1.82,-17.83 5.45,-24.57 3.63,-6.73 8.63,-11.85 15,-15.33 6.37,-3.51 13.55,-5.27 21.53,-5.27 7.98,0 14.83,2.68 20.55,8.01l0 -35.02c0,-7.86 3.75,-11.79 11.26,-11.79 7.5,0 11.25,3.93 11.25,11.79l0 103.44c0,7.86 -3.21,11.79 -9.65,11.79 -6.46,0 -9.85,-1.37 -10.19,-4.11l-0.54 -4.08c-6.07,6.76 -13.64,10.15 -22.69,10.15zm0.89 -20.37c5.72,0 10.51,-2.11 14.38,-6.34 3.87,-4.23 5.81,-10.33 5.81,-18.31 0,-8.1 -1.94,-14.26 -5.81,-18.49 -3.87,-4.2 -8.67,-6.31 -14.38,-6.31 -5.69,0 -10.48,2.11 -14.32,6.31 -3.81,4.23 -5.72,10.39 -5.72,18.49 0,7.98 1.91,14.08 5.72,18.31 3.84,4.23 8.64,6.34 14.32,6.34zm100.4 20.37c-7.98,0 -15.15,-1.85 -21.53,-5.54 -6.37,-3.69 -11.37,-8.93 -15,-15.69 -3.63,-6.82 -5.45,-14.74 -5.45,-23.79 0,-9.2 1.82,-17.15 5.45,-23.85 3.63,-6.7 8.63,-11.94 15,-15.69 6.37,-3.75 13.55,-5.63 21.53,-5.63 8.1,0 15.31,1.87 21.59,5.63 6.31,3.75 11.29,8.99 14.92,15.69 3.66,6.7 5.48,14.65 5.48,23.85 0,9.05 -1.81,16.97 -5.48,23.79 -3.63,6.76 -8.61,12 -14.92,15.69 -6.28,3.69 -13.49,5.54 -21.59,5.54zm0 -20.37c5.72,0 10.39,-2.11 14.02,-6.34 3.63,-4.23 5.45,-10.33 5.45,-18.31 0,-8.1 -1.82,-14.26 -5.45,-18.49 -3.63,-4.2 -8.31,-6.31 -14.02,-6.31 -5.72,0 -10.33,2.11 -13.84,6.31 -3.54,4.23 -5.3,10.39 -5.3,18.49 0,7.98 1.76,14.08 5.3,18.31 3.51,4.23 8.13,6.34 13.84,6.34zm93.97 53.24c-13.58,0 -24.24,-3.81 -32.01,-11.41 -2.71,-2.89 -3.81,-5.72 -3.31,-8.52 0.57,-2.8 2.26,-5.15 5.09,-7.06 3.01,-2 5.66,-2.68 7.98,-2.06 2.35,0.69 5,2.2 7.95,4.58 1.94,1.31 4.02,2.32 6.31,3.01 2.35,0.72 5,1.07 7.98,1.07 6.55,0 11.35,-1.97 14.35,-5.93 3.07,-3.93 4.58,-10.3 4.58,-19.09l0 -1.96c-5.51,4.64 -12.06,6.96 -19.65,6.96 -7.62,0 -14.38,-1.52 -20.31,-4.52 -5.87,-3.07 -10.48,-7.69 -13.91,-13.88 -3.39,-6.19 -5.09,-13.87 -5.09,-23.04 0,-9.2 1.7,-16.85 5.09,-22.99 3.42,-6.13 8.04,-10.72 13.91,-13.73 5.93,-3 12.69,-4.52 20.31,-4.52 4.2,0 8.37,0.86 12.5,2.56 4.14,1.7 7.54,4.82 10.15,9.38l0 -1.43c0,-3.19 0.86,-5.39 2.59,-6.61 1.76,-1.19 4.11,-1.79 7.09,-1.79 6.43,0 9.65,3.93 9.65,11.79l0 63.78c0,13.96 -3.24,25.01 -9.76,33.14 -6.49,8.16 -17,12.24 -31.5,12.24zm1.07 -59.82c5.72,0 10.39,-1.97 14.03,-5.9 3.63,-3.96 5.45,-9.32 5.45,-16.11 0,-6.79 -1.82,-12.09 -5.45,-15.9 -3.63,-3.81 -8.31,-5.72 -14.03,-5.72 -5.69,0 -10.15,1.91 -13.4,5.72 -3.24,3.81 -4.85,9.11 -4.85,15.9 0,6.79 1.61,12.15 4.85,16.11 3.24,3.93 7.71,5.9 13.4,5.9zm92.34 26.77c-4.98,0 -9.83,-0.57 -14.56,-1.7 -4.67,-1.13 -9.11,-3.01 -13.31,-5.63 -3.31,-2.14 -5.09,-4.61 -5.36,-7.41 -0.21,-2.8 0.8,-5.45 3.07,-7.95 2.26,-2.38 4.61,-3.54 7.06,-3.48 2.44,0.06 5.33,1.04 8.69,2.92 4.61,2.5 9.85,3.75 15.69,3.75 4.52,0 7.68,-0.54 9.47,-1.64 1.81,-1.16 2.71,-3.28 2.71,-6.37 0,-1.31 -0.44,-2.47 -1.37,-3.48 -0.89,-1.04 -2.74,-2 -5.54,-2.86 -2.77,-0.89 -6.96,-1.88 -12.59,-2.95 -8.69,-1.67 -15.39,-4.53 -20.1,-8.55 -4.67,-4.08 -7.03,-10.15 -7.03,-18.25 0,-5.39 1.43,-10.06 4.26,-14.02 2.86,-3.99 6.76,-7.09 11.7,-9.29 4.94,-2.23 10.51,-3.33 16.7,-3.33 8.46,0 16.08,1.55 22.84,4.68 3.6,1.76 5.66,4.05 6.16,6.82 0.57,2.71 -0.18,5.39 -2.23,8.01 -2,2.62 -4.23,3.96 -6.67,4.02 -2.44,0.06 -5.39,-0.57 -8.84,-1.87 -1.79,-0.69 -3.57,-1.19 -5.36,-1.49 -1.78,-0.33 -3.63,-0.48 -5.54,-0.48 -3.93,0 -6.61,0.63 -8.04,1.88 -1.43,1.25 -2.15,2.71 -2.15,4.35 0,1.19 0.36,2.26 1.04,3.25 0.74,0.95 2.29,1.87 4.67,2.8 2.38,0.87 6.07,1.91 11.08,3.1 9.89,2.26 17.36,5.69 22.42,10.27 5.06,4.61 7.59,10.72 7.59,18.34 0,8.9 -3.43,15.57 -10.3,20.01 -6.82,4.38 -15.54,6.58 -26.17,6.58zm69.35 24.83c-3.22,1.91 -5.98,2.68 -8.31,2.3 -2.32,-0.33 -3.96,-1.34 -4.91,-3.01 -0.98,-1.64 -0.71,-3.25 0.78,-4.76 1.52,-1.46 3.81,-3.33 6.91,-5.63 3.1,-2.23 5.51,-4.82 7.24,-7.83 1.76,-2.98 2.62,-5.95 2.62,-8.93 0,-0.59 -0.06,-1.1 -0.15,-1.49 -0.06,-0.44 -0.09,-0.89 -0.09,-1.37 -1.31,1.55 -2.89,2.86 -4.73,3.93 -1.85,1.07 -3.78,1.61 -5.78,1.61 -3.57,0 -6.64,-1.19 -9.2,-3.57 -2.56,-2.38 -3.84,-5.59 -3.84,-9.65 0,-4.17 1.52,-7.39 4.56,-9.62 3.04,-2.26 6.58,-3.39 10.63,-3.39 6.19,0 11.31,2.29 15.37,6.88 4.02,4.56 6.04,10.36 6.04,17.39 0,5.81 -1.55,11.02 -4.65,15.63 -3.1,4.59 -7.26,8.43 -12.48,11.52zm123.98 -24.65c-7.98,0 -15.15,-1.85 -21.53,-5.54 -6.37,-3.69 -11.37,-8.93 -15,-15.69 -3.63,-6.82 -5.45,-14.74 -5.45,-23.79 0,-9.2 1.82,-17.15 5.45,-23.85 3.63,-6.7 8.63,-11.94 15,-15.69 6.37,-3.75 13.55,-5.63 21.53,-5.63 9.89,0 18.4,2.74 25.52,8.19 3.24,2.38 4.7,5.06 4.41,8.07 -0.27,2.95 -1.85,5.45 -4.73,7.44 -2.86,2.06 -5.33,2.95 -7.42,2.71 -2.05,-0.21 -4.76,-1.4 -8.13,-3.57 -2.74,-1.64 -5.96,-2.47 -9.65,-2.47 -5.72,0 -10.33,2.11 -13.84,6.31 -3.54,4.23 -5.3,10.39 -5.3,18.49 0,7.98 1.76,14.08 5.3,18.31 3.51,4.23 8.13,6.34 13.84,6.34 3.6,0 6.7,-0.71 9.29,-2.14 3.1,-1.94 5.78,-3.16 8.04,-3.67 2.26,-0.5 4.82,0.24 7.68,2.24 2.83,2.14 4.47,4.64 4.89,7.53 0.44,2.86 -0.83,5.45 -3.81,7.8 -7.15,5.75 -15.84,8.61 -26.08,8.61zm61.67 -1.96c-7.5,0 -11.26,-3.93 -11.26,-11.79l0 -103.44c0,-7.86 3.75,-11.79 11.26,-11.79 7.48,0 11.23,3.93 11.23,11.79l0 103.44c0,7.86 -3.75,11.79 -11.23,11.79zm70 1.96c-12.62,0 -22.87,-3.72 -30.76,-11.17 -7.83,-7.44 -11.76,-18.73 -11.76,-33.85 0,-9.41 1.76,-17.48 5.27,-24.21 3.52,-6.76 8.37,-11.91 14.56,-15.51 6.2,-3.63 13.34,-5.45 21.41,-5.45 8.13,0 15.01,1.85 20.63,5.54 5.69,3.69 10.01,8.43 12.95,14.2 3.01,5.75 4.5,11.85 4.5,18.28 0,5.12 -1.01,8.4 -3.04,9.83 -2,1.4 -4.94,2.11 -8.78,2.11l-45.35 0c0.63,8.01 2.8,13.46 6.55,16.41 3.75,2.92 8.49,4.38 14.17,4.38 6.31,0 11.31,-1.85 15.01,-5.54 2.71,-2.77 5.24,-4.59 7.56,-5.39 2.35,-0.83 4.82,-0.3 7.44,1.64 2.77,1.87 4.29,4.29 4.56,7.24 0.3,2.89 -0.98,5.89 -3.84,8.99 -4.08,4.41 -8.69,7.59 -13.85,9.59 -5.18,1.94 -10.93,2.92 -17.24,2.92zm-19.44 -57.35l34.09 0c-2.14,-10.24 -7.56,-15.37 -16.26,-15.37 -4.76,0 -8.63,1.19 -11.61,3.57 -2.94,2.38 -5.03,6.31 -6.22,11.79zm101.95 56.48c-9.38,0.44 -17.21,-1.58 -23.46,-6.07 -6.25,-4.56 -9.38,-11.11 -9.38,-19.68 0,-6.07 1.81,-11.29 5.45,-15.6 3.66,-4.38 8.37,-7.77 14.11,-10.21 5.78,-2.44 11.76,-3.72 17.95,-3.84 2.74,-0.21 5.36,0 7.86,0.65 2.5,0.63 4.82,1.49 6.96,2.59l0 -5.78c0,-5 -1.07,-8.25 -3.21,-9.7 -2.17,-1.49 -5.21,-2.24 -9.11,-2.24 -3.19,0 -6.49,0.39 -9.91,1.16 -3.39,0.78 -6.7,1.82 -9.89,3.1 -3.48,1.43 -6.43,1.94 -8.87,1.55 -2.44,-0.42 -4.5,-1.99 -6.13,-4.7 -1.58,-2.77 -1.93,-5.45 -1.1,-8.01 0.87,-2.53 3.07,-4.59 6.64,-6.13 4.26,-1.94 8.87,-3.45 13.81,-4.61 4.94,-1.19 10.09,-1.79 15.45,-1.79 11.08,0 19.48,2.26 25.16,6.79 5.72,4.5 8.57,12.72 8.57,24.59l0 37.58c0,1.19 0.06,2.02 0.18,2.47 0.39,1.67 1.07,2.77 2.06,3.31 1.01,0.54 2.05,0.89 3.15,1.07 1.07,0.15 2,0.39 2.74,0.72 0.78,0.3 1.16,1.04 1.16,2.23 0,2.26 -0.63,4.29 -1.88,6.1 -1.25,1.79 -3.3,2.98 -6.13,3.54 -1.31,0.24 -2.68,0.45 -4.11,0.6 -1.43,0.21 -2.92,0.33 -4.5,0.33 -7,0 -11.46,-2.38 -13.37,-7.18 -5.48,4.17 -12.21,6.55 -20.22,7.18zm-0.51 -19.33c6.31,-0.35 11.35,-1.57 15.1,-3.63 3.75,-2.09 5.51,-4.97 5.27,-8.67 -0.12,-2.77 -1.46,-4.59 -4.02,-5.39 -2.56,-0.83 -5.69,-1.13 -9.38,-0.89 -5.51,0.21 -9.85,1.64 -13.07,4.23 -3.19,2.56 -4.74,5.27 -4.65,8.1 0.12,2 1.04,3.57 2.77,4.7 1.76,1.16 4.41,1.67 7.98,1.55zm77.74 18.22c-7.5,0 -11.26,-3.93 -11.26,-11.79l0 -62.53c0,-7.86 3.34,-11.79 9.98,-11.79 6.76,0 10.33,1.61 10.72,4.82l0.54 4.82c2.38,-3.13 5.45,-5.83 9.2,-8.19 3.75,-2.38 8.19,-3.57 13.31,-3.57 8.93,0 16.22,2.86 21.85,8.57 5.66,5.69 8.48,14.14 8.48,25.34l0 42.52c0,7.86 -3.75,11.79 -11.26,11.79 -7.47,0 -11.22,-3.93 -11.22,-11.79l0 -36.98c0,-6.31 -1.22,-11.08 -3.69,-14.26 -2.44,-3.22 -5.74,-4.82 -9.89,-4.82 -4.56,0 -8.28,1.64 -11.17,4.91 -2.92,3.24 -4.37,8.4 -4.37,15.39l0 35.76c0,7.86 -3.75,11.79 -11.23,11.79zm145.07 34.69c-7.5,0 -11.26,-3.93 -11.26,-11.82l0 -97.19c0,-7.86 3.28,-11.79 9.8,-11.79 6.43,0 9.83,1.31 10.18,3.93l0.57 4.11c6.07,-6.76 13.58,-10.15 22.48,-10.15 8.1,0 15.3,1.76 21.62,5.27 6.28,3.48 11.26,8.61 14.92,15.33 3.63,6.73 5.45,14.92 5.45,24.57 0,9.56 -1.81,17.69 -5.45,24.39 -3.66,6.7 -8.63,11.82 -14.92,15.37 -6.31,3.51 -13.52,5.27 -21.62,5.27 -7.77,0 -14.62,-2.68 -20.54,-8.04l0 28.94c0,7.89 -3.75,11.82 -11.23,11.82zm30.88 -53.09c5.72,0 10.51,-2.11 14.38,-6.34 3.87,-4.23 5.81,-10.33 5.81,-18.31 0,-8.1 -1.94,-14.26 -5.81,-18.49 -3.87,-4.2 -8.67,-6.31 -14.38,-6.31 -5.69,0 -10.48,2.11 -14.32,6.31 -3.81,4.23 -5.72,10.39 -5.72,18.49 0,7.98 1.91,14.08 5.72,18.31 3.84,4.23 8.64,6.34 14.32,6.34zm86.8 19.5c-9.38,0.44 -17.21,-1.58 -23.46,-6.07 -6.25,-4.56 -9.38,-11.11 -9.38,-19.68 0,-6.07 1.81,-11.29 5.45,-15.6 3.66,-4.38 8.37,-7.77 14.11,-10.21 5.78,-2.44 11.76,-3.72 17.95,-3.84 2.74,-0.21 5.36,0 7.86,0.65 2.5,0.63 4.82,1.49 6.96,2.59l0 -5.78c0,-5 -1.07,-8.25 -3.21,-9.7 -2.17,-1.49 -5.21,-2.24 -9.11,-2.24 -3.19,0 -6.49,0.39 -9.91,1.16 -3.39,0.78 -6.7,1.82 -9.89,3.1 -3.48,1.43 -6.43,1.94 -8.87,1.55 -2.44,-0.42 -4.5,-1.99 -6.13,-4.7 -1.58,-2.77 -1.93,-5.45 -1.1,-8.01 0.87,-2.53 3.07,-4.59 6.64,-6.13 4.26,-1.94 8.87,-3.45 13.81,-4.61 4.94,-1.19 10.09,-1.79 15.45,-1.79 11.08,0 19.48,2.26 25.16,6.79 5.72,4.5 8.57,12.72 8.57,24.59l0 37.58c0,1.19 0.06,2.02 0.18,2.47 0.39,1.67 1.07,2.77 2.06,3.31 1.01,0.54 2.05,0.89 3.15,1.07 1.07,0.15 2,0.39 2.74,0.72 0.78,0.3 1.16,1.04 1.16,2.23 0,2.26 -0.63,4.29 -1.88,6.1 -1.25,1.79 -3.3,2.98 -6.13,3.54 -1.31,0.24 -2.68,0.45 -4.11,0.6 -1.43,0.21 -2.92,0.33 -4.5,0.33 -7,0 -11.46,-2.38 -13.37,-7.18 -5.48,4.17 -12.21,6.55 -20.22,7.18zm-0.51 -19.33c6.31,-0.35 11.35,-1.57 15.1,-3.63 3.75,-2.09 5.51,-4.97 5.27,-8.67 -0.12,-2.77 -1.46,-4.59 -4.02,-5.39 -2.56,-0.83 -5.69,-1.13 -9.38,-0.89 -5.51,0.21 -9.85,1.64 -13.07,4.23 -3.19,2.56 -4.74,5.27 -4.65,8.1 0.12,2 1.04,3.57 2.77,4.7 1.76,1.16 4.41,1.67 7.98,1.55zm89.86 18.22c-6.43,0 -10.66,-3.33 -12.69,-9.98l-17.83 -62.91c-1.22,-4.02 -1.19,-7.24 0.06,-9.62 1.25,-2.41 3.54,-3.6 6.85,-3.6l0.18 0c6.94,0 11.28,3.39 13.04,10.18l11.31 44.48 11.41 -44.48c1.79,-6.79 5.78,-10.18 11.97,-10.18 6.07,0 10.01,3.39 11.76,10.18l11.31 44.48 11.43 -44.48c1.76,-6.79 6.1,-10.18 13.04,-10.18 3.3,0 5.59,1.19 6.91,3.6 1.31,2.38 1.37,5.6 0.18,9.62l-18.02 62.91c-2.02,6.64 -6.25,9.98 -12.69,9.98 -6.55,0 -10.72,-3.39 -12.5,-10.15l-11.61 -45.05 -11.61 45.05c-1.81,6.76 -5.98,10.15 -12.5,10.15zm123.6 1.79c-4.98,0 -9.83,-0.57 -14.56,-1.7 -4.67,-1.13 -9.11,-3.01 -13.31,-5.63 -3.31,-2.14 -5.09,-4.61 -5.36,-7.41 -0.21,-2.8 0.8,-5.45 3.07,-7.95 2.26,-2.38 4.61,-3.54 7.06,-3.48 2.44,0.06 5.33,1.04 8.69,2.92 4.61,2.5 9.85,3.75 15.69,3.75 4.52,0 7.68,-0.54 9.47,-1.64 1.81,-1.16 2.71,-3.28 2.71,-6.37 0,-1.31 -0.44,-2.47 -1.37,-3.48 -0.89,-1.04 -2.74,-2 -5.54,-2.86 -2.77,-0.89 -6.96,-1.88 -12.59,-2.95 -8.69,-1.67 -15.39,-4.53 -20.1,-8.55 -4.67,-4.08 -7.03,-10.15 -7.03,-18.25 0,-5.39 1.43,-10.06 4.26,-14.02 2.86,-3.99 6.76,-7.09 11.7,-9.29 4.94,-2.23 10.51,-3.33 16.7,-3.33 8.46,0 16.08,1.55 22.84,4.68 3.6,1.76 5.66,4.05 6.16,6.82 0.57,2.71 -0.18,5.39 -2.23,8.01 -2,2.62 -4.23,3.96 -6.67,4.02 -2.44,0.06 -5.39,-0.57 -8.84,-1.87 -1.79,-0.69 -3.57,-1.19 -5.36,-1.49 -1.78,-0.33 -3.63,-0.48 -5.54,-0.48 -3.93,0 -6.61,0.63 -8.04,1.88 -1.43,1.25 -2.15,2.71 -2.15,4.35 0,1.19 0.36,2.26 1.04,3.25 0.74,0.95 2.29,1.87 4.67,2.8 2.38,0.87 6.07,1.91 11.08,3.1 9.89,2.26 17.36,5.69 22.42,10.27 5.06,4.61 7.59,10.72 7.59,18.34 0,8.9 -3.43,15.57 -10.3,20.01 -6.82,4.38 -15.54,6.58 -26.17,6.58z"/>
  <path class="fil3" d="M1891.19 4045.48c-12.74,0 -22.48,-3.13 -29.24,-9.38 -6.7,-6.26 -10.07,-15.1 -10.07,-26.56 0,-5.72 1.22,-10.72 3.67,-14.98 2.44,-4.31 5.63,-8.1 9.56,-11.34 3.9,-3.28 8.13,-6.25 12.69,-8.91 -4.17,-5 -7.44,-9.68 -9.83,-13.99 -2.38,-4.38 -3.57,-9.65 -3.57,-15.84 0,-6.64 1.67,-12.24 4.97,-16.73 3.37,-4.56 7.68,-7.98 12.95,-10.3 5.33,-2.32 11.02,-3.48 17.09,-3.48 7.3,0 13.49,1.34 18.58,4.02 5.12,2.68 9.08,6.31 11.88,10.9 2.8,4.59 4.2,9.68 4.2,15.28 0,5.51 -1.22,10.33 -3.69,14.47 -2.44,4.17 -5.6,7.8 -9.44,10.9 -3.87,3.09 -8.01,6.02 -12.39,8.78l18.34 21.41c1.81,-2.26 3.6,-4.62 5.36,-7.06 1.81,-2.44 3.6,-5.03 5.39,-7.77 4.52,-6.55 9.65,-7.92 15.33,-4.11 5.87,4.05 6.58,9.29 2.2,15.72 -2.3,3.45 -4.62,6.82 -7,10.09 -2.38,3.24 -4.82,6.43 -7.32,9.56l9.97 11.79c3.37,3.9 4.85,7.3 4.47,10.19 -0.36,2.86 -2.44,4.29 -6.25,4.29l-5.54 0c-5.93,0 -10.3,-1.79 -13.19,-5.36l-4.46 -5.36c-5,4.2 -10.36,7.54 -16.08,10.04 -5.72,2.5 -11.91,3.75 -18.58,3.75zm1.61 -20.96c3.13,0 6.34,-0.78 9.65,-2.3 3.34,-1.55 6.67,-3.69 10.01,-6.43l-22.15 -26.47c-4.02,2.77 -7.41,5.75 -10.13,8.99 -2.65,3.19 -3.99,6.94 -3.99,11.22 0,5.84 1.43,9.8 4.26,11.88 2.89,2.06 7,3.1 12.36,3.1zm3.04 -60.71c4.29,-2.71 7.89,-5.63 10.78,-8.72 2.95,-3.1 4.41,-6.67 4.41,-10.75 0,-3.81 -1.19,-6.64 -3.57,-8.48 -2.38,-1.85 -4.94,-2.77 -7.68,-2.77 -3.33,0 -6.43,1.01 -9.29,3.04 -2.83,2.06 -4.26,5.03 -4.26,8.93 0,3.72 0.95,7 2.83,9.83 1.91,2.86 4.17,5.83 6.79,8.93zm157.57 78.61c-6.43,0 -10.66,-3.33 -12.69,-9.98l-17.83 -62.91c-1.22,-4.02 -1.19,-7.24 0.06,-9.62 1.25,-2.41 3.54,-3.6 6.85,-3.6l0.18 0c6.94,0 11.28,3.39 13.04,10.18l11.31 44.48 11.41 -44.48c1.79,-6.79 5.78,-10.18 11.97,-10.18 6.07,0 10.01,3.39 11.76,10.18l11.31 44.48 11.43 -44.48c1.76,-6.79 6.1,-10.18 13.04,-10.18 3.3,0 5.59,1.19 6.91,3.6 1.31,2.38 1.37,5.6 0.18,9.62l-18.02 62.91c-2.02,6.64 -6.25,9.98 -12.69,9.98 -6.55,0 -10.72,-3.39 -12.5,-10.15l-11.61 -45.05 -11.61 45.05c-1.81,6.76 -5.98,10.15 -12.5,10.15zm125.39 1.1c-9.38,0.44 -17.21,-1.58 -23.46,-6.07 -6.25,-4.56 -9.38,-11.11 -9.38,-19.68 0,-6.07 1.81,-11.29 5.45,-15.6 3.66,-4.38 8.37,-7.77 14.11,-10.21 5.78,-2.44 11.76,-3.72 17.95,-3.84 2.74,-0.21 5.36,0 7.86,0.65 2.5,0.63 4.82,1.49 6.96,2.59l0 -5.78c0,-5 -1.07,-8.25 -3.21,-9.7 -2.17,-1.49 -5.21,-2.24 -9.11,-2.24 -3.19,0 -6.49,0.39 -9.91,1.16 -3.39,0.78 -6.7,1.82 -9.89,3.1 -3.48,1.43 -6.43,1.94 -8.87,1.55 -2.44,-0.42 -4.5,-1.99 -6.13,-4.7 -1.58,-2.77 -1.93,-5.45 -1.1,-8.01 0.87,-2.53 3.07,-4.59 6.64,-6.13 4.26,-1.94 8.87,-3.45 13.81,-4.61 4.94,-1.19 10.09,-1.79 15.45,-1.79 11.08,0 19.48,2.26 25.16,6.79 5.72,4.5 8.57,12.72 8.57,24.59l0 37.58c0,1.19 0.06,2.02 0.18,2.47 0.39,1.67 1.07,2.77 2.06,3.31 1.01,0.54 2.05,0.89 3.15,1.07 1.07,0.15 2,0.39 2.74,0.72 0.78,0.3 1.16,1.04 1.16,2.23 0,2.26 -0.63,4.29 -1.88,6.1 -1.25,1.79 -3.3,2.98 -6.13,3.54 -1.31,0.24 -2.68,0.45 -4.11,0.6 -1.43,0.21 -2.92,0.33 -4.5,0.33 -7,0 -11.46,-2.38 -13.37,-7.18 -5.48,4.17 -12.21,6.55 -20.22,7.18zm-0.51 -19.33c6.31,-0.35 11.35,-1.57 15.1,-3.63 3.75,-2.09 5.51,-4.97 5.27,-8.67 -0.12,-2.77 -1.46,-4.59 -4.02,-5.39 -2.56,-0.83 -5.69,-1.13 -9.38,-0.89 -5.51,0.21 -9.85,1.64 -13.07,4.23 -3.19,2.56 -4.74,5.27 -4.65,8.1 0.12,2 1.04,3.57 2.77,4.7 1.76,1.16 4.41,1.67 7.98,1.55zm98.44 53.06c-13.58,0 -24.24,-3.81 -32.01,-11.41 -2.71,-2.89 -3.81,-5.72 -3.31,-8.52 0.57,-2.8 2.26,-5.15 5.09,-7.06 3.01,-2 5.66,-2.68 7.98,-2.06 2.35,0.69 5,2.2 7.95,4.58 1.94,1.31 4.02,2.32 6.31,3.01 2.35,0.72 5,1.07 7.98,1.07 6.55,0 11.35,-1.97 14.35,-5.93 3.07,-3.93 4.58,-10.3 4.58,-19.09l0 -1.96c-5.51,4.64 -12.06,6.96 -19.65,6.96 -7.62,0 -14.38,-1.52 -20.31,-4.52 -5.87,-3.07 -10.48,-7.69 -13.91,-13.88 -3.39,-6.19 -5.09,-13.87 -5.09,-23.04 0,-9.2 1.7,-16.85 5.09,-22.99 3.42,-6.13 8.04,-10.72 13.91,-13.73 5.93,-3 12.69,-4.52 20.31,-4.52 4.2,0 8.37,0.86 12.5,2.56 4.14,1.7 7.54,4.82 10.15,9.38l0 -1.43c0,-3.19 0.86,-5.39 2.59,-6.61 1.76,-1.19 4.11,-1.79 7.09,-1.79 6.43,0 9.65,3.93 9.65,11.79l0 63.78c0,13.96 -3.24,25.01 -9.76,33.14 -6.49,8.16 -17,12.24 -31.5,12.24zm1.07 -59.82c5.72,0 10.39,-1.97 14.03,-5.9 3.63,-3.96 5.45,-9.32 5.45,-16.11 0,-6.79 -1.82,-12.09 -5.45,-15.9 -3.63,-3.81 -8.31,-5.72 -14.03,-5.72 -5.69,0 -10.15,1.91 -13.4,5.72 -3.24,3.81 -4.85,9.11 -4.85,15.9 0,6.79 1.61,12.15 4.85,16.11 3.24,3.93 7.71,5.9 13.4,5.9zm96.65 59.82c-13.58,0 -24.24,-3.81 -32.01,-11.41 -2.71,-2.89 -3.81,-5.72 -3.31,-8.52 0.57,-2.8 2.26,-5.15 5.09,-7.06 3.01,-2 5.66,-2.68 7.98,-2.06 2.35,0.69 5,2.2 7.95,4.58 1.94,1.31 4.02,2.32 6.31,3.01 2.35,0.72 5,1.07 7.98,1.07 6.55,0 11.35,-1.97 14.35,-5.93 3.07,-3.93 4.58,-10.3 4.58,-19.09l0 -1.96c-5.51,4.64 -12.06,6.96 -19.65,6.96 -7.62,0 -14.38,-1.52 -20.31,-4.52 -5.87,-3.07 -10.48,-7.69 -13.91,-13.88 -3.39,-6.19 -5.09,-13.87 -5.09,-23.04 0,-9.2 1.7,-16.85 5.09,-22.99 3.42,-6.13 8.04,-10.72 13.91,-13.73 5.93,-3 12.69,-4.52 20.31,-4.52 4.2,0 8.37,0.86 12.5,2.56 4.14,1.7 7.54,4.82 10.15,9.38l0 -1.43c0,-3.19 0.86,-5.39 2.59,-6.61 1.76,-1.19 4.11,-1.79 7.09,-1.79 6.43,0 9.65,3.93 9.65,11.79l0 63.78c0,13.96 -3.24,25.01 -9.76,33.14 -6.49,8.16 -17,12.24 -31.5,12.24zm1.07 -59.82c5.72,0 10.39,-1.97 14.03,-5.9 3.63,-3.96 5.45,-9.32 5.45,-16.11 0,-6.79 -1.82,-12.09 -5.45,-15.9 -3.63,-3.81 -8.31,-5.72 -14.03,-5.72 -5.69,0 -10.15,1.91 -13.4,5.72 -3.24,3.81 -4.85,9.11 -4.85,15.9 0,6.79 1.61,12.15 4.85,16.11 3.24,3.93 7.71,5.9 13.4,5.9zm75.04 24.98c-7.5,0 -11.25,-3.93 -11.25,-11.79l0 -62.53c0,-7.86 3.75,-11.79 11.25,-11.79 7.5,0 11.26,3.93 11.26,11.79l0 62.53c0,7.86 -3.75,11.79 -11.26,11.79zm-0.18 -98.97c-3.81,0 -7.06,-1.37 -9.74,-4.08 -2.65,-2.77 -3.99,-6.07 -3.99,-9.85 0,-3.81 1.34,-7.06 3.99,-9.74 2.68,-2.68 5.93,-4.02 9.74,-4.02 3.81,0 7.06,1.34 9.74,4.02 2.65,2.68 3.99,5.93 3.99,9.74 0,3.78 -1.34,7.09 -3.99,9.85 -2.68,2.71 -5.93,4.08 -9.74,4.08zm45.76 98.97c-7.5,0 -11.26,-3.93 -11.26,-11.79l0 -62.53c0,-7.86 3.34,-11.79 9.98,-11.79 6.76,0 10.33,1.61 10.72,4.82l0.54 4.82c2.38,-3.13 5.45,-5.83 9.2,-8.19 3.75,-2.38 8.19,-3.57 13.31,-3.57 8.93,0 16.22,2.86 21.85,8.57 5.66,5.69 8.48,14.14 8.48,25.34l0 42.52c0,7.86 -3.75,11.79 -11.26,11.79 -7.47,0 -11.22,-3.93 -11.22,-11.79l0 -36.98c0,-6.31 -1.22,-11.08 -3.69,-14.26 -2.44,-3.22 -5.74,-4.82 -9.89,-4.82 -4.56,0 -8.28,1.64 -11.17,4.91 -2.92,3.24 -4.37,8.4 -4.37,15.39l0 35.76c0,7.86 -3.75,11.79 -11.23,11.79zm119.31 34.84c-13.58,0 -24.24,-3.81 -32.01,-11.41 -2.71,-2.89 -3.81,-5.72 -3.31,-8.52 0.57,-2.8 2.26,-5.15 5.09,-7.06 3.01,-2 5.66,-2.68 7.98,-2.06 2.35,0.69 5,2.2 7.95,4.58 1.94,1.31 4.02,2.32 6.31,3.01 2.35,0.72 5,1.07 7.98,1.07 6.55,0 11.35,-1.97 14.35,-5.93 3.07,-3.93 4.58,-10.3 4.58,-19.09l0 -1.96c-5.51,4.64 -12.06,6.96 -19.65,6.96 -7.62,0 -14.38,-1.52 -20.31,-4.52 -5.87,-3.07 -10.48,-7.69 -13.91,-13.88 -3.39,-6.19 -5.09,-13.87 -5.09,-23.04 0,-9.2 1.7,-16.85 5.09,-22.99 3.42,-6.13 8.04,-10.72 13.91,-13.73 5.93,-3 12.69,-4.52 20.31,-4.52 4.2,0 8.37,0.86 12.5,2.56 4.14,1.7 7.54,4.82 10.15,9.38l0 -1.43c0,-3.19 0.86,-5.39 2.59,-6.61 1.76,-1.19 4.11,-1.79 7.09,-1.79 6.43,0 9.65,3.93 9.65,11.79l0 63.78c0,13.96 -3.24,25.01 -9.76,33.14 -6.49,8.16 -17,12.24 -31.5,12.24zm1.07 -59.82c5.72,0 10.39,-1.97 14.03,-5.9 3.63,-3.96 5.45,-9.32 5.45,-16.11 0,-6.79 -1.82,-12.09 -5.45,-15.9 -3.63,-3.81 -8.31,-5.72 -14.03,-5.72 -5.69,0 -10.15,1.91 -13.4,5.72 -3.24,3.81 -4.85,9.11 -4.85,15.9 0,6.79 1.61,12.15 4.85,16.11 3.24,3.93 7.71,5.9 13.4,5.9zm146.68 26.94c-5.72,0 -10.57,-0.63 -14.56,-1.87 -3.96,-1.25 -7,-3.6 -9.11,-7.06 -2.09,-3.48 -3.13,-8.37 -3.13,-14.68l0 -45.17 -4.29 0c-7.83,0 -11.76,-3.22 -11.76,-9.65 0,-3.13 0.83,-5.51 2.47,-7.15 1.67,-1.67 4.7,-2.5 9.11,-2.5l4.46 0 0 -18.04c0,-3.81 0.98,-6.73 2.92,-8.72 1.96,-2.06 4.73,-3.07 8.33,-3.07 7.39,0 11.08,3.93 11.08,11.79l0 18.04 11.4 0c7.89,0 11.82,3.22 11.82,9.65 0,6.43 -3.87,9.65 -11.58,9.65l-11.64 0 0 39.3c0,3.69 0.92,6.19 2.74,7.5 1.88,1.31 4.53,1.96 7.98,1.96 4.05,0 7.15,0.57 9.29,1.7 2.15,1.13 3.22,3.66 3.22,7.59 0,3.22 -0.89,5.6 -2.68,7.15 -1.79,1.52 -4.11,2.5 -7,2.92 -2.83,0.44 -5.87,0.65 -9.08,0.65zm63.04 -0.86c-9.38,0.44 -17.21,-1.58 -23.46,-6.07 -6.25,-4.56 -9.38,-11.11 -9.38,-19.68 0,-6.07 1.81,-11.29 5.45,-15.6 3.66,-4.38 8.37,-7.77 14.11,-10.21 5.78,-2.44 11.76,-3.72 17.95,-3.84 2.74,-0.21 5.36,0 7.86,0.65 2.5,0.63 4.82,1.49 6.96,2.59l0 -5.78c0,-5 -1.07,-8.25 -3.21,-9.7 -2.17,-1.49 -5.21,-2.24 -9.11,-2.24 -3.19,0 -6.49,0.39 -9.91,1.16 -3.39,0.78 -6.7,1.82 -9.89,3.1 -3.48,1.43 -6.43,1.94 -8.87,1.55 -2.44,-0.42 -4.5,-1.99 -6.13,-4.7 -1.58,-2.77 -1.93,-5.45 -1.1,-8.01 0.87,-2.53 3.07,-4.59 6.64,-6.13 4.26,-1.94 8.87,-3.45 13.81,-4.61 4.94,-1.19 10.09,-1.79 15.45,-1.79 11.08,0 19.48,2.26 25.16,6.79 5.72,4.5 8.57,12.72 8.57,24.59l0 37.58c0,1.19 0.06,2.02 0.18,2.47 0.39,1.67 1.07,2.77 2.06,3.31 1.01,0.54 2.05,0.89 3.15,1.07 1.07,0.15 2,0.39 2.74,0.72 0.78,0.3 1.16,1.04 1.16,2.23 0,2.26 -0.63,4.29 -1.88,6.1 -1.25,1.79 -3.3,2.98 -6.13,3.54 -1.31,0.24 -2.68,0.45 -4.11,0.6 -1.43,0.21 -2.92,0.33 -4.5,0.33 -7,0 -11.46,-2.38 -13.37,-7.18 -5.48,4.17 -12.21,6.55 -20.22,7.18zm-0.51 -19.33c6.31,-0.35 11.35,-1.57 15.1,-3.63 3.75,-2.09 5.51,-4.97 5.27,-8.67 -0.12,-2.77 -1.46,-4.59 -4.02,-5.39 -2.56,-0.83 -5.69,-1.13 -9.38,-0.89 -5.51,0.21 -9.85,1.64 -13.07,4.23 -3.19,2.56 -4.74,5.27 -4.65,8.1 0.12,2 1.04,3.57 2.77,4.7 1.76,1.16 4.41,1.67 7.98,1.55zm80.39 18.22c-7.5,0 -11.25,-3.93 -11.25,-11.79l0 -62.53c0,-7.86 3.75,-11.79 11.25,-11.79 7.5,0 11.26,3.93 11.26,11.79l0 62.53c0,7.86 -3.75,11.79 -11.26,11.79zm-0.18 -98.97c-3.81,0 -7.06,-1.37 -9.74,-4.08 -2.65,-2.77 -3.99,-6.07 -3.99,-9.85 0,-3.81 1.34,-7.06 3.99,-9.74 2.68,-2.68 5.93,-4.02 9.74,-4.02 3.81,0 7.06,1.34 9.74,4.02 2.65,2.68 3.99,5.93 3.99,9.74 0,3.78 -1.34,7.09 -3.99,9.85 -2.68,2.71 -5.93,4.08 -9.74,4.08zm45.76 98.97c-7.5,0 -11.26,-3.93 -11.26,-11.79l0 -103.44c0,-7.86 3.75,-11.79 11.26,-11.79 7.48,0 11.23,3.93 11.23,11.79l0 103.44c0,7.86 -3.75,11.79 -11.23,11.79zm63.19 1.79c-4.98,0 -9.83,-0.57 -14.56,-1.7 -4.67,-1.13 -9.11,-3.01 -13.31,-5.63 -3.31,-2.14 -5.09,-4.61 -5.36,-7.41 -0.21,-2.8 0.8,-5.45 3.07,-7.95 2.26,-2.38 4.61,-3.54 7.06,-3.48 2.44,0.06 5.33,1.04 8.69,2.92 4.61,2.5 9.85,3.75 15.69,3.75 4.52,0 7.68,-0.54 9.47,-1.64 1.81,-1.16 2.71,-3.28 2.71,-6.37 0,-1.31 -0.44,-2.47 -1.37,-3.48 -0.89,-1.04 -2.74,-2 -5.54,-2.86 -2.77,-0.89 -6.96,-1.88 -12.59,-2.95 -8.69,-1.67 -15.39,-4.53 -20.1,-8.55 -4.67,-4.08 -7.03,-10.15 -7.03,-18.25 0,-5.39 1.43,-10.06 4.26,-14.02 2.86,-3.99 6.76,-7.09 11.7,-9.29 4.94,-2.23 10.51,-3.33 16.7,-3.33 8.46,0 16.08,1.55 22.84,4.68 3.6,1.76 5.66,4.05 6.16,6.82 0.57,2.71 -0.18,5.39 -2.23,8.01 -2,2.62 -4.23,3.96 -6.67,4.02 -2.44,0.06 -5.39,-0.57 -8.84,-1.87 -1.79,-0.69 -3.57,-1.19 -5.36,-1.49 -1.78,-0.33 -3.63,-0.48 -5.54,-0.48 -3.93,0 -6.61,0.63 -8.04,1.88 -1.43,1.25 -2.15,2.71 -2.15,4.35 0,1.19 0.36,2.26 1.04,3.25 0.74,0.95 2.29,1.87 4.67,2.8 2.38,0.87 6.07,1.91 11.08,3.1 9.89,2.26 17.36,5.69 22.42,10.27 5.06,4.61 7.59,10.72 7.59,18.34 0,8.9 -3.43,15.57 -10.3,20.01 -6.82,4.38 -15.54,6.58 -26.17,6.58zm64.37 0.18c-4.08,0 -7.5,-1.4 -10.3,-4.2 -2.8,-2.77 -4.2,-6.17 -4.2,-10.13 0,-4.02 1.4,-7.44 4.2,-10.24 2.8,-2.77 6.22,-4.17 10.3,-4.17 3.9,0 7.3,1.4 10.15,4.17 2.83,2.8 4.26,6.22 4.26,10.24 0,3.96 -1.43,7.35 -4.26,10.13 -2.86,2.8 -6.25,4.2 -10.15,4.2z"/>
  <rect class="fil4" x="3.52" y="3.52" width="4992.97" height="4992.97"/>
 </g>
</svg>
