<?xml version="1.0" encoding="UTF-8"?>
<!DOCTYPE svg PUBLIC "-//W3C//DTD SVG 1.1//EN" "http://www.w3.org/Graphics/SVG/1.1/DTD/svg11.dtd">
<!-- Creator: CorelDRAW (Evaluation Version) -->
<svg xmlns="http://www.w3.org/2000/svg" xml:space="preserve" version="1.1" style="shape-rendering:geometricPrecision; text-rendering:geometricPrecision; image-rendering:optimizeQuality; fill-rule:evenodd; clip-rule:evenodd"
viewBox="160 2093 4703 814"
 xmlns:xlink="http://www.w3.org/1999/xlink"
 xmlns:xodm="http://www.corel.com/coreldraw/odm/2003">
 <defs>
  <style type="text/css">
   <![CDATA[
    .fil4 {fill:none}
    .fil7 {fill:#2D2A2B}
    .fil0 {fill:#1E1816}
    .fil2 {fill:#DA5B4A}
    .fil1 {fill:#DA5B4A}
    .fil3 {fill:#2D2A2B;fill-rule:nonzero}
    .fil5 {fill:#2D2A2B;fill-rule:nonzero}
    .fil6 {fill:#DA5B4A;fill-rule:nonzero}
   ]]>
  </style>
 </defs>
 <g id="Layer_x0020_1">
  <metadata id="CorelCorpID_0Corel-Layer"/>
  <g id="_931375984">
   <path class="fil0" d="M470.67 2757.76c-15.41,12.96 -27.34,-10.41 -18.37,-29.09 17.11,-35.65 68.11,-25.29 71.89,4.82 2.59,20.59 -16.13,26.44 -20.72,20.01 -2.49,-3.49 -0.94,-7.5 -5.85,-9.57 2.02,10.16 -0.28,18.59 -11.28,18.71 -11,0.12 -12.57,-7.82 -11.04,-17.41 -3.85,0.77 -4.49,7.56 -4.63,12.54zm-167.86 -16.06c-3.84,1.54 -3.48,6.81 -5.93,9.1 -3.16,2.96 -9.48,0.85 -12.06,-1.13 -16.38,-12.6 0.07,-51.08 37.05,-43.46 15.42,3.18 28.28,15.56 29.84,32.27 2.26,24.09 -19.52,25.18 -22.09,17.66 -1.29,-3.75 0.39,-7.9 -3.69,-11.44l-0.48 7.38c-0.9,7.42 -8.35,9.64 -14.26,8.22 -12.86,-3.09 -8.35,-15.33 -8.38,-18.6zm-27.88 -22.85c-1,5.47 -7.65,16.54 -1.01,29.59 3.81,7.5 12.45,13.98 23.48,9.89 0.51,0.48 0.39,0.32 1.08,1.18 0.51,0.63 0.86,1.18 1.23,1.67 2.22,2.91 6.11,5.37 10.23,6.2 7.48,1.51 12.65,-1.07 16.7,-3.79 18.38,9.32 17.62,-0.26 24.02,0.72 1.49,0.23 6.02,2.07 8.14,2.67 11.69,3.3 23.02,6.2 35.58,7.84 13.67,1.79 27.27,2.54 41.28,1.76 8.43,-0.47 30.72,-2.91 36.94,-5.99 -2.05,-2.16 -1.72,-0.68 -2.89,-3.92 9.12,-3.48 3.78,3.84 17.36,3.22 7.27,-0.33 12.51,-4.09 14.49,-8.33 8.19,1.53 9.02,3.36 17.29,-0.59 8.88,-4.24 3.29,-5.36 11.8,-9.56 2.1,-1.04 4.26,-2.51 6.36,-3.62 6.28,-3.31 13.68,-8.62 19.22,-12.87l22.84 -19.24 20.09 -21.98c24.69,-31.18 43.5,-68.75 49.87,-119.56 -5.74,0.28 -6.29,-0.08 -11.22,-0.81 -4.13,29.12 -10.51,51.63 -22.42,74.54 -8.18,15.74 -17.67,30.83 -29.26,43.5 -3.2,3.5 -8.97,10.79 -12.14,12.94 3.83,-13 7.41,-24.62 7.66,-39.61l-4.52 11.24c-4.09,12.07 -7.62,21.57 -13.31,33.06 -6.5,13.1 -4.75,9.17 -13.94,16.72 -3.55,2.92 -14.72,11.22 -18.13,11.69 -1.03,-18.64 -11.13,-28.87 -25.52,-35.11 -6.24,-2.71 -10.35,-2.31 -16.76,-3.81 -1.17,-13.3 -5.19,-25.17 -9.98,-35.75 -3.09,-6.82 -12.75,-25.15 -17.1,-28.04 0.17,3.87 18.46,38.24 16.9,64.61 -4.95,2.89 -8.67,1.25 -18.69,8.44 -10.89,7.81 -18.9,21.49 -18.61,35.78 0.21,10.46 3.13,13.92 7.13,19.95 -14.16,6.02 -75.74,-0.89 -92.26,-9.29 3.07,-11.68 3.74,-18.8 -1.5,-30.16 -10.68,-23.13 -39.51,-32.93 -62.55,-21.5 -5.48,2.72 -7.31,5.17 -11.17,7.93 -5.55,-4 -12.85,-11.21 -17.18,-16.71 -5.7,-7.25 -9.01,-9.4 -15.36,-18.87 -12.1,-18.04 -15.81,-23.57 -25.2,-44 -27.96,-60.81 -16.09,-115.68 -16.88,-117.69 -2.08,-2.28 -3.12,-2.52 -4.91,-4.52 -1.79,-1.98 -2.01,-3.13 -4.57,-4.65 -7.59,48.3 -2.5,86.58 14.73,127.85 6.48,15.52 10.72,22.93 19.12,36.48 3.76,6.07 11.11,17.03 15.69,22.11 9.01,10.01 16.45,21.26 27.89,28.4z"/>
   <path class="fil0" d="M366.57 2652.74c3.12,-3.27 3.2,-24.52 3.13,-30.32 3.09,0.94 9.19,12.04 28.45,12.69 0.97,12.98 2.34,27.65 -2.49,39.05 -11,25.93 -43.45,23.08 -54.62,3.57 -8.41,-14.68 -4.97,-27.68 -7.73,-36.11 10.23,-4.4 19.4,-6.49 26.54,-18.07l1.48 4.13c0.83,5.95 2.33,21.49 5.24,25.05zm-27.69 -70.41c1.44,-3.09 0.82,-5.81 3.96,-7.34 6.61,-3.21 12,4.85 7.37,10.23 -2.64,3.07 -4.94,1.66 -8.02,3.44 -1.35,5.04 10.61,9.36 17.6,10.49 2.97,21.7 -32.39,52.53 -65.93,23.11 -3.16,-2.77 -6.22,-7.32 -7.87,-8.6 -2.78,6.92 8.57,18.93 16.91,23.76 6.41,3.72 9.23,3.24 16.33,5.07 6.3,1.63 6.54,7.46 7.2,14.39 2.31,24.47 15.55,44.24 40.84,44.39 25.32,0.15 39.54,-19.78 40.14,-44.76 0.14,-5.9 -1.84,-15.81 1.07,-20.11 2.43,-3.59 28.57,-7.9 29.78,-35.26 -2.37,1.75 -3.85,5.98 -6.31,9.53 -5.91,8.54 -18.52,16.53 -30.44,16.67 -17.78,0.21 -33.35,-12.79 -33.74,-28.78 4.46,-0.68 7.3,-1.95 10.78,-4.21 7.63,-4.98 5.78,-8.6 5.32,-7.78 -0.02,0.03 -6.25,-1 -7.67,-2.44 -4.6,-4.63 -0.35,-13.67 6.85,-11.12 3.53,1.25 2.24,4.47 4.35,6.89 4.56,-0.01 8.48,-6.45 9.83,-11.04 11.22,-38.25 -83.17,-34 -69.7,2.57 1.74,4.73 5.79,11.02 11.35,10.91z"/>
   <path class="fil0" d="M1695.8 2474.3c47.14,-7.9 55.4,52.56 34.63,77.66 -11.82,14.28 -34.79,17.41 -34.93,-11.16 -0.1,-21.06 -1.11,-45.84 0.3,-66.5zm-49.27 -45.36c-9.36,-1.8 -8.82,2.73 -14.9,0.75 -4.33,-1.41 -7.22,-6.6 -7.79,-12.92 -2.54,-28.22 38.94,-48.88 73.17,-44.9 25.42,2.96 35.46,18.45 34.48,44.91 -0.83,22.31 -10.79,47.06 -35.83,42.61 -0.53,-14.91 1.94,-63.78 -1.49,-73.2 -8.31,-2.42 -14.72,2.14 -21.96,5.06 -6.72,2.7 -16.12,4.48 -21.32,7.52 -0.31,11.33 6.23,3.1 8.55,16.02 1.28,7.08 0.51,104.91 0.5,119.65 -0,7.3 -0.31,15.29 -3.78,20.41 -4.44,6.57 -13.78,5.21 -10.39,12.37 2.39,2.74 1.04,2.38 6.33,2.6 7.73,0.32 15.07,-3.64 26.17,-0.94 10.03,2.44 15.79,7.07 28.4,8.34 83.79,8.48 89.71,-99.84 28.66,-112.15 0.22,-0.26 0.58,-0.98 0.7,-0.75 0.12,0.23 0.54,-0.57 0.7,-0.72 2.19,-1.93 0.11,-0.31 2.22,-1.83 10.71,-7.65 17.64,-12.06 23.65,-28.12 6.32,-16.88 4.14,-34.02 -3.62,-47.87 -13.3,-23.75 -50.33,-33.33 -87.44,-27.92 -32.8,4.79 -59.15,21.37 -65.04,51.17 -3.52,17.79 3.33,34.55 14.27,41.61 16.15,10.43 37.53,-3.12 25.74,-21.71z"/>
   <path class="fil0" d="M1937.57 2533.17c-4.31,31.51 -20.81,25.72 -21.44,5.11 -0.58,-18.93 -0.09,-39.23 0.04,-58.27 0.17,-24.86 17.65,-28.46 21.15,-2.6 2.19,16.16 2.46,39.58 0.25,55.76zm-59.17 -130.35c3.99,13.94 7.04,-10.43 7.11,36.7 0.03,24.99 -1.71,118.03 0.6,129.24 8.23,1.83 12.35,-6.08 15.6,-11.02 7.57,2.73 23.57,24.8 49.46,4.91 11.23,-8.62 17.38,-28.52 19,-47.54 1.94,-22.85 -1.98,-64.74 -27.3,-71.46 -5.07,-1.35 -10.64,-1.47 -15.43,0.37 -2.24,0.86 -3.66,2.12 -5.31,3.44 -3.39,2.72 -1.96,2.12 -5.94,4 0.3,-59.29 6.59,-68.32 -18.98,-57.95 -6.25,2.54 -15.76,3.94 -18.81,9.3z"/>
   <path class="fil0" d="M2033.12 2530.63c-0.9,7.49 -2.79,18.65 -7.11,22.09 -21.61,17.18 -14.63,-56.14 -14.61,-70.18 0.04,-30.63 17.15,-27.24 20.73,-8.2 2.98,15.86 2.89,40.56 0.99,56.29zm-59.76 -129.72c1.3,17.78 7.42,-12.31 7.37,36.07 -0.02,18.51 -0.93,122.37 0.4,131.65 8.91,1.64 13.33,-5.79 15.94,-10.65 6.72,1.78 23.78,24.66 49.16,4.79 4.44,-3.48 10.56,-12.96 13.41,-20.71 8.94,-24.31 8.58,-66.47 -4.65,-85.24 -11.92,-16.89 -27.36,-19.61 -43.32,-4.96 -4.1,-45.53 11.86,-70.52 -18.67,-58.75 -6,2.31 -15.72,4.84 -19.64,7.8z"/>
   <path class="fil0" d="M500.63 2626.09c15.87,0.09 12.09,-2.31 19.15,-3.96 -1.45,5.91 -3.15,12.44 -3.21,19.15 3.21,-1.59 7.96,-13.66 10.64,-17.24 6.19,10.62 3.67,6.84 14,14.63 -0.73,2.42 -2.75,7.66 -3.98,10.96 -8.27,22.17 -37.79,20.54 -41.08,0.17 -1.16,-7.19 1.84,-17.42 4.48,-23.71zm13.05 -35.62c5.8,-1.3 0.94,-6.2 9.35,-4.08 3.91,6.74 0.24,8.61 -6.74,8.69 0.36,5.44 4.37,8.62 8.79,9.84 -3.23,15.88 -32.49,23.24 -43.35,-0.8l-2.06 -5.74c-0.94,-1.93 -0.08,-0.65 -1.22,-1.75 -1.09,6.76 0.43,13.03 3.51,17.94 4.82,7.71 10.44,8.17 11.4,10.55 1.88,4.66 -10.43,21.26 1.43,37.22 5.84,7.87 21.02,13.14 33.54,6.87 16.2,-8.11 14.81,-23.8 19.37,-27.02 1.72,-1.22 13.19,-0.78 19.13,-3.68 3.9,-1.9 10.4,-7.39 10.99,-12.55 -1.68,0.88 -4.28,2.78 -6.09,3.91 -2.45,1.54 -3.98,2.41 -7.12,3.55 -14.56,5.24 -34.94,-1.46 -33.52,-26.44 5.86,0.22 12.98,-0.1 14.36,-4.91 -4.39,-2.19 -7.14,-1.84 -5.08,-8.63 1.63,-0.79 3.58,-1.91 5.89,-0.44 1.53,0.97 1.55,2.32 2.31,4.25l0.56 1.27c6.73,-0.98 11.53,-10.19 7.2,-17.71 -9.59,-16.67 -58.5,-18.87 -42.65,9.66z"/>
   <path class="fil0" d="M1837.77 2554.56c2.58,3.15 2.65,8.03 5.66,11.34 6.19,6.8 17.65,3.35 25.2,-1.04 5.95,-3.45 7.76,-2.95 7.72,-10.66 -5.3,-1.59 -7.06,0.33 -8.65,-6.17 -0.94,-3.83 -0.67,-10.74 -0.67,-14.86 0.04,-16.17 2.85,-84.28 -2.69,-88.09 -7.61,-2.11 -28.41,6.01 -33.98,8.96 0.3,8.81 2.21,4.03 5.35,9.45 2.61,4.52 1.37,37.94 1.36,44.37 -0.03,18.72 5.14,45.69 -17.35,41.1 -6.49,-12.92 -3.28,-62.4 -3.24,-81.59 0.03,-16.55 2.62,-28.83 -17.61,-20.32 -4.52,1.9 -11.54,3.93 -15.73,5.91 -10.22,4.84 0.43,8.07 2.25,12.67 8.35,21.17 -15.44,100.93 25.01,104.22 14.94,1.22 22.54,-7.89 27.37,-15.28z"/>
   <path class="fil0" d="M2227.97 2560.48c19.66,0.59 15.16,-27.35 -2.69,-29.32 -17.6,-1.95 -27.86,11.66 -28.75,28.71 -1.89,36.18 42.31,52.97 69.19,32.54 32.9,-25.01 21.44,-75.24 -11.16,-97.19 -41.66,-28.04 -21.37,-50.61 -6.05,-42.09 10.56,5.87 -4.48,11.42 2.91,21.11 5,6.57 15.32,4.92 19.82,-0.3 6.75,-7.81 5.3,-27.79 -17.47,-33.63 -36.57,-9.39 -64.13,25.03 -39.15,58.08 12.02,15.9 54.55,35.58 41.19,71.59 -5.17,13.92 -22.4,24.83 -36.68,11.24 -12.98,-12.35 -6.8,-27.63 1.22,-27.48 5.27,0.1 4.52,3.3 7.62,6.74z"/>
   <path class="fil0" d="M279.13 2452.5c-27.76,-1.71 -32.05,32.51 -46.94,46.81 -19.89,19.11 -37.93,-28.3 -42.37,-41.8 -4.98,-15.14 -4.34,-27.6 13.41,-28.57 20,-1.09 35.87,3.6 56.36,-13.45 15.39,-12.81 22.81,-15.11 40.87,-3.78 2.63,1.65 4.58,3.81 6.83,5.04 0.37,-6.85 -6.35,-13.53 -10.1,-16.03 -22.44,-14.94 -41.43,10.07 -54.32,15.9 -18.18,8.23 -31.46,1.17 -47.35,5.34 -24.79,6.51 -14.74,37.13 -6.45,54.82 6.69,14.27 20.69,43.56 41.35,33.59 20.74,-10 21.53,-41.04 44.5,-54.6 2.39,-1.41 3.11,-1.17 4.21,-3.27z"/>
   <path class="fil0" d="M617.65 2476.11c8.35,2.1 13.95,8.61 18.23,13.04 18.28,18.93 38.35,9.16 41.29,21.4 2.17,9.04 -10.03,30.59 -15.96,38.41 -5.27,6.95 -13.72,18.53 -23.3,9.49 -8.87,-8.37 -14.96,-29.62 -20.58,-42.64 -2.35,-3.64 -5.49,-9.98 -8.67,-10.86 0.6,3.8 3.38,10.99 4.76,15.25 4.5,13.89 9.75,34.56 19.74,43.69 18.81,17.21 37.69,-14.99 44.65,-29.69 4.47,-9.44 10.91,-23.37 2.28,-32.2 -7.14,-7.31 -16.56,-3.72 -30.82,-11.27 -8.32,-4.4 -12.98,-13.13 -23.26,-18.78 -16.52,-9.09 -27.32,3.75 -30.63,5.55 -9.78,-13.27 -25.24,-4.56 -35.15,-19.65 -0.63,-0.96 -0.78,-1.17 -1.39,-2.15 -0.27,-0.44 -0.53,-0.89 -0.85,-1.38 -0.6,-0.9 -0.56,-0.86 -1.01,-1.39 -0.76,0.71 -0.38,0.19 -1.13,1.3 -0.07,0.1 -0.81,1.42 -0.82,1.43 -1.54,3.24 -1.74,7.24 -1.98,10.82l-10.77 -11.32c-2.02,-1.65 -0.33,-0.64 -2.7,-1.61l1.91 9.33c-6,-2.17 -8.96,-4.97 -16.58,-4.96 -5.72,0.01 -13.93,2.69 -14.54,6.28 5.9,-0.78 9.56,-2.2 16.32,-0.76 5.24,1.11 10.36,2.95 13.2,6.12 4.6,-1.52 -4.11,1.9 1.42,-0.73 0.61,-0.29 0.33,-0.36 1.87,-0.83l2.85 2.17 -0.63 -5.83 7.13 5.6c2.67,1.42 1.79,2.18 3.8,-8.74 4.31,5.74 4.3,10.59 18.9,13.61 16.11,3.34 13.46,5.25 21.7,11.2 1.57,-2.11 0.24,-0.8 1.09,-2.48 2.95,-5.83 13.47,-7.98 19.66,-7.42z"/>
   <path class="fil0" d="M2146.56 2502.98c-0.16,-11.91 0.82,-23.81 3.91,-34.74 2.24,-7.94 11.07,-21.72 18.47,-11.46 3.52,4.89 10.53,41.43 -22.38,46.2zm47.24 29.62c-9.2,0.78 -2.11,3.27 -12.66,11.95 -18.44,15.17 -37.03,-9.95 -33.49,-30.9 17.4,-1.13 31.94,-4.33 40.52,-13.96 21.65,-24.26 1.3,-67.47 -36.49,-56.65 -43.21,12.37 -43,89.84 -18.72,115.52 31.09,32.86 71.52,-11.76 60.83,-25.96z"/>
   <path class="fil0" d="M236.6 2523.49l12.05 -1.51c-2.82,5.28 -9.11,16.8 -9.02,23.86l12.4 -3.86c-2.06,6.89 -3.84,11 -3.29,19 0.3,4.36 1.52,5.64 2.13,8.81 0.59,3.05 -1.34,4.84 -2.63,7.64 -4.45,9.6 -6.45,21.07 -4.97,31.83 0.03,0.24 0.43,2.28 0.46,2.37l0.7 1.61c0.06,0.13 0.17,0.35 0.29,0.51 0.99,-0.22 7.17,-11.54 12.26,-13.72 -2.63,12.52 -4.17,20.41 3.79,33.15 1.65,2.64 0.78,2.4 3.48,3.51 1.3,-4.01 2.87,-7.84 4.87,-11.31 3.06,5.37 7.01,11.92 15.36,11.36 -1.07,-2.27 -2.07,-2.61 -3.83,-4.85 -7.05,-8.98 -5.78,-17.81 -7.68,-19.51 -2.15,-1.04 -7.57,6.86 -8.85,10.09l-1.77 -4.41c-0.74,-5.11 -0.26,-10.7 0.96,-15.6 2.53,-10.17 6.07,-13.22 6.8,-16.37 -3.52,0.24 -7.78,2.07 -10.84,3.75 -3.72,2.05 -5.93,5.22 -8.88,6.84 1.41,-13.03 8.38,-26.69 17.36,-34.73l7.22 -5.56c3.09,-2.11 1.38,-0.09 2.74,-2.84 -14.88,-0.19 -17.41,5.59 -21.67,7.52 -0.41,-6.42 0.26,-10.85 2.31,-16.35 1.32,-3.55 5.73,-10.6 5.89,-11.94 -4.8,-0.44 -10.22,2.34 -14.47,3.06 3.07,-9.19 9.75,-19.19 11.08,-23.28l-10.31 2.44c0.91,-2.81 2.74,-5.93 3.91,-9.12l2.08 -7.85c-0.03,-3.41 0.33,-1.36 -0.87,-2.91l-9.27 14.1c-1.69,2.22 -3.15,4.58 -4.63,6.79 -1.71,2.57 -4.3,4.6 -5.16,7.47z"/>
   <path class="fil0" d="M2068.62 2401.3c0.61,9.94 6.5,3.34 7.63,15.38l-0.57 136.36c-2.51,11.41 -10.28,5.71 -6.68,15.16 5.89,2.09 40.3,2.48 45.33,-0.53 4.24,-8.51 -6.92,-3.69 -7.64,-19.32l0.06 -88.58c-0.01,-19.77 0.32,-39.85 0.06,-59.57 -0.18,-13.57 -6.67,-12.19 -17.05,-7.76 -6.48,2.76 -17.04,5.12 -21.14,8.86z"/>
   <path class="fil0" d="M418.69 2407.72l0.47 1.34c4.87,-2.72 14.9,-13.91 27.37,-6.52 8.43,4.99 12.95,10.59 24.61,13.78 21.01,5.75 45.44,-4.91 28.31,37.24 -8.39,20.65 -18.33,43.82 -35.95,21.86 -9.3,-11.58 -20.79,-39.72 -31.41,-45.69 0.58,4.13 4.72,11.66 6.44,15.78l7.31 15.57c5.53,7.48 3.67,8.93 15.06,22.65 5.28,6.35 16.28,12.3 26,4.33 7.11,-5.83 10.71,-12.56 15.41,-22.4 7.01,-14.7 20.07,-46.99 -3.48,-52.67 -11.68,-2.81 -19.74,-0.32 -31.93,-5.82 -8.39,-3.79 -15.26,-11.93 -24.18,-13.63 -12.23,-2.31 -22.13,4.61 -24.03,14.19z"/>
   <path class="fil0" d="M439.5 2527.7c-1.53,0.02 -2.42,0.01 -3.89,0.29l-3.58 1.58c3.9,1.93 8.52,2.57 12.96,5.02 10.99,6.06 21.92,17.63 24.41,31.37 -6.68,-2.93 -10.63,-6.23 -20.23,-5.63 1.79,6.3 13.28,9.67 12.89,38.49 -3.2,-1.59 -5.39,-6.85 -11.88,-8.57 1.61,23.23 -5.57,24.47 -5.72,30.3 10.16,-3.96 10.29,-10.64 12.7,-16.69 3.14,3.08 3.7,6.72 6.42,9.94 2.12,-1.8 3.32,-6.28 4.15,-9.54 0.93,-3.66 1.39,-8.04 1.34,-11.98 -0.11,-9.65 -2.59,-13.93 -5.37,-21.44 9.4,2.9 12.03,10.56 13.22,9.04 4.16,-5.27 -2.69,-28.26 -12.41,-38.44 -9.91,-10.39 -3.97,-4.77 -6.61,-14.72 -0.68,-2.57 -2.06,-5.25 -2.66,-7.65l8.48 2.86c-0.86,-7.42 -5.75,-13.17 -7.96,-18.85l9.04 0.65c-0.18,-1.97 -13.67,-19.45 -16.36,-24.94l-0.54 -0.56c-1.37,1.1 -0.89,-0.82 -0.9,2.78 0,0.23 0.38,2.23 0.46,2.58 1.22,5.14 2.94,8.52 5.15,12.9l-8.06 -1.32 8.38 17.27c-2.57,-0.64 -6.2,-1.61 -8.62,-0.73 2.43,5.56 6.83,10.9 7.26,18.5 -3.63,-1.19 -7.52,-2.55 -12.06,-2.54z"/>
   <path class="fil0" d="M1563.56 2514.44c3.68,3.35 7.45,11.67 11.11,16.47 4.66,6.11 8.21,10.83 11.72,17.44 -27.64,21.3 -41.28,-20.92 -22.83,-33.92zm10.59 -18.56c-2.83,-4.32 -6.31,-10.54 -6.59,-17.28 -0.26,-6.44 3.12,-13.14 9.23,-11.67 6.34,1.53 13.85,14.68 -2.64,28.95zm-15.79 9.56c-8.53,4.84 -14.5,9.34 -18.82,18.94 -12.26,27.29 13.58,55.88 42.21,40.89 7.48,-3.92 4.9,-6.46 12.68,-8.63 11.89,22.79 31.29,8.76 30.83,-2.99 -8.86,-1.97 -9.23,1.37 -20.39,-12.89 1.01,-4.86 7.87,-25.7 12.35,-28.7 2.86,-1.92 7.27,-2.46 3.95,-5.93 -1.92,-2.08 2.4,-0.92 -4.43,-1.78l-20.43 0.6c-0.11,12.15 10.99,0.8 4.95,20.26l-3.84 6.71c-4.05,-7.1 -15.72,-20.92 -17.92,-28.54 7.62,-3.48 17.41,-11.17 18.26,-23.44 0.85,-12.4 -7.88,-21.39 -19.17,-22.47 -13.48,-1.29 -22.83,5.61 -25.92,15.5 -4.55,14.57 2.41,21.71 5.69,32.47z"/>
   <path class="fil0" d="M1104.71 2665.85c-10.37,2.42 -10.25,4.98 -15.44,13.14 -4.97,7.81 -11.26,4.59 -12.65,16.42 -3.12,26.5 26.27,9.46 37.07,11.75 8.23,1.75 14.64,7.34 22.75,1.28 14.34,-10.7 -4.24,-25.06 -6.39,-27.81 -3.84,-4.92 -8.95,-18.61 -25.34,-14.78z"/>
   <path class="fil0" d="M2028.57 2665.82c-10.82,2.45 -10.49,4.63 -15.61,13.05 -4.8,7.89 -10.96,5.73 -12.58,16.53 -3.93,26.28 27.22,10.11 36.07,11.59 7.74,1.3 14.38,7.59 22.65,1.58 5.35,-3.89 7.22,-13.32 1.84,-19.72 -6.1,-7.26 -2.63,-0.15 -13.53,-15.6 -3.84,-5.44 -10.35,-9.35 -18.84,-7.43z"/>
   <path class="fil0" d="M320.32 2497.44c-1.3,1.41 -1.24,3.59 -3.14,4.86 -5.5,3.68 -11.32,-4.59 -5.23,-8.8l2.64 -1.83c-18.21,-6.69 -25.73,13.99 -15.68,23.53 4.61,4.37 12.8,5.42 18.18,0.53 5.99,-5.45 6.02,-9.76 3.23,-18.3z"/>
   <g>
    <path class="fil1" d="M1072.53 2376.25c-56.51,-0.13 -161.95,-46.91 -198.33,7.94 -34.63,52.22 19.85,102.61 67.17,82.5 30.8,-13.08 20.96,-54.27 -3.96,-47.22 -0.94,2.73 0.06,6.71 0.07,8.69 0.13,17.56 -35.83,22 -44.8,-3.61 -9.4,-26.87 18.32,-42.34 43.16,-42.35 23.7,-0.01 37.29,5.74 58.32,9.3l0.18 140.41c0.1,33.7 -14.61,23.28 -17.04,34.17 4.02,5.11 6.52,3.28 14.22,3.28l60.02 -0.08c10.37,-13.42 -14.07,-0.56 -14.06,-34.84l-0.14 -132.96c19.19,0.98 65.2,12.5 84.72,-17.52 4.69,-7.2 9.19,-20.24 5.14,-29.29 -12.48,-0.39 -10.83,21.69 -54.69,21.59z"/>
    <path class="fil1" d="M1250.29 2567.96c4.81,2.43 48.32,2.39 53.18,-0.02 3.08,-9.59 -8.07,-4.44 -8.64,-22.06 -0.33,-10.35 -0,-21.29 -0,-31.71 0,-16.19 -5.07,-50.22 12.12,-52.82 16.84,-2.54 12.01,29.02 12.1,50.29 0.04,10.57 0,21.12 0.06,31.69 0.12,19.39 -8.23,13.28 -9.3,22.72 4.4,5.36 15.31,3.13 24.69,3.19 7.49,0.05 23.34,1.31 28.34,-1.44 2.62,-8.43 -4.26,-4.57 -7.45,-13.73 -2.26,-6.46 -1.16,-58.65 -1.18,-67.75 -0.02,-7.3 -0.33,-15 3.43,-19.95 2.52,-3.31 9.72,-6.93 15.45,-3.46 20.49,12.37 -22.39,119.55 40.09,142.22 9.37,3.4 34.31,6.85 36.27,-4.81 -10.93,-4.43 -30.5,1.21 -36.9,-32.33 -7.69,-40.33 14.77,-108.64 -12.35,-125.86 -13.72,-8.72 -34.96,-1.47 -43.87,10.21 -1.09,1.44 -0.6,1.03 -1.68,2.27l-3.17 3.04c-4.96,-18.27 -29.43,-30.17 -52.61,-5.7l-4.2 3.63c0.09,-9.15 1.19,-17.73 -9.35,-17.34 -4.66,0.17 -15.04,5.22 -19.77,7.02 -5.27,2 -17.22,4.25 -15.58,10.22 1.65,5.99 9.15,1.05 9.49,16.86l-0.48 79.13c-2.35,12.15 -11.53,6.88 -8.7,16.48z"/>
    <path class="fil1" d="M1457.48 2434.08c-34.74,8.81 -38.82,46.1 -8.47,69.38 11.99,9.2 22.45,15.81 30.4,27.73 14.48,21.72 -2.72,54.88 -27.66,44.07 -12.69,-5.5 -16.34,-21.63 -8.19,-26.78 6.47,-4.09 6.85,0.77 9.83,2.6 8.19,5.03 13.46,-6.31 10.97,-14.82 -4.64,-15.89 -29.71,-13.39 -36.26,-1.87 -18.39,32.31 11.76,64.53 49.65,56.06 35.83,-8.02 46.73,-44.65 32.09,-73.2 -15.16,-29.56 -59.31,-38.2 -51.62,-62.87 2,-6.41 10.89,-10.96 18.91,-6.81 10.38,5.37 -4.13,11 3.35,20.58 10.13,12.96 32.78,-1.82 21.74,-21.69 -6.28,-11.29 -26.9,-16.91 -44.74,-12.38z"/>
    <path class="fil1" d="M1078.85 2451.78c-0.19,13.87 10.9,-0.74 10.81,24.43 -0.04,11.39 -0.08,22.78 -0.08,34.18 0,11.33 2.24,40.52 -3.63,47.63 -3.81,4.61 -8.78,1.99 -6.48,9.96 5.09,2.6 37.07,1.39 47.56,1.41 6.87,0.01 8.98,0.89 10.61,-4.59 -4,-8.36 -11.47,-1.09 -11.71,-22.72 -0.16,-14.68 -1.65,-59.24 2.61,-70.7 4.79,-12.89 16.24,-18.68 19.73,-10.99 0.02,0.04 -13.17,22.22 7.89,24.68 14.1,1.65 22,-11.17 20.7,-25.36 -1.17,-12.72 -11.09,-22.04 -24.61,-21.7 -18.82,0.47 -23.4,15.44 -27.54,19.07l-0.5 -17.07c-9.94,-4.24 -14.85,-0.25 -23.78,3.38 -6.65,2.71 -16.5,4.93 -21.57,8.38z"/>
    <path class="fil1" d="M1184.63 2451.27c0.33,16.03 10.44,-2.15 10.47,24.91l-0.02 68.46c-0.44,15.81 -18.09,20.52 -7.84,24.11l48.52 0.61c15.91,-1.39 -1.12,-10 -3.09,-15.41 -2.68,-7.35 -1.28,-64.87 -1.26,-75.2 0.04,-25.11 3.99,-41.72 -9.33,-40.42 -2.61,0.26 -35.6,11.97 -37.44,12.94z"/>
    <path class="fil1" d="M1206.33 2376.83c-10.49,3.57 -19.43,15.76 -14.47,30.51 3.24,9.64 16.46,18.36 29.98,13.22 26.34,-10.02 13.88,-53.74 -15.5,-43.73z"/>
   </g>
   <path class="fil0" d="M472.94 2512.4c1.9,4.09 3.57,6.31 7.98,8.24 -2.99,3.82 -7.65,6.36 -9.68,11.29l6.51 1.44c-5.96,7.68 -5.4,7.71 -2.89,12.47 2.3,-2.13 3.05,-6.54 7.16,-10.63 1.38,-1.38 2.24,-1.7 3.09,-3.5l-6.46 -2.07c2.5,-4.29 9.01,-6.79 10.49,-10l-8.69 -5.22c8.18,-1.65 15.49,-9.14 19.52,-14.04 4.95,-6.02 4.21,-7.02 11.28,-14.38 3.26,-3.4 3.11,-2.48 3.74,-4.85 -17.9,2.98 -15.81,21.28 -42.06,31.26z"/>
   <path class="fil0" d="M316.28 2416.63c1.83,-0.39 4.87,-2.07 7.19,-2.86 3.08,-1.04 5.84,-1.68 9.44,-2.09 7.27,-0.85 13.04,-0.47 19.79,-2.9 10.64,-3.83 19.94,-12.44 19.89,-26.17l-2.86 2.54c-17.59,22.14 -28.67,14.65 -42.5,20.24 -4.93,1.99 -10.3,5.96 -10.94,11.25z"/>
   <path class="fil0" d="M387.84 2411.63c18.64,-1.86 20.88,1.41 24.48,1.37 2.37,-0.02 0.67,0.07 1.5,-0.28l-1.29 -3.92c-5.17,-3.41 -10.44,-4.92 -18.75,-4.22 2.09,-3.71 5.86,-4.13 6.8,-7.64 -3.72,-1.64 -11.63,1.07 -15.22,1.85l4.03 -9.52c-6.19,0.89 -20.33,15.17 -21.13,20.22 4.8,-0.34 14.52,-5.5 20.68,-7 -1.96,3.88 -5.94,5.21 -8.08,10.3l6.98 -1.15z"/>
   <path class="fil0" d="M387.44 2487.41c7.74,-0.2 9.69,-6.54 22.25,-1.69 5.24,2.02 5.34,3.83 8.61,5.81 4.34,2.61 2.28,-6.05 1.25,-8.56 -6.39,-15.44 -29.33,-11.41 -32.11,4.44z"/>
   <path class="fil0" d="M528.63 2536.72c-3.61,-1.36 1.07,0.06 -2.99,2.16 -1.9,0.98 -3.39,0.16 -4.7,-0.33 -1.62,-5.53 -0.75,-5.67 3.77,-7.56 -0.71,-1.01 -0.32,-1.02 -2.22,-1.91 -3.38,-1.58 -8.1,-0.33 -10.6,1.76 -3.49,2.92 -4.89,9.54 -2.11,14.52 5.76,10.32 22.28,3.28 18.86,-8.65z"/>
   <path class="fil0" d="M569.57 2551.86c5.39,0.07 9.76,0.78 13.57,3.13 3.99,2.46 3.46,3.61 5.63,7.23 1.54,2.57 -0.28,1.34 2.41,2.46 3.16,-1.72 4.33,-6.7 3.67,-11.55 -2.16,-15.94 -25.56,-11.19 -25.28,-1.27z"/>
   <path class="fil0" d="M2106.64 2673.79c5.58,2.85 55.2,1.43 69.44,1.43 7.36,-0 18.58,1.35 23.88,-1.6 -0.46,-7.64 -4.91,-5.16 -26.41,-5.14l-59.48 0.02c-5.54,0 -7.37,-0.32 -7.43,5.3z"/>
   <path class="fil0" d="M944.56 2674.01c6.53,2.64 62.6,1.14 81.14,1.19 7,0.01 9.62,1.6 11.29,-4.09 -3.65,-4.62 -16.71,-2.63 -22.68,-2.61l-58.21 0.03c-7.68,0 -11.46,-2 -11.54,5.49z"/>
   <path class="fil0" d="M2011.96 2624.39c-6.69,4.8 -7.16,12.73 -5,20.89 1.78,6.74 7.3,14.33 16.26,9.78 12,-6.09 3.27,-41.09 -11.26,-30.67z"/>
   <path class="fil0" d="M1090.69 2624.42c-6.58,4.74 -7.39,12.05 -5.15,21 1.71,6.87 8.35,14.32 16.22,9.48 12.35,-7.61 2.65,-40.36 -11.07,-30.48z"/>
   <path class="fil0" d="M1124.74 2625.33c-14.52,6.92 -13.42,36.42 3.9,31.13 14.21,-4.34 12.07,-38.74 -3.9,-31.13z"/>
   <path class="fil0" d="M2045.6 2624.99c-13.52,5.32 -13.07,36.88 4.03,31.09 13.88,-4.7 11.74,-37.3 -4.03,-31.09z"/>
   <path class="fil0" d="M1066.3 2649.43c-11.81,7.79 -2.28,35.45 12.74,26.99 10.9,-6.15 0.89,-35.98 -12.74,-26.99z"/>
   <path class="fil0" d="M2066.3 2652.07c-6.11,3.34 -9.05,9.93 -8.41,17.79 0.65,8.06 7.3,13.13 15.14,8.4 10.99,-6.63 11.09,-35.92 -6.72,-26.19z"/>
   <path class="fil0" d="M1989.13 2650.79c-12.4,7.31 -2.44,37.1 12.26,26.7 11.07,-7.83 0.81,-34.41 -12.26,-26.7z"/>
   <path class="fil0" d="M1144.14 2653.86c-1.39,1.11 -1.27,0.3 -3.74,2.88 -10.45,10.91 -2.07,29.28 10.77,22.28 14.57,-7.95 7.02,-36.38 -7.02,-25.17z"/>
   <path class="fil0" d="M289.26 2475.68c2.82,-2.37 3.25,-4.4 7.47,-6.67 5.48,-2.94 7.09,-1.52 12.04,-2.69 -3.06,-10.69 -24.42,-1.17 -19.52,9.36z"/>
   <path class="fil0" d="M511.11 2512.46c7.74,-2.7 4.63,-3.48 14.42,-2.37 -0.31,-6.96 -12.68,-6.14 -14.42,2.37z"/>
   <path class="fil1" d="M2317.04 2649.3c5.46,-1.56 12.25,1.56 14.22,4.39 2.69,3.87 2.03,9.57 4.88,14.79 6.63,12.15 -3.96,22.57 -14.87,14.87 -7.85,-5.54 -7.58,-2.14 -16.39,-3.33 -5.17,-0.7 -9.14,-5.33 -8.48,-11.43 0.75,-6.87 4.7,-7.26 9.58,-10.43 5.09,-3.3 3.33,-6.66 11.06,-8.86zm29.9 0.32c12.01,-5.29 11.72,13.81 1.01,17.43 -11.1,3.75 -13.16,-12.09 -1.01,-17.43zm-48.15 -15.98c9.48,-2.66 12.81,17.04 4.7,20.42 -6.29,2.63 -9.47,-2.56 -10.23,-7.97 -0.78,-5.5 0.11,-10.92 5.54,-12.44zm40.12 -6.33c5.32,-2.38 9.13,3.09 8.43,8.83 -0.65,5.32 -4.04,10.66 -7.52,12.09 -11.85,4.86 -13.2,-15.43 -0.92,-20.92zm-20.2 -6c9.65,-4.09 12,19.01 1.68,21.8 -10.89,2.95 -12.85,-17.08 -1.68,-21.8zm-58.46 83.04l91.74 25.7c-1.69,-3.1 8.85,-37.3 10.45,-43.28 3.76,-14.06 7.92,-28.65 11.7,-42.78 3.68,-13.72 11.43,-30.91 4.72,-44.09 -7.26,-14.26 -18.09,-13.98 -35.6,-18.96 -16.88,-4.8 -28.13,-10.64 -42.83,0.08 -9.58,6.98 -11.76,24.19 -15.94,38.64 -3.04,10.46 -21.55,81.81 -24.23,84.67z"/>
   <path class="fil1" d="M387.44 2487.41c2.78,-15.84 25.72,-19.87 32.11,-4.44 1.04,2.51 3.09,11.17 -1.25,8.56 -3.28,-1.97 -3.38,-3.78 -8.61,-5.81 -12.56,-4.85 -14.51,1.48 -22.25,1.69zm31.25 -79.69l-6.16 1.07 1.29 3.92c-0.83,0.35 0.87,0.26 -1.5,0.28 -3.61,0.04 -5.84,-3.23 -24.48,-1.37 -1.06,1.35 -1.6,1.74 -3.49,3.08 -5.27,3.74 -5.19,3.96 -9.78,10.22 -15.53,21.15 -11.4,59.09 11.45,75.93 4.98,3.67 10.2,6.75 17.28,9.07 8.24,2.7 31.21,8.82 36.2,17.78 4.54,-0 8.43,1.36 12.06,2.54 -0.44,-7.6 -4.83,-12.94 -7.26,-18.5 2.42,-0.89 6.05,0.09 8.62,0.73l-8.38 -17.27 8.06 1.32c-2.21,-4.38 -3.93,-7.76 -5.15,-12.9 -0.08,-0.35 -0.46,-2.35 -0.46,-2.58 0.02,-3.6 -0.47,-1.68 0.9,-2.78l0.54 0.56 -0.54 -0.56c-1.82,-4.29 -2.84,-12.06 -2.04,-17.2l-7.31 -15.57c-1.72,-4.12 -5.86,-11.64 -6.44,-15.78 10.62,5.97 22.11,34.11 31.41,45.69 17.63,21.96 27.57,-1.21 35.95,-21.86 17.13,-42.15 -7.3,-31.49 -28.31,-37.24 -11.67,-3.19 -16.19,-8.79 -24.61,-13.78 -12.46,-7.38 -22.5,3.8 -27.37,6.52l-0.47 -1.34z"/>
   <path class="fil1" d="M366.57 2652.74c-2.9,-3.56 -4.41,-19.1 -5.24,-25.05l-1.48 -4.13c-7.14,11.58 -16.3,13.67 -26.54,18.07 2.76,8.43 -0.68,21.43 7.73,36.11 11.17,19.5 43.61,22.35 54.62,-3.57 4.83,-11.4 3.46,-26.07 2.49,-39.05 -19.26,-0.65 -25.36,-11.75 -28.45,-12.69 0.07,5.8 -0.01,27.05 -3.13,30.32z"/>
   <path class="fil1" d="M570.81 2551.31c-0.26,-9.36 21.81,-13.84 23.84,1.2 0.61,4.57 -0.49,9.27 -3.46,10.89 -2.54,-1.05 -0.81,0.11 -2.27,-2.31 -2.04,-3.42 -1.54,-4.5 -5.31,-6.81 -3.6,-2.22 -7.71,-2.89 -12.8,-2.96zm7.55 -30.62c-23.56,5.56 -25.46,38.52 -3.4,51.52 3.11,1.83 6.2,3.37 8.92,5.31 2.02,1.44 6.63,6.27 7.66,6.58 6.63,2.04 12.19,-7.7 14.26,-12.88 10.56,-26.43 -6.01,-55.58 -27.43,-50.53z"/>
   <path class="fil1" d="M500.63 2626.09c-2.64,6.29 -5.64,16.52 -4.48,23.71 3.29,20.37 32.81,22 41.08,-0.17 1.23,-3.3 3.25,-8.54 3.98,-10.96 -10.34,-7.79 -7.81,-4.01 -14,-14.63 -2.68,3.58 -7.43,15.65 -10.64,17.24 0.07,-6.71 1.76,-13.24 3.21,-19.15 -7.06,1.65 -3.28,4.05 -19.15,3.96z"/>
   <path class="fil2" d="M617.33 2515.8c5.62,13.02 11.71,34.27 20.58,42.64 9.58,9.04 18.03,-2.54 23.3,-9.49 5.93,-7.82 18.13,-29.36 15.96,-38.41 -2.94,-12.24 -23.01,-2.47 -41.29,-21.4 -4.28,-4.43 -9.88,-10.94 -18.23,-13.04 -0.31,2.89 -1.71,5.86 -2.27,9.26 -0.58,3.53 -0.54,7.11 -0.49,10.7 0.1,7.18 2.24,13.98 2.44,19.74z"/>
   <path class="fil0" d="M2260.24 2704.37c2.68,-2.87 21.19,-74.21 24.23,-84.67 4.19,-14.45 6.37,-31.65 15.94,-38.64 14.7,-10.72 25.96,-4.89 42.83,-0.08 17.52,4.98 28.35,4.7 35.6,18.96 6.71,13.18 -1.04,30.37 -4.72,44.09 -3.78,14.12 -7.94,28.71 -11.7,42.78 -1.6,5.97 -12.13,40.17 -10.45,43.28 5.18,0.65 4.51,-4.31 8,-17.12 4.34,-15.91 26.22,-92.31 26.26,-99.81 0.07,-15.1 -9.85,-27.32 -21.05,-30.31 1.04,-6.43 5.07,-14.53 3.78,-20.56 -3.39,-2.43 -31.95,-10.98 -37.37,-9.81 -3.83,3.5 -5.61,12.71 -6.84,18.9 -35.48,-5.74 -39.34,27.09 -46.09,52.43 -3.26,12.22 -21.26,73.76 -21.63,80.14l3.2 0.44z"/>
   <g>
    <path class="fil0" d="M259.14 2398.23c3.33,-1.2 7.03,-4.11 11.69,-5.74 13.25,-4.66 2.29,4.48 22.92,-12.74 3.28,-2.74 6.92,-4.94 10.73,-7.83 12.27,-9.32 31.06,-18.37 47.51,-24.54 64.36,-24.1 142.95,-14.62 198.61,26.7 16.63,12.34 23.78,20 37.03,34.98 9.35,10.57 21.77,30.99 27.93,44.11 1.54,3.27 2.95,10 6.42,11.33 3.07,1.18 3.61,0.85 6.71,2.6 2.5,1.41 3.65,2.43 5.9,3.43 -4.86,-18.24 -20.97,-46.43 -32.33,-61.13 -2.75,-3.56 -5.41,-7.39 -8.19,-10.37l-8.91 -9.62c-3.12,-3.13 -6.13,-6.63 -9.5,-9.75 -59.54,-55.14 -152.98,-72.41 -228.11,-43.13 -17.55,6.84 -40.02,17.65 -54.63,29.55 -9.51,7.74 -27.86,21.94 -33.81,32.16z"/>
    <path class="fil0" d="M618.64 2572.76l-6.77 -1.56c0.64,5.31 2.13,9.43 2.78,15.5 -2.83,-0.71 -4.32,-2.17 -7.93,-2.96 0.68,7.49 1.48,10.39 -1.07,17.19 -3.84,-2.55 -5.76,-7.06 -12.28,-7.38 1.39,3.89 4.93,4.42 8.35,14.67 1.76,5.25 3.22,15.31 0.18,20.3 -3.7,-4.4 -2.3,-6.95 -8.59,-10.48 -0.3,6.91 -0.69,11.82 -3.77,16.8 -0.92,-2.21 -0.14,-2.73 -2.22,-4.24 -0.62,3.39 -1.95,5.41 -3.88,8.16 -1.2,1.71 -5.11,5.87 -5.39,6.65 13.61,1.07 17.73,-11.96 19.51,-13.86l2.06 12.43c5.2,-2.33 9.5,-14.8 9.96,-23.13 0.28,-4.96 -2.37,-10.99 -0.52,-14.91 2.83,-6.01 3.21,-6.86 3.18,-14.76 2.89,1.15 3.44,2.61 7.11,3.73 0.43,-6.69 0.83,-11.25 -1.33,-17.26l7.33 2.11c-1.16,-5.97 -3.56,-11.17 -5.7,-16.57 -1.06,-2.69 -1.15,-3.82 -2.79,-5.05 -0.43,4.85 0.38,10.55 1.79,14.62z"/>
   </g>
   <path class="fil0" d="M2323.3 2523.27c-0.81,3.87 -0.32,6.43 1.41,9.07l21.88 1.19c0.57,5.13 -2.5,12.08 -3.75,16.7 3.36,2.2 12.75,4.2 17.71,5.1l4.24 -16.19c10.31,3.33 14.28,10.99 18.96,5.38 4.98,-5.98 -6.91,-12.5 -11.46,-14.99 -11.91,-6.5 -34.26,-12.92 -48.98,-6.26z"/>
   <path class="fil0" d="M2132.63 2689c20.72,-4.35 38.45,10.63 41.72,26.88 4.25,21.13 -10.95,38.03 -26.94,41.76 -21.25,4.95 -37.63,-10.7 -41.7,-26.62 -5.47,-21.41 10.63,-38.59 26.92,-42.01zm1.33 -4.03c-54.53,11.68 -35.46,85.72 13.06,76.74 19.03,-3.53 35.79,-22.32 31.39,-45.77 -3.26,-17.44 -22.45,-35.68 -44.45,-30.96z"/>
   <path class="fil0" d="M2292.03 2480.91c-1.84,-13.89 8.04,-24.43 19.5,-26.08 13.37,-1.92 24.68,8.69 26,19.93 1.56,13.31 -8.59,24.51 -19.92,25.72 -13.61,1.45 -24.06,-8.13 -25.58,-19.57zm17.37 -28.39c-34.33,8.24 -22.06,57.52 10.87,50.63 12.2,-2.55 23.37,-15.23 19.72,-30.95 -2.73,-11.73 -15.54,-23.3 -30.59,-19.69z"/>
   <path class="fil0" d="M2148.99 2584.62c31.39,-7.7 41.81,40.05 11.22,47.56 -31.62,7.76 -42.8,-39.82 -11.22,-47.56zm-0.56 -3.31c-37.08,9.26 -23.22,63.7 12.67,54.38 35.85,-9.31 22.3,-63.11 -12.67,-54.38z"/>
   <path class="fil0" d="M2364.41 2444.59c5.47,2.72 11.65,0.5 16.16,6.2 1.5,1.89 2.64,4.82 3.21,7.59l2.11 9.17c3.54,-8.92 -2.4,-21.17 20.26,-22.39 -4.37,-4 -11.47,-1.02 -15.92,-7.58 -3.37,-4.97 -2.41,-13.57 -4.89,-17.37 -1.81,9.58 -1.14,18.7 -11.68,21.93 -1.85,0.57 -2.52,0.61 -4.16,0.89 -0.67,0.12 -1.75,0.24 -2.34,0.4l-2.11 0.81c-0.16,0.07 -0.45,0.2 -0.64,0.35z"/>
   <path class="fil0" d="M2319 2397.2c19.96,-7.46 31.26,23.39 10.86,30.93 -19.72,7.29 -31.95,-23.04 -10.86,-30.93zm-0.05 -3.57c-25.87,8.16 -13.51,45.76 10.98,38.19 9.28,-2.87 16.8,-12.21 13.4,-24.94 -2.38,-8.91 -12.17,-17.1 -24.38,-13.25z"/>
   <path class="fil0" d="M2392.09 2687.76c17.44,-5.62 24.63,20.48 8.6,25.73 -17.29,5.67 -25.05,-20.43 -8.6,-25.73zm-0.62 -3.45c-20.71,5.69 -12.36,39.38 10,32.62 6.86,-2.07 14,-11.18 11.17,-21.12 -2.23,-7.81 -10.78,-14.35 -21.17,-11.5z"/>
   <path class="fil0" d="M2400.86 2593.68c2.74,1.91 8.5,1.14 11.42,4.07 2.67,2.68 2.42,9.15 4.27,12.7 2.7,-5.43 0.09,-12.44 9.09,-15.07 2.22,-0.65 4.36,-0.69 6.19,-2.1 -4.55,-0.78 -9.63,-1.38 -11.77,-4.26 -2.66,-3.57 -1.61,-9.7 -3.5,-12.92 -1.99,3.56 -0.77,9.41 -3.52,12.89 -2.85,3.61 -8.1,2.97 -12.17,4.68z"/>
   <path class="fil0" d="M2364.6 2485.57c11.22,-5.94 18.75,12.88 8.08,17.36 -11.33,4.75 -20.11,-10.99 -8.08,-17.36zm-0.55 -3.25c-17.52,8.11 -5.54,29.47 9.16,23.76 15.65,-6.08 5.76,-30.67 -9.16,-23.76z"/>
   <path class="fil0" d="M2409.62 2639.88c10.9,-4.44 16.79,12.07 6.76,16.88 -10.98,5.27 -19.09,-11.85 -6.76,-16.88zm-1.87 -2.71c-15.9,7.86 -4.73,28.99 9.95,22.78 14.24,-6.03 5.67,-30.5 -9.95,-22.78z"/>
   <path class="fil0" d="M2224.55 2625.16c11.74,-3.5 14.36,14.43 4.35,16.76 -11.9,2.77 -14.13,-13.83 -4.35,-16.76zm-2.3 -2.44c-14.28,5.6 -6.57,27.24 9.18,21.72 12.31,-4.31 6.62,-27.93 -9.18,-21.72z"/>
   <path class="fil0" d="M2217.86 2678.82c9.65,-5.36 15.87,8.18 7.61,13.15 -6.29,3.78 -13.75,-1.55 -11.22,-9.38 1.03,-3.18 1.72,-2.72 3.61,-3.76zm0.55 -3.91c-14.11,4.46 -7.58,25.51 6.63,20.89 12.77,-4.15 7.46,-25.34 -6.63,-20.89z"/>
   <path class="fil0" d="M2297.63 2474.35c3.15,-0.93 0.87,0.83 2.91,-4.41 3.37,-8.66 10.62,-7.1 11.43,-10.55 -4.67,-2.71 -16.66,7.28 -14.33,14.96z"/>
   <path class="fil0" d="M2164.45 2729.7c4.36,-5.31 5,-23.67 -2.89,-26.13 -1.93,3.18 1.9,7.41 2.27,12.89 0.18,2.7 -0.07,5.29 -0.77,7.72 -1.24,4.28 -2.37,4.02 1.39,5.51z"/>
   <path class="fil0" d="M2111.46 2719.84c4.43,-0.78 2.57,-4.38 4.85,-9.05 2.07,-4.25 5.46,-4.81 5.63,-9.26 -8.3,-0.07 -11.86,14.76 -10.48,18.31z"/>
   <path class="fil0" d="M2172.97 2597.96c-2.71,-5.18 -3.27,-1.91 -3.28,-1.91 -1.18,1.72 1.19,4.17 1.69,7.39 0.58,3.75 -0.48,5.89 -0.23,9.54 3.01,-0.35 2.85,0.39 3.44,-3.35 0.53,-3.35 0.02,-8.52 -1.63,-11.67z"/>
   <path class="fil0" d="M2134.93 2606.93c4.64,-1.47 0.67,-2.02 5.14,-8.98 2.34,-3.63 5.77,-3.41 6.51,-7.7 -6.26,0.88 -13.78,9.63 -11.65,16.68z"/>
   <path class="fil0" d="M2325.09 2494.06c4.17,-0.65 8.96,-7.52 7.46,-10.13 -1.89,0.93 -2.82,3.36 -3.89,4.82 -1.39,1.91 -2.87,2.84 -3.58,5.31z"/>
   <path class="fil0" d="M2312.6 2412.8c2.63,-1.63 0.64,0.71 2.1,-3.44 2.74,-7.83 6.16,-5.05 3.74,-8.75 -3.54,1.79 -8.29,7.32 -5.84,12.2z"/>
   <path class="fil0" d="M2220.17 2633.93c2.28,-1.16 4.95,-4.51 6.04,-7.04 -5.35,0.56 -5.7,1.4 -6.04,7.04z"/>
   <path class="fil0" d="M2405.26 2703c3.47,-1.47 1.83,-6.06 1.76,-6.19 -1.53,-2.88 0.47,-0.42 -2.32,-1.66l0.57 7.85z"/>
   <path class="fil0" d="M861.25 2611.91c22.6,-4.02 27.93,30.9 6.42,35.08 -23.95,4.65 -28.87,-31.08 -6.42,-35.08zm29.55 -12.48c2.43,2.31 3.31,4.37 6.3,5.98 3.97,-1.87 8.73,-7.61 13.38,-10.37 -0.15,-0.22 -0.39,-0.78 -0.49,-0.62l-3.17 -2.38c-6.41,-3.47 -3.4,-6.8 -7.39,-11.31 -2.86,7.99 -8,16.85 -8.62,18.69zm18.02 -18.71c-1.39,-8.43 9.66,-8.78 10.65,-2.18 1.04,6.98 -9.52,9 -10.65,2.18zm23.97 22.93c1.83,-1.23 1.87,-1.5 3.4,-3.35 1.07,-1.3 1.92,-2.2 2.67,-3.36 -1.19,-1.56 -1.52,-2.64 -2.98,-4.71l-24.19 -36.91c-2.91,4.29 -4.79,9.83 -7.11,15.04 -3.42,7.65 -3.96,7.7 -0.03,15.87 2.95,6.13 14.22,8.49 21.52,12.56 2.75,1.54 4.19,3.27 6.71,4.85zm-8.11 -32.2l14.02 -40.01c2.07,-6.39 12.93,-37.07 9.51,-41.43 -3.76,0.59 -3.47,2.67 -7.2,8.88 -4.15,6.9 -27.86,50.17 -27.91,52.74 -0.02,1.43 9.89,18.05 11.59,19.82zm-25.44 3.17c2.5,-2 4.83,-8.4 6.49,-12.04 3.04,-6.67 2.82,-5.48 -0.85,-11.54 -5.4,-8.9 -38.15,-63.49 -39.62,-68.59 4.93,3.5 40.37,67.96 44.01,71.57 2.43,-3.25 -1.15,-6.66 -3.46,-10.42l-39.78 -65.65c-5.74,-9.63 -4.74,-9.35 -8.9,-9.35 -1.01,12.05 39.65,95.92 42.09,106.01zm63.07 35.52c23.02,-6.08 31.08,29.04 8.44,34.44 -22.17,5.3 -30.35,-28.65 -8.44,-34.44zm-28.19 -3.45l8.08 9.63c-9.67,36.31 29.39,49.31 45.43,28.16 13.44,-17.73 3.04,-41.85 -16.89,-44.22 -10.93,-1.3 -12.89,1.82 -20.11,4.58l-9.04 -7.29c-3.26,3.16 -4.81,5.94 -7.48,9.14zm-53.73 0.28c-13.78,-8.72 -29.64,-4.86 -37.43,5.63 -9.71,13.07 -5.54,30.35 4.3,38.28 18.39,14.81 45.57,0.46 43.48,-23.93 -0.8,-9.36 -4.87,-5.5 5.53,-17.59 -1.28,-3.37 -5.26,-8.03 -8.09,-9.28l-7.79 6.89z"/>
   <path class="fil0" d="M765.59 2424.7c45.3,-9.59 59.05,58.72 15.16,68.85 -46.48,10.72 -61.5,-59.03 -15.16,-68.85zm0.65 -5.54c-54.54,9.46 -39.16,90.03 13.9,79.97 18.85,-3.58 36.54,-22.96 32.46,-47.11 -3.21,-19.01 -23.24,-36.88 -46.36,-32.86z"/>
   <path class="fil0" d="M748.77 2613.7c11.03,4.98 17.21,-0.16 26.93,9.87 7.17,7.4 4.31,18.83 8.57,28.23l2.12 -6.98c3.7,-32.82 18.76,-25.55 32.95,-31.12l-6.33 -2.09c-31.41,-5.85 -23.3,-22.4 -27.41,-35.54 -0.1,-0.32 -0.28,-0.68 -0.38,-0.96l-0.95 -1.74c-5.43,11.91 1.59,29.32 -20.39,36.38l-15.11 3.94z"/>
   <path class="fil0" d="M763.64 2332.29c2.09,3.26 17.09,1.58 25.59,10.78 9.18,9.93 5.26,22.94 9.28,28.65 -2.01,-1.87 0.48,0.69 1.44,-7.7 4.23,-36.62 21.24,-22.81 32.6,-31.67 -9.97,-3.61 -20.33,-2.43 -26.19,-10.17 -7.12,-9.41 -4.26,-20.22 -7.62,-29.25 -2.37,3.02 -2.48,10.74 -3.28,14.67 -5.44,26.52 -18.72,19.32 -31.82,24.69z"/>
   <path class="fil0" d="M701.48 2691.39c16.35,6.6 19.08,-3.82 23.97,22.06l2.2 5.52c2.18,-6.95 1.06,-15.55 5.71,-20.64 4.42,-4.83 12.54,-4.69 19.22,-7.05 -10.61,-8.26 -18.84,4.33 -23.83,-23.26 -1,-5.51 -1.2,-4.76 -2.9,-6.42 -0.32,31.72 -17.42,23.89 -24.37,29.8z"/>
   <path class="fil0" d="M723.12 2366.78c23.14,-9.13 35.4,27.59 12.02,35.45 -17.44,5.87 -30.01,-10.94 -22.91,-26.78 2.9,-6.46 4.7,-6.24 10.89,-8.68zm1.35 -5.13c-32.41,8.01 -19.84,53.99 11.64,45.43 10.46,-2.84 19.41,-14.69 15.74,-29.17 -2.74,-10.8 -14.11,-19.54 -27.38,-16.26z"/>
   <path class="fil0" d="M826.54 2688.37c17.03,-6.52 24.85,20.5 8.87,25.83 -17.49,5.84 -27.36,-18.75 -8.87,-25.83zm-2.73 -3.9c-5.56,2.54 -7.39,3.23 -9.83,8.34 -2.44,5.08 -2.7,10.69 -0.5,15.74 3.09,7.08 12.79,14.53 23.75,10.04 22.57,-9.24 9.07,-44.4 -13.43,-34.12z"/>
   <path class="fil0" d="M744.44 2560.23c-14.38,5.83 -4.52,28.85 10.77,21.23 11.53,-5.75 4.86,-27.57 -10.77,-21.23z"/>
   <path class="fil0" d="M822.55 2388.75c16.86,-7.31 25.29,19.44 9.46,24.97 -15.17,5.31 -25.87,-17.86 -9.46,-24.97zm0.98 -4.49c-24.57,7.31 -13.09,39.27 9.11,33.94 21.49,-5.15 12.95,-40.51 -9.11,-33.94z"/>
   <path class="fil0" d="M822.22 2513.96c16.02,-7.52 22.68,18.14 8.82,22.1 -16.78,4.8 -21.86,-15.98 -8.82,-22.1zm-1.7 -4.06c-17.69,6.6 -10.04,38.11 12.54,30.36 18.77,-6.43 10.1,-38.81 -12.54,-30.36z"/>
   <path class="fil0" d="M796.81 2464.61c0.56,-0.44 3.21,0.86 3.31,-8.07 0.1,-8.31 -4.47,-20.87 -13.37,-21.51 0.54,6.7 9.81,8.53 8.65,21.47 -0.08,0.89 -0.83,4.33 -0.83,4.43 0.02,5.63 0.47,2.44 2.22,3.69z"/>
   <path class="fil0" d="M731.52 2370.3c2.15,4.37 3.15,2.81 6.08,6.65 3.48,4.56 0.91,4.62 3.89,8.44 6.36,-4.87 -4.7,-18.03 -9.97,-15.09z"/>
   <path class="fil0" d="M829.67 2391.97c8.04,8.45 2.04,5.1 7.56,9.23 -0.37,-6.12 -4.49,-12.42 -7.56,-9.23z"/>
   <path class="fil3" d="M1190.17 2689.09c-2.98,0 -4.47,-1.49 -4.47,-4.48l0 -41.57c0,-2.98 1.49,-4.48 4.47,-4.48l0.44 0c2.98,0 4.48,1.49 4.48,4.48l0 15.09 21.59 0 0 -15.09c0,-2.98 1.49,-4.48 4.47,-4.48l0.5 0c2.98,0 4.48,1.49 4.48,4.48l0 41.57c0,2.98 -1.49,4.48 -4.48,4.48l-0.5 0c-2.98,0 -4.47,-1.49 -4.47,-4.48l0 -17.83 -21.59 0 0 17.83c0,2.98 -1.49,4.48 -4.48,4.48l-0.44 0zm56.81 0.44c-3.79,0.18 -6.95,-0.64 -9.48,-2.46 -2.53,-1.84 -3.79,-4.48 -3.79,-7.95 0,-2.46 0.73,-4.56 2.2,-6.3 1.48,-1.77 3.38,-3.14 5.7,-4.13 2.33,-0.99 4.75,-1.51 7.26,-1.56 1.11,-0.08 2.16,0 3.17,0.26 1.01,0.26 1.95,0.61 2.81,1.05l0 -2.33c0,-2.02 -0.43,-3.33 -1.3,-3.92 -0.88,-0.6 -2.1,-0.91 -3.68,-0.91 -1.29,0 -2.62,0.16 -4,0.47 -1.37,0.31 -2.71,0.74 -4,1.25 -1.41,0.58 -2.6,0.78 -3.58,0.63 -0.99,-0.17 -1.82,-0.8 -2.48,-1.9 -0.64,-1.12 -0.78,-2.2 -0.44,-3.24 0.35,-1.02 1.24,-1.85 2.69,-2.48 1.72,-0.78 3.58,-1.39 5.58,-1.86 2,-0.48 4.08,-0.72 6.24,-0.72 4.48,0 7.87,0.91 10.17,2.74 2.31,1.81 3.46,5.14 3.46,9.94l0 15.18c0,0.48 0.02,0.82 0.07,1 0.15,0.68 0.43,1.12 0.83,1.34 0.41,0.22 0.83,0.36 1.27,0.43 0.43,0.06 0.81,0.16 1.11,0.29 0.31,0.12 0.47,0.42 0.47,0.9 0,0.91 -0.26,1.73 -0.76,2.46 -0.5,0.72 -1.33,1.2 -2.48,1.43 -0.53,0.1 -1.08,0.18 -1.66,0.24 -0.58,0.09 -1.18,0.13 -1.81,0.13 -2.83,0 -4.63,-0.96 -5.4,-2.9 -2.22,1.69 -4.93,2.65 -8.17,2.9zm-0.2 -7.81c2.55,-0.15 4.58,-0.64 6.1,-1.47 1.52,-0.84 2.23,-2.01 2.13,-3.5 -0.05,-1.12 -0.59,-1.85 -1.63,-2.18 -1.03,-0.34 -2.3,-0.46 -3.79,-0.36 -2.22,0.08 -3.98,0.66 -5.28,1.71 -1.29,1.04 -1.91,2.13 -1.88,3.27 0.05,0.81 0.42,1.44 1.12,1.9 0.71,0.47 1.78,0.67 3.22,0.63zm31.41 21.38c-3.03,0 -4.55,-1.59 -4.55,-4.78l0 -39.26c0,-3.18 1.32,-4.76 3.96,-4.76 2.59,0 3.97,0.53 4.11,1.59l0.23 1.66c2.45,-2.73 5.48,-4.1 9.08,-4.1 3.28,0 6.19,0.71 8.74,2.13 2.54,1.41 4.55,3.48 6.03,6.19 1.47,2.72 2.2,6.03 2.2,9.93 0,3.86 -0.73,7.15 -2.2,9.85 -1.48,2.71 -3.49,4.78 -6.03,6.21 -2.55,1.42 -5.46,2.13 -8.74,2.13 -3.14,0 -5.91,-1.08 -8.3,-3.25l0 11.69c0,3.19 -1.52,4.78 -4.54,4.78zm12.48 -21.45c2.31,0 4.24,-0.85 5.81,-2.56 1.56,-1.7 2.35,-4.17 2.35,-7.4 0,-3.27 -0.78,-5.76 -2.35,-7.47 -1.57,-1.7 -3.5,-2.55 -5.81,-2.55 -2.3,0 -4.24,0.85 -5.79,2.55 -1.54,1.71 -2.31,4.2 -2.31,7.47 0,3.22 0.77,5.69 2.31,7.4 1.55,1.71 3.49,2.56 5.79,2.56zm28.45 21.45c-3.03,0 -4.55,-1.59 -4.55,-4.78l0 -39.26c0,-3.18 1.32,-4.76 3.96,-4.76 2.59,0 3.97,0.53 4.11,1.59l0.23 1.66c2.46,-2.73 5.49,-4.1 9.08,-4.1 3.27,0 6.19,0.71 8.74,2.13 2.54,1.41 4.55,3.48 6.03,6.19 1.47,2.72 2.2,6.03 2.2,9.93 0,3.86 -0.73,7.15 -2.2,9.85 -1.48,2.71 -3.49,4.78 -6.03,6.21 -2.55,1.42 -5.46,2.13 -8.74,2.13 -3.14,0 -5.91,-1.08 -8.3,-3.25l0 11.69c0,3.19 -1.52,4.78 -4.54,4.78zm12.48 -21.45c2.31,0 4.24,-0.85 5.81,-2.56 1.56,-1.7 2.35,-4.17 2.35,-7.4 0,-3.27 -0.78,-5.76 -2.35,-7.47 -1.57,-1.7 -3.5,-2.55 -5.81,-2.55 -2.3,0 -4.24,0.85 -5.79,2.55 -1.54,1.71 -2.31,4.2 -2.31,7.47 0,3.22 0.77,5.69 2.31,7.4 1.55,1.71 3.49,2.56 5.79,2.56zm27.43 21.51l-1.73 0c-1.49,-0.09 -2.61,-0.54 -3.37,-1.37 -0.73,-0.82 -1.11,-1.9 -1.11,-3.24 0,-2.7 0.87,-3.93 2.59,-3.69 0.44,0.05 0.88,0.09 1.31,0.11 0.43,0.02 0.87,0.04 1.3,0.04 1.29,0 2.25,-0.13 2.87,-0.41 0.64,-0.25 1.13,-0.71 1.48,-1.37 0.36,-0.64 0.76,-1.52 1.2,-2.62l0.57 -1.59 -11.54 -29.23c-0.64,-1.69 -0.72,-3.02 -0.24,-4.01 0.49,-0.99 1.43,-1.48 2.83,-1.48l0.58 0c2.73,0 4.53,1.28 5.41,3.83l6.93 19.98 6.42 -19.91c0.88,-2.6 2.69,-3.9 5.41,-3.9 1.54,0 2.6,0.49 3.18,1.48 0.57,0.98 0.57,2.32 0,4.01l-11.83 33.5c-0.78,2.15 -1.66,3.97 -2.65,5.44 -0.98,1.47 -2.24,2.57 -3.75,3.32 -1.52,0.75 -3.48,1.12 -5.88,1.12zm66.83 -13.28c-3.22,0 -6.12,-0.71 -8.7,-2.13 -2.57,-1.43 -4.59,-3.5 -6.06,-6.21 -1.47,-2.71 -2.2,-5.99 -2.2,-9.85 0,-3.9 0.74,-7.2 2.2,-9.93 1.46,-2.72 3.49,-4.79 6.06,-6.19 2.57,-1.42 5.47,-2.13 8.7,-2.13 3.22,0 5.99,1.08 8.3,3.24l0 -14.15c0,-3.18 1.52,-4.76 4.55,-4.76 3.03,0 4.55,1.59 4.55,4.76l0 41.79c0,3.18 -1.3,4.76 -3.9,4.76 -2.61,0 -3.98,-0.56 -4.11,-1.66l-0.22 -1.65c-2.46,2.73 -5.51,4.1 -9.17,4.1zm0.36 -8.23c2.31,0 4.25,-0.85 5.81,-2.56 1.56,-1.7 2.35,-4.17 2.35,-7.4 0,-3.27 -0.78,-5.76 -2.35,-7.47 -1.56,-1.7 -3.5,-2.55 -5.81,-2.55 -2.3,0 -4.23,0.85 -5.79,2.55 -1.54,1.71 -2.31,4.2 -2.31,7.47 0,3.22 0.77,5.69 2.31,7.4 1.56,1.71 3.49,2.56 5.79,2.56zm40.56 8.23c-3.22,0 -6.12,-0.74 -8.7,-2.24 -2.57,-1.49 -4.59,-3.61 -6.06,-6.34 -1.46,-2.76 -2.2,-5.96 -2.2,-9.61 0,-3.72 0.74,-6.93 2.2,-9.63 1.47,-2.71 3.49,-4.83 6.06,-6.34 2.57,-1.52 5.47,-2.27 8.7,-2.27 3.27,0 6.19,0.76 8.72,2.27 2.55,1.52 4.56,3.63 6.03,6.34 1.48,2.7 2.21,5.92 2.21,9.63 0,3.66 -0.73,6.86 -2.21,9.61 -1.47,2.73 -3.48,4.85 -6.03,6.34 -2.54,1.49 -5.45,2.24 -8.72,2.24zm0 -8.23c2.31,0 4.2,-0.85 5.67,-2.56 1.47,-1.7 2.2,-4.17 2.2,-7.4 0,-3.27 -0.74,-5.76 -2.2,-7.47 -1.46,-1.7 -3.35,-2.55 -5.67,-2.55 -2.31,0 -4.17,0.85 -5.59,2.55 -1.43,1.71 -2.14,4.2 -2.14,7.47 0,3.22 0.71,5.69 2.14,7.4 1.42,1.71 3.28,2.56 5.59,2.56zm37.97 21.51c-5.49,0 -9.79,-1.54 -12.93,-4.61 -1.09,-1.17 -1.54,-2.31 -1.33,-3.44 0.23,-1.13 0.91,-2.08 2.06,-2.85 1.21,-0.81 2.28,-1.09 3.22,-0.83 0.95,0.28 2.02,0.89 3.21,1.85 0.78,0.53 1.63,0.94 2.55,1.22 0.95,0.29 2.02,0.43 3.22,0.43 2.65,0 4.58,-0.8 5.8,-2.39 1.24,-1.59 1.85,-4.16 1.85,-7.71l0 -0.79c-2.22,1.87 -4.87,2.81 -7.94,2.81 -3.08,0 -5.81,-0.61 -8.2,-1.83 -2.37,-1.24 -4.24,-3.11 -5.62,-5.61 -1.37,-2.5 -2.06,-5.61 -2.06,-9.31 0,-3.72 0.69,-6.81 2.06,-9.29 1.38,-2.48 3.25,-4.33 5.62,-5.55 2.39,-1.21 5.13,-1.83 8.2,-1.83 1.69,0 3.38,0.35 5.05,1.04 1.67,0.69 3.04,1.95 4.1,3.79l0 -0.57c0,-1.29 0.35,-2.18 1.05,-2.67 0.71,-0.48 1.66,-0.72 2.86,-0.72 2.6,0 3.9,1.59 3.9,4.76l0 25.77c0,5.64 -1.31,10.11 -3.94,13.39 -2.62,3.3 -6.87,4.94 -12.73,4.94zm0.43 -24.17c2.31,0 4.2,-0.8 5.67,-2.38 1.47,-1.6 2.2,-3.76 2.2,-6.51 0,-2.74 -0.73,-4.89 -2.2,-6.43 -1.47,-1.54 -3.35,-2.31 -5.67,-2.31 -2.3,0 -4.1,0.77 -5.41,2.31 -1.31,1.54 -1.96,3.68 -1.96,6.43 0,2.74 0.65,4.91 1.96,6.51 1.31,1.59 3.11,2.38 5.41,2.38zm37.31 10.81c-2.01,0 -3.97,-0.23 -5.89,-0.69 -1.89,-0.46 -3.68,-1.22 -5.37,-2.28 -1.34,-0.87 -2.06,-1.86 -2.17,-2.99 -0.08,-1.13 0.33,-2.2 1.24,-3.21 0.91,-0.96 1.87,-1.43 2.85,-1.41 0.99,0.02 2.15,0.42 3.51,1.18 1.87,1.01 3.98,1.52 6.34,1.52 1.83,0 3.1,-0.22 3.83,-0.66 0.73,-0.47 1.09,-1.33 1.09,-2.57 0,-0.53 -0.18,-1 -0.56,-1.41 -0.36,-0.42 -1.11,-0.81 -2.24,-1.15 -1.12,-0.36 -2.81,-0.76 -5.09,-1.19 -3.51,-0.67 -6.22,-1.83 -8.12,-3.45 -1.89,-1.65 -2.84,-4.1 -2.84,-7.37 0,-2.18 0.58,-4.06 1.72,-5.67 1.16,-1.61 2.73,-2.86 4.73,-3.75 2,-0.9 4.25,-1.35 6.75,-1.35 3.42,0 6.5,0.63 9.23,1.89 1.46,0.71 2.29,1.64 2.49,2.76 0.23,1.09 -0.07,2.18 -0.9,3.24 -0.8,1.06 -1.71,1.6 -2.69,1.62 -0.99,0.03 -2.18,-0.23 -3.57,-0.76 -0.72,-0.28 -1.44,-0.48 -2.17,-0.6 -0.72,-0.13 -1.46,-0.19 -2.24,-0.19 -1.59,0 -2.67,0.25 -3.25,0.76 -0.57,0.5 -0.87,1.09 -0.87,1.76 0,0.48 0.15,0.91 0.42,1.31 0.3,0.39 0.93,0.76 1.89,1.13 0.96,0.35 2.45,0.77 4.48,1.25 3.99,0.91 7.01,2.3 9.06,4.15 2.05,1.87 3.07,4.33 3.07,7.41 0,3.6 -1.38,6.29 -4.16,8.09 -2.76,1.77 -6.28,2.66 -10.57,2.66zm28.02 10.03c-1.3,0.77 -2.42,1.08 -3.36,0.93 -0.94,-0.13 -1.6,-0.54 -1.98,-1.22 -0.39,-0.66 -0.29,-1.31 0.31,-1.93 0.61,-0.59 1.54,-1.35 2.79,-2.27 1.25,-0.91 2.22,-1.95 2.92,-3.17 0.71,-1.2 1.06,-2.41 1.06,-3.61 0,-0.24 -0.02,-0.44 -0.06,-0.6 -0.02,-0.18 -0.04,-0.36 -0.04,-0.56 -0.53,0.63 -1.17,1.15 -1.91,1.59 -0.75,0.43 -1.53,0.65 -2.33,0.65 -1.44,0 -2.68,-0.48 -3.72,-1.44 -1.04,-0.96 -1.55,-2.26 -1.55,-3.9 0,-1.69 0.61,-2.98 1.84,-3.89 1.23,-0.92 2.66,-1.37 4.3,-1.37 2.5,0 4.57,0.93 6.21,2.78 1.62,1.84 2.44,4.19 2.44,7.03 0,2.35 -0.63,4.45 -1.88,6.31 -1.25,1.85 -2.93,3.41 -5.04,4.65zm50.09 -9.96c-3.22,0 -6.12,-0.74 -8.7,-2.24 -2.57,-1.49 -4.59,-3.61 -6.06,-6.34 -1.47,-2.76 -2.2,-5.96 -2.2,-9.61 0,-3.72 0.73,-6.93 2.2,-9.63 1.47,-2.71 3.49,-4.83 6.06,-6.34 2.57,-1.52 5.47,-2.27 8.7,-2.27 4,0 7.44,1.11 10.31,3.31 1.31,0.96 1.9,2.05 1.78,3.26 -0.11,1.19 -0.74,2.2 -1.91,3.01 -1.16,0.83 -2.15,1.19 -3,1.09 -0.83,-0.08 -1.92,-0.56 -3.28,-1.44 -1.11,-0.66 -2.41,-1 -3.9,-1 -2.31,0 -4.17,0.85 -5.59,2.55 -1.43,1.71 -2.14,4.2 -2.14,7.47 0,3.22 0.71,5.69 2.14,7.4 1.42,1.71 3.28,2.56 5.59,2.56 1.46,0 2.71,-0.29 3.76,-0.86 1.25,-0.78 2.33,-1.28 3.25,-1.48 0.91,-0.2 1.95,0.1 3.1,0.91 1.14,0.87 1.81,1.87 1.97,3.04 0.18,1.15 -0.33,2.2 -1.54,3.15 -2.89,2.32 -6.4,3.48 -10.54,3.48zm24.91 -0.79c-3.03,0 -4.55,-1.59 -4.55,-4.76l0 -41.79c0,-3.18 1.52,-4.76 4.55,-4.76 3.02,0 4.54,1.59 4.54,4.76l0 41.79c0,3.18 -1.52,4.76 -4.54,4.76zm28.28 0.79c-5.1,0 -9.24,-1.5 -12.43,-4.51 -3.17,-3.01 -4.76,-7.57 -4.76,-13.68 0,-3.8 0.71,-7.06 2.13,-9.78 1.42,-2.73 3.38,-4.81 5.88,-6.27 2.5,-1.47 5.39,-2.2 8.65,-2.2 3.28,0 6.06,0.75 8.33,2.24 2.3,1.49 4.04,3.4 5.23,5.74 1.22,2.32 1.82,4.79 1.82,7.39 0,2.07 -0.41,3.39 -1.23,3.97 -0.81,0.56 -2,0.85 -3.55,0.85l-18.32 0c0.25,3.24 1.13,5.44 2.65,6.63 1.52,1.18 3.43,1.77 5.73,1.77 2.55,0 4.57,-0.74 6.06,-2.24 1.09,-1.12 2.11,-1.85 3.06,-2.18 0.95,-0.34 1.95,-0.12 3.01,0.66 1.12,0.76 1.73,1.73 1.84,2.92 0.12,1.17 -0.4,2.38 -1.55,3.63 -1.65,1.78 -3.51,3.07 -5.59,3.87 -2.09,0.78 -4.41,1.18 -6.96,1.18zm-7.85 -23.17l13.77 0c-0.87,-4.14 -3.06,-6.2 -6.57,-6.2 -1.93,0 -3.49,0.48 -4.69,1.44 -1.19,0.96 -2.03,2.55 -2.51,4.76zm41.19 22.82c-3.79,0.18 -6.95,-0.64 -9.48,-2.46 -2.52,-1.84 -3.79,-4.48 -3.79,-7.95 0,-2.46 0.73,-4.56 2.2,-6.3 1.48,-1.77 3.38,-3.14 5.7,-4.13 2.33,-0.99 4.75,-1.51 7.26,-1.56 1.11,-0.08 2.17,0 3.18,0.26 1.01,0.26 1.95,0.61 2.81,1.05l0 -2.33c0,-2.02 -0.43,-3.33 -1.3,-3.92 -0.88,-0.6 -2.11,-0.91 -3.69,-0.91 -1.28,0 -2.62,0.16 -4,0.47 -1.37,0.31 -2.71,0.74 -3.99,1.25 -1.41,0.58 -2.6,0.78 -3.59,0.63 -0.99,-0.17 -1.81,-0.8 -2.48,-1.9 -0.64,-1.12 -0.78,-2.2 -0.44,-3.24 0.35,-1.02 1.24,-1.85 2.69,-2.48 1.72,-0.78 3.59,-1.39 5.58,-1.86 2,-0.48 4.07,-0.72 6.24,-0.72 4.48,0 7.87,0.91 10.17,2.74 2.31,1.81 3.46,5.14 3.46,9.94l0 15.18c0,0.48 0.02,0.82 0.07,1 0.16,0.68 0.43,1.12 0.83,1.34 0.41,0.22 0.83,0.36 1.27,0.43 0.43,0.06 0.81,0.16 1.11,0.29 0.31,0.12 0.47,0.42 0.47,0.9 0,0.91 -0.25,1.73 -0.76,2.46 -0.5,0.72 -1.33,1.2 -2.48,1.43 -0.53,0.1 -1.08,0.18 -1.66,0.24 -0.57,0.09 -1.18,0.13 -1.81,0.13 -2.83,0 -4.63,-0.96 -5.4,-2.9 -2.22,1.69 -4.93,2.65 -8.17,2.9zm-0.2 -7.81c2.55,-0.15 4.59,-0.64 6.1,-1.47 1.52,-0.84 2.22,-2.01 2.13,-3.5 -0.05,-1.12 -0.59,-1.85 -1.62,-2.18 -1.04,-0.34 -2.3,-0.46 -3.79,-0.36 -2.22,0.08 -3.98,0.66 -5.28,1.71 -1.29,1.04 -1.91,2.13 -1.88,3.27 0.05,0.81 0.42,1.44 1.12,1.9 0.71,0.47 1.78,0.67 3.22,0.63zm31.41 7.36c-3.03,0 -4.55,-1.59 -4.55,-4.76l0 -25.26c0,-3.18 1.35,-4.76 4.03,-4.76 2.73,0 4.17,0.65 4.33,1.95l0.22 1.95c0.96,-1.26 2.2,-2.36 3.72,-3.31 1.52,-0.96 3.31,-1.44 5.38,-1.44 3.61,0 6.56,1.15 8.83,3.46 2.28,2.3 3.43,5.71 3.43,10.24l0 17.18c0,3.18 -1.52,4.76 -4.55,4.76 -3.02,0 -4.53,-1.59 -4.53,-4.76l0 -14.94c0,-2.55 -0.5,-4.48 -1.49,-5.76 -0.99,-1.3 -2.32,-1.95 -4,-1.95 -1.84,0 -3.34,0.66 -4.51,1.98 -1.18,1.31 -1.76,3.39 -1.76,6.22l0 14.45c0,3.18 -1.52,4.76 -4.54,4.76zm58.61 14.02c-3.03,0 -4.55,-1.59 -4.55,-4.78l0 -39.26c0,-3.18 1.32,-4.76 3.96,-4.76 2.59,0 3.97,0.53 4.11,1.59l0.23 1.66c2.45,-2.73 5.48,-4.1 9.08,-4.1 3.27,0 6.18,0.71 8.73,2.13 2.54,1.41 4.55,3.48 6.03,6.19 1.47,2.72 2.2,6.03 2.2,9.93 0,3.86 -0.73,7.15 -2.2,9.85 -1.48,2.71 -3.49,4.78 -6.03,6.21 -2.55,1.42 -5.46,2.13 -8.73,2.13 -3.14,0 -5.91,-1.08 -8.3,-3.25l0 11.69c0,3.19 -1.52,4.78 -4.54,4.78zm12.48 -21.45c2.31,0 4.25,-0.85 5.81,-2.56 1.56,-1.7 2.35,-4.17 2.35,-7.4 0,-3.27 -0.78,-5.76 -2.35,-7.47 -1.56,-1.7 -3.5,-2.55 -5.81,-2.55 -2.3,0 -4.24,0.85 -5.79,2.55 -1.54,1.71 -2.31,4.2 -2.31,7.47 0,3.22 0.77,5.69 2.31,7.4 1.55,1.71 3.49,2.56 5.79,2.56zm35.07 7.88c-3.79,0.18 -6.95,-0.64 -9.48,-2.46 -2.52,-1.84 -3.79,-4.48 -3.79,-7.95 0,-2.46 0.73,-4.56 2.2,-6.3 1.48,-1.77 3.38,-3.14 5.7,-4.13 2.33,-0.99 4.75,-1.51 7.26,-1.56 1.11,-0.08 2.17,0 3.18,0.26 1.01,0.26 1.95,0.61 2.81,1.05l0 -2.33c0,-2.02 -0.43,-3.33 -1.3,-3.92 -0.88,-0.6 -2.11,-0.91 -3.69,-0.91 -1.29,0 -2.62,0.16 -4,0.47 -1.37,0.31 -2.71,0.74 -3.99,1.25 -1.41,0.58 -2.6,0.78 -3.59,0.63 -0.99,-0.17 -1.82,-0.8 -2.48,-1.9 -0.64,-1.12 -0.78,-2.2 -0.44,-3.24 0.35,-1.02 1.24,-1.85 2.69,-2.48 1.72,-0.78 3.58,-1.39 5.58,-1.86 2,-0.48 4.07,-0.72 6.24,-0.72 4.48,0 7.87,0.91 10.17,2.74 2.31,1.81 3.46,5.14 3.46,9.94l0 15.18c0,0.48 0.02,0.82 0.07,1 0.16,0.68 0.43,1.12 0.83,1.34 0.41,0.22 0.83,0.36 1.27,0.43 0.43,0.06 0.81,0.16 1.11,0.29 0.31,0.12 0.47,0.42 0.47,0.9 0,0.91 -0.25,1.73 -0.76,2.46 -0.5,0.72 -1.33,1.2 -2.48,1.43 -0.53,0.1 -1.08,0.18 -1.66,0.24 -0.57,0.09 -1.18,0.13 -1.81,0.13 -2.83,0 -4.63,-0.96 -5.4,-2.9 -2.22,1.69 -4.93,2.65 -8.17,2.9zm-0.2 -7.81c2.55,-0.15 4.58,-0.64 6.1,-1.47 1.52,-0.84 2.23,-2.01 2.13,-3.5 -0.05,-1.12 -0.59,-1.85 -1.62,-2.18 -1.04,-0.34 -2.3,-0.46 -3.79,-0.36 -2.22,0.08 -3.98,0.66 -5.28,1.71 -1.29,1.04 -1.91,2.13 -1.88,3.27 0.05,0.81 0.42,1.44 1.12,1.9 0.71,0.47 1.78,0.67 3.22,0.63zm36.31 7.36c-2.6,0 -4.31,-1.35 -5.13,-4.03l-7.2 -25.42c-0.49,-1.63 -0.48,-2.93 0.02,-3.89 0.5,-0.98 1.43,-1.46 2.77,-1.46l0.07 0c2.8,0 4.56,1.37 5.27,4.11l4.57 17.97 4.61 -17.97c0.72,-2.74 2.33,-4.11 4.83,-4.11 2.45,0 4.04,1.37 4.75,4.11l4.57 17.97 4.62 -17.97c0.71,-2.74 2.46,-4.11 5.27,-4.11 1.33,0 2.26,0.48 2.79,1.46 0.53,0.96 0.55,2.26 0.07,3.89l-7.28 25.42c-0.82,2.69 -2.53,4.03 -5.13,4.03 -2.65,0 -4.33,-1.37 -5.05,-4.1l-4.69 -18.2 -4.69 18.2c-0.73,2.73 -2.42,4.1 -5.05,4.1zm49.94 0.72c-2.01,0 -3.97,-0.23 -5.89,-0.69 -1.89,-0.46 -3.68,-1.22 -5.37,-2.28 -1.34,-0.87 -2.06,-1.86 -2.17,-2.99 -0.09,-1.13 0.32,-2.2 1.24,-3.21 0.92,-0.96 1.87,-1.43 2.85,-1.41 0.98,0.02 2.15,0.42 3.51,1.18 1.86,1.01 3.98,1.52 6.34,1.52 1.83,0 3.1,-0.22 3.83,-0.66 0.73,-0.47 1.09,-1.33 1.09,-2.57 0,-0.53 -0.18,-1 -0.56,-1.41 -0.36,-0.42 -1.11,-0.81 -2.24,-1.15 -1.12,-0.36 -2.81,-0.76 -5.09,-1.19 -3.51,-0.67 -6.22,-1.83 -8.12,-3.45 -1.89,-1.65 -2.84,-4.1 -2.84,-7.37 0,-2.18 0.57,-4.06 1.72,-5.67 1.15,-1.61 2.73,-2.86 4.73,-3.75 2,-0.9 4.24,-1.35 6.75,-1.35 3.42,0 6.5,0.63 9.22,1.89 1.46,0.71 2.29,1.64 2.49,2.76 0.23,1.09 -0.07,2.18 -0.9,3.24 -0.81,1.06 -1.71,1.6 -2.7,1.62 -0.98,0.03 -2.18,-0.23 -3.57,-0.76 -0.72,-0.28 -1.44,-0.48 -2.17,-0.6 -0.72,-0.13 -1.47,-0.19 -2.24,-0.19 -1.59,0 -2.67,0.25 -3.25,0.76 -0.58,0.5 -0.87,1.09 -0.87,1.76 0,0.48 0.15,0.91 0.42,1.31 0.3,0.39 0.93,0.76 1.89,1.13 0.96,0.35 2.45,0.77 4.48,1.25 3.99,0.91 7.01,2.3 9.06,4.15 2.04,1.87 3.07,4.33 3.07,7.41 0,3.6 -1.39,6.29 -4.17,8.09 -2.75,1.77 -6.28,2.66 -10.57,2.66z"/>
   <path class="fil3" d="M1328.37 2764.05c-5.15,0 -9.08,-1.26 -11.81,-3.79 -2.71,-2.53 -4.07,-6.1 -4.07,-10.73 0,-2.31 0.49,-4.33 1.48,-6.05 0.98,-1.74 2.27,-3.27 3.86,-4.58 1.58,-1.32 3.29,-2.52 5.13,-3.6 -1.69,-2.02 -3,-3.91 -3.97,-5.65 -0.96,-1.77 -1.44,-3.9 -1.44,-6.4 0,-2.69 0.67,-4.94 2.01,-6.76 1.36,-1.84 3.1,-3.22 5.23,-4.17 2.15,-0.94 4.45,-1.41 6.91,-1.41 2.94,0 5.45,0.54 7.5,1.62 2.07,1.08 3.67,2.55 4.8,4.4 1.13,1.85 1.7,3.91 1.7,6.17 0,2.22 -0.49,4.17 -1.49,5.85 -0.99,1.69 -2.26,3.15 -3.81,4.41 -1.56,1.25 -3.24,2.43 -5,3.55l7.41 8.65c0.73,-0.91 1.46,-1.87 2.17,-2.85 0.73,-0.99 1.46,-2.04 2.18,-3.14 1.83,-2.65 3.9,-3.2 6.2,-1.66 2.37,1.63 2.66,3.75 0.89,6.35 -0.93,1.39 -1.87,2.76 -2.83,4.08 -0.96,1.31 -1.95,2.6 -2.96,3.86l4.03 4.76c1.36,1.58 1.96,2.95 1.81,4.12 -0.15,1.15 -0.98,1.73 -2.53,1.73l-2.24 0c-2.39,0 -4.16,-0.72 -5.33,-2.17l-1.8 -2.17c-2.02,1.7 -4.19,3.05 -6.5,4.06 -2.31,1.01 -4.81,1.52 -7.51,1.52zm0.65 -8.47c1.26,0 2.56,-0.31 3.9,-0.93 1.35,-0.63 2.7,-1.49 4.04,-2.6l-8.95 -10.7c-1.63,1.12 -3,2.32 -4.09,3.63 -1.07,1.29 -1.61,2.8 -1.61,4.54 0,2.36 0.58,3.96 1.72,4.8 1.17,0.83 2.83,1.25 4.99,1.25zm1.23 -24.53c1.73,-1.09 3.19,-2.28 4.35,-3.52 1.19,-1.25 1.78,-2.7 1.78,-4.35 0,-1.54 -0.48,-2.68 -1.44,-3.43 -0.96,-0.75 -2,-1.12 -3.11,-1.12 -1.35,0 -2.6,0.41 -3.75,1.22 -1.14,0.83 -1.72,2.03 -1.72,3.61 0,1.5 0.39,2.83 1.14,3.97 0.77,1.16 1.69,2.36 2.74,3.61zm63.66 31.76c-2.6,0 -4.31,-1.35 -5.13,-4.03l-7.2 -25.42c-0.49,-1.63 -0.48,-2.93 0.02,-3.89 0.51,-0.98 1.43,-1.46 2.77,-1.46l0.07 0c2.8,0 4.56,1.37 5.27,4.11l4.57 17.97 4.61 -17.97c0.72,-2.74 2.33,-4.11 4.83,-4.11 2.46,0 4.04,1.37 4.76,4.11l4.57 17.97 4.62 -17.97c0.71,-2.74 2.46,-4.11 5.27,-4.11 1.33,0 2.26,0.48 2.79,1.46 0.53,0.96 0.56,2.26 0.07,3.89l-7.28 25.42c-0.82,2.68 -2.53,4.03 -5.13,4.03 -2.65,0 -4.33,-1.37 -5.05,-4.1l-4.69 -18.2 -4.69 18.2c-0.73,2.73 -2.42,4.1 -5.05,4.1zm50.66 0.44c-3.79,0.18 -6.95,-0.64 -9.48,-2.46 -2.52,-1.84 -3.79,-4.48 -3.79,-7.95 0,-2.46 0.73,-4.56 2.2,-6.31 1.48,-1.77 3.38,-3.14 5.7,-4.13 2.33,-0.98 4.75,-1.5 7.25,-1.55 1.11,-0.08 2.17,0 3.18,0.26 1.01,0.25 1.95,0.6 2.81,1.05l0 -2.33c0,-2.02 -0.43,-3.33 -1.3,-3.92 -0.88,-0.6 -2.11,-0.9 -3.69,-0.9 -1.28,0 -2.62,0.16 -4,0.47 -1.37,0.31 -2.71,0.74 -3.99,1.25 -1.41,0.58 -2.6,0.78 -3.59,0.63 -0.99,-0.17 -1.81,-0.81 -2.48,-1.9 -0.64,-1.12 -0.78,-2.2 -0.44,-3.24 0.35,-1.02 1.24,-1.85 2.69,-2.48 1.72,-0.78 3.59,-1.39 5.58,-1.87 2,-0.48 4.08,-0.72 6.24,-0.72 4.48,0 7.87,0.91 10.17,2.74 2.31,1.82 3.46,5.14 3.46,9.94l0 15.19c0,0.48 0.02,0.81 0.07,1 0.16,0.67 0.43,1.12 0.83,1.33 0.41,0.22 0.83,0.36 1.28,0.43 0.43,0.06 0.8,0.16 1.11,0.29 0.31,0.12 0.47,0.42 0.47,0.9 0,0.91 -0.25,1.73 -0.76,2.46 -0.5,0.72 -1.33,1.2 -2.48,1.43 -0.53,0.09 -1.08,0.18 -1.66,0.24 -0.57,0.09 -1.18,0.13 -1.81,0.13 -2.83,0 -4.63,-0.96 -5.4,-2.9 -2.21,1.69 -4.93,2.65 -8.17,2.9zm-0.2 -7.81c2.55,-0.14 4.59,-0.63 6.1,-1.46 1.52,-0.84 2.22,-2.01 2.13,-3.5 -0.05,-1.12 -0.59,-1.85 -1.62,-2.18 -1.04,-0.34 -2.3,-0.46 -3.79,-0.36 -2.22,0.08 -3.98,0.66 -5.28,1.71 -1.29,1.03 -1.91,2.13 -1.88,3.27 0.05,0.81 0.42,1.44 1.12,1.9 0.71,0.47 1.78,0.67 3.22,0.62zm39.77 21.44c-5.49,0 -9.79,-1.54 -12.93,-4.61 -1.09,-1.17 -1.54,-2.31 -1.33,-3.44 0.23,-1.13 0.91,-2.08 2.06,-2.85 1.21,-0.8 2.28,-1.08 3.22,-0.83 0.95,0.28 2.02,0.89 3.21,1.85 0.78,0.53 1.63,0.94 2.55,1.21 0.95,0.29 2.02,0.44 3.22,0.44 2.65,0 4.58,-0.8 5.8,-2.39 1.24,-1.59 1.85,-4.17 1.85,-7.71l0 -0.8c-2.22,1.88 -4.87,2.81 -7.94,2.81 -3.08,0 -5.81,-0.61 -8.2,-1.83 -2.37,-1.24 -4.24,-3.11 -5.62,-5.61 -1.37,-2.5 -2.06,-5.61 -2.06,-9.31 0,-3.72 0.69,-6.81 2.06,-9.29 1.38,-2.48 3.25,-4.33 5.62,-5.55 2.39,-1.21 5.13,-1.83 8.2,-1.83 1.69,0 3.38,0.35 5.05,1.04 1.67,0.69 3.04,1.94 4.1,3.79l0 -0.57c0,-1.29 0.35,-2.18 1.05,-2.67 0.71,-0.48 1.66,-0.72 2.86,-0.72 2.6,0 3.9,1.59 3.9,4.76l0 25.77c0,5.64 -1.31,10.11 -3.94,13.39 -2.62,3.3 -6.87,4.94 -12.73,4.94zm0.43 -24.17c2.31,0 4.2,-0.8 5.67,-2.38 1.47,-1.6 2.2,-3.76 2.2,-6.51 0,-2.74 -0.73,-4.89 -2.2,-6.43 -1.47,-1.54 -3.35,-2.31 -5.67,-2.31 -2.3,0 -4.1,0.77 -5.41,2.31 -1.31,1.54 -1.96,3.68 -1.96,6.43 0,2.74 0.65,4.91 1.96,6.51 1.31,1.59 3.11,2.38 5.41,2.38zm39.05 24.17c-5.48,0 -9.79,-1.54 -12.93,-4.61 -1.09,-1.17 -1.54,-2.31 -1.34,-3.44 0.23,-1.13 0.92,-2.08 2.06,-2.85 1.22,-0.8 2.29,-1.08 3.22,-0.83 0.95,0.28 2.02,0.89 3.21,1.85 0.78,0.53 1.62,0.94 2.55,1.21 0.95,0.29 2.02,0.44 3.22,0.44 2.65,0 4.59,-0.8 5.8,-2.39 1.24,-1.59 1.85,-4.17 1.85,-7.71l0 -0.8c-2.23,1.88 -4.87,2.81 -7.94,2.81 -3.08,0 -5.81,-0.61 -8.2,-1.83 -2.37,-1.24 -4.24,-3.11 -5.62,-5.61 -1.37,-2.5 -2.06,-5.61 -2.06,-9.31 0,-3.72 0.69,-6.81 2.06,-9.29 1.38,-2.48 3.25,-4.33 5.62,-5.55 2.39,-1.21 5.13,-1.83 8.2,-1.83 1.7,0 3.38,0.35 5.05,1.04 1.67,0.69 3.05,1.94 4.1,3.79l0 -0.57c0,-1.29 0.35,-2.18 1.05,-2.67 0.71,-0.48 1.66,-0.72 2.86,-0.72 2.6,0 3.9,1.59 3.9,4.76l0 25.77c0,5.64 -1.31,10.11 -3.94,13.39 -2.62,3.3 -6.87,4.94 -12.73,4.94zm0.43 -24.17c2.31,0 4.2,-0.8 5.67,-2.38 1.46,-1.6 2.2,-3.76 2.2,-6.51 0,-2.74 -0.74,-4.89 -2.2,-6.43 -1.47,-1.54 -3.36,-2.31 -5.67,-2.31 -2.3,0 -4.1,0.77 -5.41,2.31 -1.31,1.54 -1.96,3.68 -1.96,6.43 0,2.74 0.65,4.91 1.96,6.51 1.31,1.59 3.12,2.38 5.41,2.38zm30.31 10.09c-3.03,0 -4.54,-1.59 -4.54,-4.76l0 -25.26c0,-3.18 1.52,-4.76 4.54,-4.76 3.03,0 4.55,1.59 4.55,4.76l0 25.26c0,3.17 -1.52,4.76 -4.55,4.76zm-0.07 -39.99c-1.54,0 -2.85,-0.56 -3.93,-1.65 -1.07,-1.12 -1.61,-2.45 -1.61,-3.98 0,-1.54 0.54,-2.85 1.61,-3.93 1.08,-1.09 2.39,-1.63 3.93,-1.63 1.54,0 2.85,0.54 3.93,1.63 1.07,1.08 1.61,2.39 1.61,3.93 0,1.53 -0.54,2.86 -1.61,3.98 -1.08,1.09 -2.39,1.65 -3.93,1.65zm18.49 39.99c-3.04,0 -4.55,-1.59 -4.55,-4.76l0 -25.26c0,-3.18 1.35,-4.76 4.03,-4.76 2.73,0 4.17,0.65 4.33,1.95l0.22 1.95c0.96,-1.26 2.2,-2.36 3.72,-3.31 1.52,-0.96 3.31,-1.44 5.37,-1.44 3.61,0 6.56,1.15 8.83,3.46 2.29,2.3 3.43,5.71 3.43,10.24l0 17.18c0,3.17 -1.52,4.76 -4.55,4.76 -3.02,0 -4.54,-1.59 -4.54,-4.76l0 -14.94c0,-2.55 -0.49,-4.48 -1.49,-5.76 -0.99,-1.3 -2.32,-1.95 -4,-1.95 -1.84,0 -3.34,0.66 -4.51,1.98 -1.18,1.31 -1.77,3.39 -1.77,6.22l0 14.45c0,3.17 -1.52,4.76 -4.54,4.76zm48.2 14.07c-5.48,0 -9.79,-1.54 -12.93,-4.61 -1.09,-1.17 -1.54,-2.31 -1.34,-3.44 0.23,-1.13 0.92,-2.08 2.06,-2.85 1.22,-0.8 2.29,-1.08 3.22,-0.83 0.95,0.28 2.02,0.89 3.21,1.85 0.78,0.53 1.62,0.94 2.55,1.21 0.95,0.29 2.02,0.44 3.22,0.44 2.65,0 4.59,-0.8 5.8,-2.39 1.24,-1.59 1.85,-4.17 1.85,-7.71l0 -0.8c-2.23,1.88 -4.87,2.81 -7.94,2.81 -3.08,0 -5.81,-0.61 -8.2,-1.83 -2.37,-1.24 -4.24,-3.11 -5.62,-5.61 -1.37,-2.5 -2.06,-5.61 -2.06,-9.31 0,-3.72 0.69,-6.81 2.06,-9.29 1.38,-2.48 3.25,-4.33 5.62,-5.55 2.39,-1.21 5.13,-1.83 8.2,-1.83 1.7,0 3.38,0.35 5.05,1.04 1.67,0.69 3.05,1.94 4.1,3.79l0 -0.57c0,-1.29 0.35,-2.18 1.05,-2.67 0.71,-0.48 1.66,-0.72 2.86,-0.72 2.6,0 3.9,1.59 3.9,4.76l0 25.77c0,5.64 -1.31,10.11 -3.94,13.39 -2.62,3.3 -6.87,4.94 -12.73,4.94zm0.43 -24.17c2.31,0 4.2,-0.8 5.67,-2.38 1.46,-1.6 2.2,-3.76 2.2,-6.51 0,-2.74 -0.74,-4.89 -2.2,-6.43 -1.47,-1.54 -3.36,-2.31 -5.67,-2.31 -2.3,0 -4.1,0.77 -5.41,2.31 -1.31,1.54 -1.96,3.68 -1.96,6.43 0,2.74 0.65,4.91 1.96,6.51 1.31,1.59 3.12,2.38 5.41,2.38zm59.26 10.89c-2.31,0 -4.27,-0.25 -5.88,-0.76 -1.6,-0.51 -2.83,-1.46 -3.68,-2.85 -0.84,-1.41 -1.26,-3.38 -1.26,-5.93l0 -18.25 -1.73 0c-3.16,0 -4.75,-1.3 -4.75,-3.9 0,-1.26 0.34,-2.23 1,-2.89 0.67,-0.67 1.9,-1.01 3.68,-1.01l1.8 0 0 -7.29c0,-1.54 0.4,-2.72 1.18,-3.52 0.8,-0.83 1.91,-1.24 3.37,-1.24 2.98,0 4.48,1.59 4.48,4.76l0 7.29 4.61 0c3.19,0 4.78,1.3 4.78,3.9 0,2.6 -1.56,3.9 -4.68,3.9l-4.7 0 0 15.88c0,1.49 0.37,2.5 1.11,3.03 0.76,0.53 1.83,0.8 3.22,0.8 1.64,0 2.89,0.23 3.75,0.69 0.87,0.46 1.3,1.48 1.3,3.07 0,1.3 -0.36,2.26 -1.08,2.89 -0.72,0.61 -1.66,1.01 -2.83,1.18 -1.14,0.18 -2.37,0.26 -3.67,0.26zm25.47 -0.35c-3.79,0.18 -6.95,-0.64 -9.48,-2.46 -2.53,-1.84 -3.79,-4.48 -3.79,-7.95 0,-2.46 0.73,-4.56 2.2,-6.31 1.48,-1.77 3.38,-3.14 5.7,-4.13 2.33,-0.98 4.75,-1.5 7.26,-1.55 1.11,-0.08 2.16,0 3.17,0.26 1.01,0.25 1.95,0.6 2.81,1.05l0 -2.33c0,-2.02 -0.43,-3.33 -1.3,-3.92 -0.88,-0.6 -2.11,-0.9 -3.68,-0.9 -1.29,0 -2.62,0.16 -4,0.47 -1.37,0.31 -2.71,0.74 -4,1.25 -1.41,0.58 -2.6,0.78 -3.58,0.63 -0.99,-0.17 -1.82,-0.81 -2.48,-1.9 -0.64,-1.12 -0.78,-2.2 -0.44,-3.24 0.35,-1.02 1.24,-1.85 2.69,-2.48 1.72,-0.78 3.58,-1.39 5.58,-1.87 2,-0.48 4.08,-0.72 6.24,-0.72 4.48,0 7.87,0.91 10.17,2.74 2.31,1.82 3.46,5.14 3.46,9.94l0 15.19c0,0.48 0.02,0.81 0.07,1 0.15,0.67 0.43,1.12 0.83,1.33 0.41,0.22 0.83,0.36 1.27,0.43 0.43,0.06 0.81,0.16 1.11,0.29 0.31,0.12 0.47,0.42 0.47,0.9 0,0.91 -0.26,1.73 -0.76,2.46 -0.5,0.72 -1.33,1.2 -2.48,1.43 -0.53,0.09 -1.08,0.18 -1.66,0.24 -0.58,0.09 -1.18,0.13 -1.81,0.13 -2.83,0 -4.63,-0.96 -5.4,-2.9 -2.22,1.69 -4.93,2.65 -8.17,2.9zm-0.2 -7.81c2.55,-0.14 4.58,-0.63 6.1,-1.46 1.52,-0.84 2.22,-2.01 2.13,-3.5 -0.05,-1.12 -0.59,-1.85 -1.63,-2.18 -1.03,-0.34 -2.3,-0.46 -3.79,-0.36 -2.22,0.08 -3.98,0.66 -5.28,1.71 -1.29,1.03 -1.91,2.13 -1.88,3.27 0.05,0.81 0.42,1.44 1.12,1.9 0.71,0.47 1.78,0.67 3.22,0.62zm32.48 7.37c-3.03,0 -4.55,-1.59 -4.55,-4.76l0 -25.26c0,-3.18 1.52,-4.76 4.55,-4.76 3.03,0 4.55,1.59 4.55,4.76l0 25.26c0,3.17 -1.52,4.76 -4.55,4.76zm-0.07 -39.99c-1.54,0 -2.85,-0.56 -3.93,-1.65 -1.07,-1.12 -1.61,-2.45 -1.61,-3.98 0,-1.54 0.54,-2.85 1.61,-3.93 1.08,-1.09 2.39,-1.63 3.93,-1.63 1.54,0 2.85,0.54 3.93,1.63 1.07,1.08 1.61,2.39 1.61,3.93 0,1.53 -0.54,2.86 -1.61,3.98 -1.08,1.09 -2.39,1.65 -3.93,1.65zm18.49 39.99c-3.03,0 -4.55,-1.59 -4.55,-4.76l0 -41.8c0,-3.17 1.52,-4.76 4.55,-4.76 3.02,0 4.54,1.59 4.54,4.76l0 41.8c0,3.17 -1.52,4.76 -4.54,4.76zm25.53 0.72c-2.01,0 -3.97,-0.23 -5.88,-0.69 -1.89,-0.46 -3.68,-1.22 -5.38,-2.28 -1.33,-0.87 -2.06,-1.86 -2.17,-3 -0.09,-1.13 0.32,-2.2 1.24,-3.21 0.91,-0.96 1.86,-1.43 2.85,-1.41 0.98,0.02 2.15,0.42 3.51,1.18 1.87,1.01 3.98,1.52 6.34,1.52 1.83,0 3.11,-0.21 3.83,-0.66 0.73,-0.47 1.09,-1.32 1.09,-2.57 0,-0.53 -0.18,-1 -0.56,-1.41 -0.36,-0.42 -1.11,-0.81 -2.24,-1.15 -1.12,-0.36 -2.81,-0.76 -5.09,-1.19 -3.52,-0.67 -6.22,-1.83 -8.12,-3.45 -1.89,-1.65 -2.84,-4.1 -2.84,-7.37 0,-2.18 0.58,-4.07 1.72,-5.67 1.15,-1.61 2.73,-2.86 4.73,-3.76 2,-0.9 4.24,-1.35 6.75,-1.35 3.42,0 6.5,0.63 9.23,1.89 1.45,0.71 2.28,1.64 2.49,2.76 0.23,1.09 -0.07,2.18 -0.9,3.24 -0.81,1.06 -1.71,1.6 -2.69,1.62 -0.99,0.02 -2.18,-0.23 -3.57,-0.76 -0.72,-0.28 -1.44,-0.48 -2.17,-0.6 -0.72,-0.13 -1.47,-0.19 -2.24,-0.19 -1.59,0 -2.67,0.25 -3.25,0.76 -0.58,0.5 -0.87,1.09 -0.87,1.76 0,0.48 0.14,0.91 0.42,1.31 0.3,0.39 0.93,0.76 1.89,1.13 0.96,0.35 2.46,0.77 4.48,1.25 4,0.91 7.01,2.3 9.06,4.15 2.04,1.86 3.07,4.33 3.07,7.41 0,3.6 -1.39,6.29 -4.16,8.08 -2.76,1.77 -6.28,2.66 -10.57,2.66zm26.01 0.07c-1.65,0 -3.03,-0.56 -4.16,-1.7 -1.13,-1.12 -1.7,-2.49 -1.7,-4.09 0,-1.62 0.57,-3 1.7,-4.14 1.13,-1.12 2.52,-1.68 4.16,-1.68 1.58,0 2.95,0.56 4.1,1.68 1.15,1.13 1.72,2.52 1.72,4.14 0,1.6 -0.57,2.97 -1.72,4.09 -1.15,1.13 -2.52,1.7 -4.1,1.7z"/>
   <path class="fil0" d="M2314.8 2332.57c-2.09,3.26 -17.09,1.58 -25.59,10.78 -9.18,9.93 -5.26,22.94 -9.28,28.65 2.01,-1.86 -0.48,0.69 -1.44,-7.7 -4.23,-36.62 -21.24,-22.81 -32.6,-31.67 9.98,-3.6 20.33,-2.43 26.19,-10.17 7.12,-9.41 4.26,-20.22 7.62,-29.25 2.37,3.02 2.48,10.74 3.28,14.67 5.44,26.53 18.72,19.32 31.82,24.69z"/>
   <path class="fil0" d="M2255.89 2389.03c-16.86,-7.31 -25.29,19.44 -9.46,24.97 15.17,5.31 25.86,-17.86 9.46,-24.97zm-0.98 -4.49c24.57,7.31 13.09,39.27 -9.11,33.94 -21.49,-5.15 -12.95,-40.51 9.11,-33.94z"/>
   <path class="fil0" d="M2248.77 2392.25c-8.04,8.44 -2.04,5.09 -7.56,9.22 0.37,-6.12 4.49,-12.42 7.56,-9.22z"/>
  </g>
  <polygon class="fil4" points="156.67,2218.93 2455.02,2218.93 2455.02,2850.89 156.67,2850.89 "/>
  <path class="fil5" d="M2683.91 2654.67c-15.63,0 -23.43,-7.79 -23.43,-23.37l0 -181.97 -49.56 0c-15.64,0 -23.43,-7.08 -23.43,-21.19 0,-14.22 7.79,-21.3 23.43,-21.3l145.15 0c15.52,0 23.31,7.08 23.31,21.3 0,14.1 -7.79,21.19 -23.31,21.19l-49.21 0 0 181.97c0,15.58 -7.67,23.37 -22.95,23.37z"/>
  <path class="fil5" d="M2787.87 2654.67c-14.87,0 -22.3,-7.79 -22.3,-23.37l0 -123.91c0,-15.58 7.79,-23.37 23.3,-23.37 4.96,0 9.44,1.24 13.4,3.72 4.07,2.48 6.07,7.14 6.07,14.04l0 5.25c4.25,-8.2 10.74,-14.81 19.41,-19.77 8.79,-4.96 18,-7.43 27.67,-7.43 7.55,0 13.33,2.3 17.29,6.91 4.07,4.54 6.08,10.38 6.08,17.46 0,6.61 -1.77,11.5 -5.37,14.69 -3.54,3.13 -7.31,4.48 -11.27,4.07 -1.89,-0.24 -3.96,-0.41 -6.2,-0.53 -2.24,-0.12 -4.66,-0.18 -7.26,-0.18 -10.85,0 -20,3.48 -27.44,10.44 -7.43,6.96 -11.15,17.17 -11.15,30.62l0 67.97c0,15.58 -7.44,23.37 -22.24,23.37z"/>
  <path class="fil5" d="M2910.3 2654.67c-14.87,0 -22.31,-7.79 -22.31,-23.37l0 -123.91c0,-15.58 7.44,-23.37 22.31,-23.37 14.87,0 22.3,7.79 22.3,23.37l0 123.91c0,15.58 -7.44,23.37 -22.3,23.37zm-0.35 -196.13c-7.56,0 -13.98,-2.72 -19.3,-8.09 -5.25,-5.48 -7.91,-12.04 -7.91,-19.53 0,-7.56 2.65,-13.98 7.91,-19.3 5.31,-5.31 11.74,-7.96 19.3,-7.96 7.55,0 13.98,2.65 19.29,7.96 5.25,5.31 7.91,11.74 7.91,19.3 0,7.49 -2.66,14.04 -7.91,19.53 -5.31,5.37 -11.74,8.09 -19.29,8.09z"/>
  <path class="fil5" d="M2982.21 2654.67c-14.87,0 -22.3,-7.79 -22.3,-23.37l0 -123.91c0,-15.58 6.61,-23.37 19.76,-23.37 13.22,0 20.3,3.19 21.24,9.56l1.41 9.56c3.25,-6.85 8.61,-12.45 16.05,-16.76 7.43,-4.37 16.17,-6.55 26.14,-6.55 10.56,0 19.94,2.54 28.09,7.61 8.08,5.02 14.52,12.04 19.24,20.95 4.78,-8.2 11.39,-15.05 19.83,-20.48 8.56,-5.37 18,-8.08 28.32,-8.08 16.58,0 30.04,5.96 40.36,17.88 10.44,11.86 15.69,28.32 15.69,49.33l0 84.26c0,15.58 -7.43,23.37 -22.3,23.37 -15.17,0 -22.78,-7.79 -22.78,-23.37l0 -73.28c0,-11.09 -2.01,-20.18 -6.02,-27.2 -3.95,-7.08 -9.5,-10.62 -16.58,-10.62 -8.91,0 -15.87,3.37 -20.83,10.09 -4.96,6.67 -7.43,16.76 -7.43,30.15l0 70.87c0,15.58 -7.43,23.37 -22.3,23.37 -14.93,0 -22.42,-7.79 -22.42,-23.37l0 -73.28c0,-11.09 -2.13,-20.18 -6.37,-27.2 -4.19,-7.08 -9.85,-10.62 -16.93,-10.62 -18.41,0 -27.61,13.39 -27.61,40.24l0 70.87c0,15.58 -7.44,23.37 -22.24,23.37z"/>
  <path class="fil5" d="M3280.53 2658.21c-9.85,0 -19.47,-1.12 -28.85,-3.36 -9.26,-2.24 -18.06,-5.96 -26.37,-11.15 -6.55,-4.25 -10.09,-9.15 -10.62,-14.69 -0.41,-5.55 1.59,-10.8 6.08,-15.76 4.48,-4.72 9.15,-7.02 13.98,-6.9 4.84,0.11 10.56,2.06 17.23,5.78 9.15,4.96 19.53,7.44 31.1,7.44 8.97,0 15.22,-1.06 18.76,-3.25 3.6,-2.3 5.37,-6.49 5.37,-12.63 0,-2.59 -0.89,-4.9 -2.71,-6.9 -1.77,-2.07 -5.43,-3.96 -10.98,-5.67 -5.49,-1.77 -13.81,-3.72 -24.96,-5.84 -17.23,-3.3 -30.51,-8.97 -39.83,-16.93 -9.26,-8.08 -13.93,-20.12 -13.93,-36.17 0,-10.68 2.83,-19.94 8.44,-27.79 5.66,-7.91 13.39,-14.04 23.19,-18.41 9.8,-4.43 20.83,-6.61 33.1,-6.61 16.76,0 31.86,3.07 45.26,9.26 7.14,3.48 11.21,8.02 12.22,13.51 1.12,5.37 -0.35,10.68 -4.43,15.87 -3.95,5.19 -8.38,7.85 -13.22,7.96 -4.84,0.12 -10.68,-1.12 -17.53,-3.72 -3.54,-1.36 -7.08,-2.36 -10.62,-2.95 -3.54,-0.65 -7.2,-0.94 -10.98,-0.94 -7.79,0 -13.1,1.24 -15.93,3.72 -2.83,2.48 -4.25,5.37 -4.25,8.61 0,2.36 0.7,4.48 2.06,6.43 1.48,1.89 4.54,3.72 9.26,5.54 4.72,1.71 12.04,3.78 21.95,6.14 19.59,4.48 34.4,11.27 44.43,20.36 10.03,9.15 15.04,21.24 15.04,36.35 0,17.64 -6.78,30.86 -20.41,39.65 -13.51,8.67 -30.8,13.04 -51.87,13.04z"/>
  <path class="fil5" d="M3521.99 2660.75c-25.26,0 -44.55,-6.2 -57.94,-18.59 -13.28,-12.39 -19.94,-29.92 -19.94,-52.63 0,-11.33 2.42,-21.24 7.26,-29.68 4.84,-8.56 11.15,-16.05 18.94,-22.48 7.73,-6.49 16.11,-12.39 25.13,-17.65 -8.26,-9.91 -14.75,-19.17 -19.47,-27.73 -4.72,-8.67 -7.08,-19.11 -7.08,-31.39 0,-13.16 3.3,-24.25 9.85,-33.16 6.67,-9.03 15.22,-15.81 25.67,-20.41 10.56,-4.6 21.83,-6.91 33.87,-6.91 14.46,0 26.73,2.66 36.82,7.97 10.15,5.31 18,12.51 23.54,21.59 5.55,9.09 8.32,19.18 8.32,30.27 0,10.92 -2.42,20.48 -7.31,28.68 -4.84,8.26 -11.09,15.46 -18.7,21.59 -7.67,6.14 -15.87,11.92 -24.55,17.41l36.35 42.42c3.6,-4.48 7.14,-9.15 10.62,-13.98 3.6,-4.84 7.14,-9.97 10.68,-15.4 8.97,-12.98 19.11,-15.7 30.39,-8.14 11.62,8.02 13.04,18.41 4.37,31.15 -4.54,6.84 -9.15,13.51 -13.87,20 -4.72,6.43 -9.56,12.75 -14.52,18.94l19.77 23.37c6.67,7.73 9.62,14.46 8.85,20.18 -0.71,5.67 -4.84,8.5 -12.39,8.5l-10.98 0c-11.74,0 -20.42,-3.54 -26.14,-10.62l-8.85 -10.62c-9.91,8.32 -20.54,14.93 -31.86,19.88 -11.33,4.96 -23.6,7.44 -36.82,7.44zm3.19 -41.54c6.19,0 12.57,-1.54 19.12,-4.54 6.61,-3.07 13.22,-7.32 19.82,-12.75l-43.9 -52.45c-7.96,5.49 -14.69,11.39 -20.06,17.82 -5.25,6.31 -7.91,13.75 -7.91,22.24 0,11.57 2.83,19.41 8.44,23.54 5.72,4.07 13.87,6.14 24.49,6.14zm6.02 -120.31c8.5,-5.37 15.63,-11.15 21.36,-17.29 5.84,-6.14 8.73,-13.22 8.73,-21.3 0,-7.55 -2.36,-13.16 -7.08,-16.81 -4.72,-3.66 -9.8,-5.49 -15.22,-5.49 -6.61,0 -12.74,2.01 -18.41,6.02 -5.61,4.07 -8.44,9.97 -8.44,17.7 0,7.37 1.89,13.87 5.6,19.47 3.78,5.66 8.26,11.56 13.46,17.7z"/>
  <path class="fil6" d="M3761.8 2654.67c-14.63,0 -21.95,-7.31 -21.95,-21.95l0 -203.92c0,-14.63 7.31,-21.95 21.95,-21.95l86.09 0c12.98,0 24.72,2.36 35.23,7.08 10.56,4.78 18.94,11.8 25.13,21.13 6.31,9.26 9.44,20.77 9.44,34.46 0,14.63 -3.24,26.79 -9.8,36.46 -6.55,9.74 -14.75,16.11 -24.6,19.12 8.26,1.12 15.75,4.54 22.42,10.15 6.78,5.49 12.15,12.74 16.11,21.77 4.01,8.91 6.02,19.06 6.02,30.39 0,23.37 -7.02,40.42 -21.06,51.21 -13.98,10.68 -32.57,16.05 -55.64,16.05l-89.33 0zm24.13 -42.54l58.77 0c11.04,0 19.41,-2.48 25.08,-7.43 5.72,-4.96 8.56,-12.86 8.56,-23.66 0,-10.39 -3.31,-18.11 -9.91,-23.19 -6.55,-5.07 -14.46,-7.61 -23.72,-7.61l-58.77 0 0 61.89zm0 -104.73l52.75 0c19.12,0 28.68,-10.15 28.68,-30.44 0,-9.2 -2.54,-16.11 -7.61,-20.71 -5.07,-4.6 -12.1,-6.9 -21.07,-6.9l-52.75 0 0 58.06zm216.3 151.17c-17.7,0 -32.16,-5.67 -43.43,-16.93 -11.15,-11.39 -16.76,-28.15 -16.76,-50.33l0 -83.91c0,-15.58 7.44,-23.37 22.3,-23.37 14.87,0 22.3,7.79 22.3,23.37l0 73.28c0,12.27 2.48,21.59 7.44,28.03 4.96,6.31 11.44,9.5 19.47,9.5 8.97,0 16.34,-3.24 22.13,-9.68 5.84,-6.55 8.73,-16.76 8.73,-30.68l0 -70.45c0,-15.58 7.43,-23.37 22.3,-23.37 14.87,0 22.3,7.79 22.3,23.37l0 123.91c0,15.58 -6.61,23.37 -19.88,23.37 -13.22,0 -20.18,-3.19 -20.83,-9.62l-1.48 -9.5c-4.54,5.9 -10.5,11.21 -17.94,15.93 -7.43,4.72 -16.34,7.08 -26.67,7.08zm194.7 0c-8.73,0 -16.87,-1.89 -24.43,-5.61 -7.55,-3.83 -14.28,-9.85 -20.12,-18.06l0 3.07c0,6.19 -2.07,10.5 -6.26,12.98 -4.13,2.48 -9.15,3.72 -15.05,3.72 -12.92,0 -19.41,-7.79 -19.41,-23.37l0 -204.98c0,-15.58 7.43,-23.37 22.3,-23.37 14.81,0 22.24,7.79 22.24,23.37l0 69.39c11.74,-10.56 25.31,-15.87 40.71,-15.87 16.05,0 30.33,3.48 42.84,10.44 12.45,6.9 22.3,17.05 29.56,30.39 7.2,13.33 10.8,29.56 10.8,48.68 0,18.94 -3.6,35.05 -10.8,48.32 -7.26,13.28 -17.11,23.43 -29.56,30.44 -12.51,6.96 -26.79,10.44 -42.84,10.44zm-1.77 -40.36c11.33,0 20.83,-4.19 28.5,-12.57 7.67,-8.38 11.51,-20.48 11.51,-36.29 0,-16.05 -3.84,-28.26 -11.51,-36.64 -7.67,-8.32 -17.17,-12.51 -28.5,-12.51 -11.27,0 -20.77,4.19 -28.38,12.51 -7.56,8.38 -11.33,20.59 -11.33,36.64 0,15.81 3.78,27.91 11.33,36.29 7.61,8.38 17.11,12.57 28.38,12.57zm184.08 40.36c-8.73,0 -16.87,-1.89 -24.43,-5.61 -7.55,-3.83 -14.28,-9.85 -20.12,-18.06l0 3.07c0,6.19 -2.07,10.5 -6.26,12.98 -4.13,2.48 -9.15,3.72 -15.05,3.72 -12.92,0 -19.41,-7.79 -19.41,-23.37l0 -204.98c0,-15.58 7.43,-23.37 22.3,-23.37 14.81,0 22.24,7.79 22.24,23.37l0 69.39c11.74,-10.56 25.31,-15.87 40.71,-15.87 16.05,0 30.33,3.48 42.84,10.44 12.45,6.9 22.3,17.05 29.56,30.39 7.2,13.33 10.8,29.56 10.8,48.68 0,18.94 -3.6,35.05 -10.8,48.32 -7.26,13.28 -17.11,23.43 -29.56,30.44 -12.51,6.96 -26.79,10.44 -42.84,10.44zm-1.77 -40.36c11.33,0 20.83,-4.19 28.5,-12.57 7.67,-8.38 11.51,-20.48 11.51,-36.29 0,-16.05 -3.84,-28.26 -11.51,-36.64 -7.67,-8.32 -17.17,-12.51 -28.5,-12.51 -11.27,0 -20.77,4.19 -28.38,12.51 -7.56,8.38 -11.33,20.59 -11.33,36.64 0,15.81 3.78,27.91 11.33,36.29 7.61,8.38 17.11,12.57 28.38,12.57zm121.13 36.46c-14.87,0 -22.3,-7.79 -22.3,-23.37l0 -204.98c0,-15.58 7.43,-23.37 22.3,-23.37 14.81,0 22.24,7.79 22.24,23.37l0 204.98c0,15.58 -7.44,23.37 -22.24,23.37zm120.3 3.89c-25.02,0 -45.31,-7.37 -60.95,-22.13 -15.52,-14.75 -23.31,-37.11 -23.31,-67.09 0,-18.65 3.48,-34.64 10.44,-47.97 6.96,-13.39 16.58,-23.6 28.85,-30.74 12.27,-7.2 26.43,-10.8 42.43,-10.8 16.11,0 29.74,3.66 40.89,10.98 11.27,7.31 19.82,16.7 25.67,28.15 5.96,11.39 8.91,23.48 8.91,36.23 0,10.15 -2,16.64 -6.02,19.47 -3.96,2.78 -9.8,4.19 -17.41,4.19l-89.86 0c1.24,15.87 5.55,26.67 12.98,32.51 7.43,5.78 16.81,8.68 28.09,8.68 12.51,0 22.42,-3.66 29.74,-10.98 5.37,-5.49 10.38,-9.09 14.98,-10.68 4.66,-1.65 9.56,-0.59 14.75,3.25 5.49,3.72 8.5,8.5 9.03,14.33 0.59,5.72 -1.94,11.69 -7.61,17.82 -8.09,8.73 -17.23,15.04 -27.44,19 -10.27,3.84 -21.66,5.78 -34.17,5.78zm-38.53 -113.64l67.56 0c-4.25,-20.3 -14.99,-30.45 -32.22,-30.45 -9.44,0 -17.11,2.36 -23.01,7.08 -5.84,4.72 -9.97,12.51 -12.33,23.37zm190.69 113.29c-9.85,0 -19.47,-1.12 -28.85,-3.36 -9.26,-2.24 -18.06,-5.96 -26.37,-11.15 -6.55,-4.25 -10.09,-9.15 -10.62,-14.69 -0.41,-5.55 1.59,-10.8 6.08,-15.76 4.48,-4.72 9.15,-7.02 13.98,-6.9 4.84,0.11 10.56,2.06 17.23,5.78 9.15,4.96 19.53,7.44 31.1,7.44 8.97,0 15.22,-1.06 18.76,-3.25 3.6,-2.3 5.37,-6.49 5.37,-12.63 0,-2.59 -0.89,-4.9 -2.71,-6.9 -1.77,-2.07 -5.43,-3.96 -10.98,-5.67 -5.49,-1.77 -13.81,-3.72 -24.96,-5.84 -17.23,-3.3 -30.51,-8.97 -39.83,-16.93 -9.26,-8.08 -13.93,-20.12 -13.93,-36.17 0,-10.68 2.83,-19.94 8.44,-27.79 5.66,-7.91 13.39,-14.04 23.19,-18.41 9.8,-4.43 20.83,-6.61 33.1,-6.61 16.76,0 31.86,3.07 45.26,9.26 7.14,3.48 11.21,8.02 12.22,13.51 1.12,5.37 -0.35,10.68 -4.43,15.87 -3.95,5.19 -8.38,7.85 -13.22,7.96 -4.84,0.12 -10.68,-1.12 -17.53,-3.72 -3.54,-1.36 -7.08,-2.36 -10.62,-2.95 -3.54,-0.65 -7.2,-0.94 -10.98,-0.94 -7.79,0 -13.1,1.24 -15.93,3.72 -2.83,2.48 -4.25,5.37 -4.25,8.61 0,2.36 0.7,4.48 2.06,6.43 1.48,1.89 4.54,3.72 9.26,5.54 4.72,1.71 12.04,3.78 21.95,6.14 19.59,4.48 34.4,11.27 44.43,20.36 10.03,9.15 15.04,21.24 15.04,36.35 0,17.64 -6.78,30.86 -20.41,39.65 -13.51,8.67 -30.8,13.04 -51.87,13.04z"/>
  <polygon class="fil7" points="2509.01,2113.01 2526.71,2113.01 2526.71,2886.99 2509.01,2886.99 "/>
  <polygon class="fil4" points="-2.84,1953.29 5002.85,1953.29 5002.85,3046.71 -2.84,3046.71 "/>
 </g>
</svg>
